<?xml version="1.0" standalone="no"?>
<!DOCTYPE svg PUBLIC "-//W3C//DTD SVG 1.1//EN" "http://www.w3.org/Graphics/SVG/1.1/DTD/svg11.dtd" >
<svg xmlns="http://www.w3.org/2000/svg" xmlns:xlink="http://www.w3.org/1999/xlink" version="1.1">
<metadata>
Created by FontForge 20190801 at Fri Sep  7 15:56:34 2018
 By Jimmy Wärting
Copyright 2018 The K2D Project Authors (https://github.com/cadsondemak/K2D)
</metadata>
<defs>
<font id="K2D-LightItalic" horiz-adv-x="0" >
  <font-face 
    font-family="K2D Light"
    font-weight="300"
    font-style="italic"
    font-stretch="normal"
    units-per-em="1000"
    panose-1="0 0 4 0 0 0 0 0 0 0"
    ascent="800"
    descent="-200"
    x-height="500"
    cap-height="709"
    bbox="-572 -501 1167 1241"
    underline-thickness="50"
    underline-position="-100"
    slope="-10"
    unicode-range="U+000D-FB02"
  />
<missing-glyph horiz-adv-x="737" 
d="M183 750h550l-134 -750h-550zM558 52l116 647h-450l-116 -647h450z" />
    <glyph glyph-name="fi" unicode="fi" horiz-adv-x="598" 
d="M156 445h-84q5 30 21 46t40 16h34l9 54q13 69 61 108.5t121 39.5q35 0 58 -14.5t23 -36.5q0 -9 -4 -18.5t-11 -16.5q-32 21 -74 21t-68 -22t-33 -65l-9 -50h307l-81 -457q-10 -59 -83 -59l80 454h-233l-70 -395q-10 -59 -84 -59zM490 607.5q-14 13.5 -14 34.5
q0 26 21 46.5t49 20.5q22 0 36 -13t14 -34q0 -27 -21 -47.5t-49 -20.5q-22 0 -36 13.5z" />
    <glyph glyph-name="fl" unicode="fl" horiz-adv-x="677" 
d="M156 445h-84q5 30 21 46t40 16h34l8 45q14 72 70.5 114.5t139.5 42.5q58 0 104.5 -17.5t70.5 -48.5l-90 -510q-2 -10 -2 -26q0 -27 14.5 -39t46.5 -12q30 0 68 18q5 -10 5 -20q0 -26 -27 -44.5t-66 -18.5q-53 0 -84 29t-31 79q0 15 3 31l55 315h-222l-70 -395
q-10 -59 -84 -59zM463 507l19 109q-23 16 -46.5 22t-62.5 6q-52 0 -84.5 -25t-40.5 -72l-8 -40h223z" />
    <glyph glyph-name="uni0E240E45" unicode="&#xe24;&#xe45;" horiz-adv-x="878" 
d="M459 389q2 9 2 26q0 50 -34.5 80.5t-92.5 30.5q-60 0 -112.5 -34.5t-77.5 -90.5l39 -98q3 -9 3 -16q0 -9 -1 -14l-17 -92q-21 -10 -31 -22l2 -3q28 25 63 25q34 0 55 -21t21 -54q0 -30 -16.5 -56.5t-44 -42.5t-58.5 -16q-38 0 -60 22t-22 59q0 8 2 24l32 186l-40 103
q-2 8 -2 13q0 9 4 16q42 83 115.5 131t157.5 48q56 0 98 -22.5t67 -66.5q-8 -13 -19 -33l5 -2q35 58 87.5 91t112.5 33q72 0 110 -36t38 -104q0 -21 -5 -51l-101 -570q-5 -31 -28.5 -50t-57.5 -19l112 638q4 20 4 42q0 43 -21.5 63t-67.5 20q-53 0 -95 -39t-52 -99l-98 -556
q-5 -32 -29 -50.5t-58 -18.5zM209 56.5q17 17.5 17 40.5q0 17 -11 28t-30 11q-23 0 -40 -17.5t-17 -40.5q0 -17 11 -28t29 -11q24 0 41 17.5z" />
    <glyph glyph-name="uni0E260E45" unicode="&#xe26;&#xe45;" horiz-adv-x="922" 
d="M486.5 569.5q45.5 -23.5 69.5 -65.5q-14 -22 -19 -33l4 -2q35 57 88.5 90.5t111.5 33.5q72 0 110 -36.5t38 -104.5q0 -20 -5 -50l-100 -570q-6 -32 -29.5 -50.5t-57.5 -18.5l112 638q4 21 4 42q0 43 -21.5 63t-66.5 20q-53 0 -95 -39t-52 -99l-98 -556q-5 -31 -29 -50
t-58 -19l110 626q2 16 2 23q0 50 -37 82t-97 32q-62 0 -117 -35t-79 -89l60 -94q4 -8 4 -13q0 -2 -2 -14l-32 -185q-8 -47 -41 -76t-77 -29q-37 0 -60.5 22t-23.5 57q0 44 32.5 77.5t76.5 33.5q17 0 31 -6.5t23 -18.5l3 3q-11 16 -24 22l17 99l-64 101q-3 5 -3 11t5 18
q39 81 117.5 132t165.5 51q58 0 103.5 -23.5zM134.5 57q16.5 17 16.5 40q0 17 -11 27.5t-28 10.5q-23 0 -40 -17t-17 -40q0 -17 11 -27.5t29 -10.5q23 0 39.5 17z" />
    <glyph glyph-name=".notdef" horiz-adv-x="737" 
d="M183 750h550l-134 -750h-550zM558 52l116 647h-450l-116 -647h450z" />
    <glyph glyph-name="NULL" 
 />
    <glyph glyph-name="NULL" 
 />
    <glyph glyph-name="nonmarkingreturn" unicode="&#xd;" horiz-adv-x="258" 
 />
    <glyph glyph-name="space" unicode=" " horiz-adv-x="258" 
 />
    <glyph glyph-name="A" unicode="A" horiz-adv-x="673" 
d="M25 13q-12 15 -12 35t12 41l348 595q15 25 43 25q13 0 21.5 -7t11.5 -18l140 -595q2 -12 2 -18q0 -28 -18 -50.5t-47 -29.5l-44 216h-298l-125 -216q-22 7 -34 22zM469 277l-77 345l-7 -2l8 -40l-171 -303h247z" />
    <glyph glyph-name="Aacute" unicode="&#xc1;" horiz-adv-x="673" 
d="M25 13q-12 15 -12 35t12 41l348 595q15 25 43 25q13 0 21.5 -7t11.5 -18l140 -595q2 -12 2 -18q0 -28 -18 -50.5t-47 -29.5l-44 216h-298l-125 -216q-22 7 -34 22zM469 277l-77 345l-7 -2l8 -40l-171 -303h247zM482 898q22 31 77 31h48l-139 -145q-13 -13 -27 -16.5
t-53 -2.5z" />
    <glyph glyph-name="Abreve" unicode="&#x102;" horiz-adv-x="673" 
d="M25 13q-12 15 -12 35t12 41l348 595q15 25 43 25q13 0 21.5 -7t11.5 -18l140 -595q2 -12 2 -18q0 -28 -18 -50.5t-47 -29.5l-44 216h-298l-125 -216q-22 7 -34 22zM469 277l-77 345l-7 -2l8 -40l-171 -303h247zM331.5 794q-41.5 29 -41.5 78q0 36 20 55.5t56 19.5
q-4 -20 -4 -40q0 -79 77 -79q94 0 115 119q29 0 42.5 -12t13.5 -31q0 -35 -26 -67t-68 -52t-88 -20q-55 0 -96.5 29z" />
    <glyph glyph-name="uni1EAE" unicode="&#x1eae;" horiz-adv-x="673" 
d="M25 13q-12 15 -12 35t12 41l348 595q15 25 43 25q13 0 21.5 -7t11.5 -18l140 -595q2 -12 2 -18q0 -28 -18 -50.5t-47 -29.5l-44 216h-298l-125 -216q-22 7 -34 22zM469 277l-77 345l-7 -2l8 -40l-171 -303h247zM486 1018q11 15 27.5 22t42.5 7h34l-100 -111
q-12 -12 -25 -15.5t-45 -2.5zM335.5 789q-39.5 27 -39.5 72q0 34 18 51.5t51 17.5q-3 -18 -3 -34q0 -75 75 -75q47 0 73.5 27t36.5 82q51 0 51 -38q0 -33 -24 -63t-63.5 -48.5t-83.5 -18.5q-52 0 -91.5 27z" />
    <glyph glyph-name="uni1EB6" unicode="&#x1eb6;" horiz-adv-x="673" 
d="M25 13q-12 15 -12 35t12 41l348 595q15 25 43 25q13 0 21.5 -7t11.5 -18l140 -595q2 -12 2 -18q0 -28 -18 -50.5t-47 -29.5l-44 216h-298l-125 -216q-22 7 -34 22zM469 277l-77 345l-7 -2l8 -40l-171 -303h247zM233 -159q-12 11 -12 29q0 24 18 41.5t43 17.5
q18 0 29.5 -11.5t11.5 -28.5q0 -24 -17.5 -41.5t-41.5 -17.5q-19 0 -31 11zM331.5 794q-41.5 29 -41.5 78q0 36 20 55.5t56 19.5q-4 -20 -4 -40q0 -79 77 -79q94 0 115 119q29 0 42.5 -12t13.5 -31q0 -35 -26 -67t-68 -52t-88 -20q-55 0 -96.5 29z" />
    <glyph glyph-name="uni1EB0" unicode="&#x1eb0;" horiz-adv-x="673" 
d="M25 13q-12 15 -12 35t12 41l348 595q15 25 43 25q13 0 21.5 -7t11.5 -18l140 -595q2 -12 2 -18q0 -28 -18 -50.5t-47 -29.5l-44 216h-298l-125 -216q-22 7 -34 22zM469 277l-77 345l-7 -2l8 -40l-171 -303h247zM443 920.5q-11 3.5 -18 15.5l-66 111h35q49 0 59 -29
l34 -100q-33 -1 -44 2.5zM335.5 789q-39.5 27 -39.5 72q0 34 18 51.5t51 17.5q-3 -18 -3 -34q0 -75 75 -75q47 0 73.5 27t36.5 82q51 0 51 -38q0 -33 -24 -63t-63.5 -48.5t-83.5 -18.5q-52 0 -91.5 27z" />
    <glyph glyph-name="uni1EB2" unicode="&#x1eb2;" horiz-adv-x="673" 
d="M25 13q-12 15 -12 35t12 41l348 595q15 25 43 25q13 0 21.5 -7t11.5 -18l140 -595q2 -12 2 -18q0 -28 -18 -50.5t-47 -29.5l-44 216h-298l-125 -216q-22 7 -34 22zM469 277l-77 345l-7 -2l8 -40l-171 -303h247zM425 918q3 16 11.5 26t24.5 23q15 12 21 20t6 19
q0 9 -8 13.5t-21 4.5q-17 0 -28 -10.5t-11 -28.5q0 -5 1 -7q-45 0 -45 27q0 26 28 45t65 19q32 0 53 -13.5t21 -38.5q0 -22 -9 -34.5t-27 -27.5q-13 -11 -19 -17.5t-8 -17.5q-2 -12 -13 -18.5t-27 -6.5q-12 0 -18 2zM334.5 789q-39.5 27 -39.5 72q0 34 18 51.5t51 17.5
q-3 -19 -3 -34q0 -75 75 -75q90 0 110 109q51 0 51 -39q0 -33 -24 -63t-63.5 -48t-83.5 -18q-52 0 -91.5 27z" />
    <glyph glyph-name="uni1EB4" unicode="&#x1eb4;" horiz-adv-x="673" 
d="M25 13q-12 15 -12 35t12 41l348 595q15 25 43 25q13 0 21.5 -7t11.5 -18l140 -595q2 -12 2 -18q0 -28 -18 -50.5t-47 -29.5l-44 216h-298l-125 -216q-22 7 -34 22zM469 277l-77 345l-7 -2l8 -40l-171 -303h247zM338 969q-9 10 -9 26q0 31 25 52.5t60 21.5q22 0 37.5 -8.5
t33.5 -24.5q14 -12 22.5 -17.5t18.5 -5.5q14 0 23 9t9 24q0 9 -3 19q8 4 18 4q14 0 22.5 -11t8.5 -26q0 -30 -24.5 -51.5t-58.5 -21.5q-20 0 -34 8t-34 25q-14 13 -23.5 19t-20.5 6q-15 0 -24.5 -10.5t-9.5 -28.5q0 -4 3 -16q-3 -1 -7 -2t-10 -1q-14 0 -23 10zM335.5 789
q-39.5 27 -39.5 72q0 34 18 51.5t51 17.5q-3 -18 -3 -34q0 -75 75 -75q47 0 73.5 27t36.5 82q51 0 51 -38q0 -33 -24 -63t-63.5 -48.5t-83.5 -18.5q-52 0 -91.5 27z" />
    <glyph glyph-name="uni01CD" unicode="&#x1cd;" horiz-adv-x="673" 
d="M25 13q-12 15 -12 35t12 41l348 595q15 25 43 25q13 0 21.5 -7t11.5 -18l140 -595q2 -12 2 -18q0 -28 -18 -50.5t-47 -29.5l-44 216h-298l-125 -216q-22 7 -34 22zM469 277l-77 345l-7 -2l8 -40l-171 -303h247zM535 926q15 15 40 15q29 0 41 -19l-161 -143
q-13 -11 -27 -11q-15 0 -23 11l-111 143q19 19 49 19q25 0 35 -15l62 -93z" />
    <glyph glyph-name="Acircumflex" unicode="&#xc2;" horiz-adv-x="673" 
d="M25 13q-12 15 -12 35t12 41l348 595q15 25 43 25q13 0 21.5 -7t11.5 -18l140 -595q2 -12 2 -18q0 -28 -18 -50.5t-47 -29.5l-44 216h-298l-125 -216q-22 7 -34 22zM469 277l-77 345l-7 -2l8 -40l-171 -303h247zM313 769q-13 0 -24 5t-17 14l161 143q13 11 27 11
q13 0 22 -11l112 -143q-20 -20 -50 -20q-23 0 -34 15l-62 94l-95 -94q-16 -14 -40 -14z" />
    <glyph glyph-name="uni1EA4" unicode="&#x1ea4;" horiz-adv-x="673" 
d="M25 13q-12 15 -12 35t12 41l348 595q15 25 43 25q13 0 21.5 -7t11.5 -18l140 -595q2 -12 2 -18q0 -28 -18 -50.5t-47 -29.5l-44 216h-298l-125 -216q-22 7 -34 22zM469 277l-77 345l-7 -2l8 -40l-171 -303h247zM604 1019q10 15 26.5 21.5t43.5 6.5h34l-106 -114
q-11 -12 -25 -15.5t-44 -2.5zM350 783q-16 -15 -39 -15q-14 0 -25 5t-17 15l162 143q13 11 26 11q14 0 23 -11l111 -143q-9 -10 -22 -15t-27 -5q-24 0 -34 15l-62 94z" />
    <glyph glyph-name="uni1EAC" unicode="&#x1eac;" horiz-adv-x="673" 
d="M25 13q-12 15 -12 35t12 41l348 595q15 25 43 25q13 0 21.5 -7t11.5 -18l140 -595q2 -12 2 -18q0 -28 -18 -50.5t-47 -29.5l-44 216h-298l-125 -216q-22 7 -34 22zM469 277l-77 345l-7 -2l8 -40l-171 -303h247zM233 -159q-12 11 -12 29q0 24 18 41.5t43 17.5
q18 0 29.5 -11.5t11.5 -28.5q0 -24 -17.5 -41.5t-41.5 -17.5q-19 0 -31 11zM313 769q-13 0 -24 5t-17 14l161 143q13 11 27 11q13 0 22 -11l112 -143q-20 -20 -50 -20q-23 0 -34 15l-62 94l-95 -94q-16 -14 -40 -14z" />
    <glyph glyph-name="uni1EA6" unicode="&#x1ea6;" horiz-adv-x="673" 
d="M25 13q-12 15 -12 35t12 41l348 595q15 25 43 25q13 0 21.5 -7t11.5 -18l140 -595q2 -12 2 -18q0 -28 -18 -50.5t-47 -29.5l-44 216h-298l-125 -216q-22 7 -34 22zM469 277l-77 345l-7 -2l8 -40l-171 -303h247zM573.5 917.5q-11.5 3.5 -18.5 15.5l-69 114h35
q25 0 39.5 -6.5t20.5 -21.5l37 -104q-33 -1 -44.5 2.5zM351 783q-16 -15 -39 -15q-14 0 -25 5t-17 15l162 143q13 11 26 11q14 0 23 -11l111 -143q-10 -10 -23 -15t-26 -5q-25 0 -34 15l-62 94z" />
    <glyph glyph-name="uni1EA8" unicode="&#x1ea8;" horiz-adv-x="673" 
d="M25 13q-12 15 -12 35t12 41l348 595q15 25 43 25q13 0 21.5 -7t11.5 -18l140 -595q2 -12 2 -18q0 -28 -18 -50.5t-47 -29.5l-44 216h-298l-125 -216q-22 7 -34 22zM469 277l-77 345l-7 -2l8 -40l-171 -303h247zM553 911q3 16 11.5 26.5t23.5 22.5q13 10 19.5 18.5
t6.5 19.5q0 8 -7.5 13t-20.5 5q-18 0 -28.5 -10.5t-10.5 -29.5q0 -3 1 -5q-21 0 -33.5 6.5t-12.5 20.5q0 24 28.5 43.5t65.5 19.5q33 0 53.5 -13.5t20.5 -38.5q0 -22 -9 -34.5t-26 -25.5q-14 -11 -20.5 -18t-8.5 -19t-12.5 -18.5t-26.5 -6.5q-6 0 -18 2zM351 783
q-16 -15 -39 -15q-14 0 -25 5t-17 15l162 143q13 11 26 11q14 0 23 -11l111 -143q-10 -10 -23 -15t-26 -5q-25 0 -34 15l-62 94z" />
    <glyph glyph-name="uni1EAA" unicode="&#x1eaa;" horiz-adv-x="673" 
d="M25 13q-12 15 -12 35t12 41l348 595q15 25 43 25q13 0 21.5 -7t11.5 -18l140 -595q2 -12 2 -18q0 -28 -18 -50.5t-47 -29.5l-44 216h-298l-125 -216q-22 7 -34 22zM469 277l-77 345l-7 -2l8 -40l-171 -303h247zM347 968q-9 10 -9 26q0 31 25 53t60 22q22 0 37.5 -8.5
t33.5 -24.5q13 -11 22 -16.5t19 -5.5q16 0 24.5 8.5t8.5 23.5q0 7 -4 19q12 4 18 4q14 0 23 -10.5t9 -25.5q0 -31 -24 -51.5t-59 -20.5q-20 0 -34.5 8t-33.5 24q-14 12 -23.5 18t-20.5 6q-16 0 -25 -11t-9 -29q0 -11 2 -16q-15 -3 -17 -3q-14 0 -23 10zM312 768q-14 0 -25 5
t-17 15l162 143q13 11 26 11q14 0 23 -11l111 -143q-10 -10 -23 -15t-26 -5q-25 0 -34 15l-62 94l-96 -94q-16 -15 -39 -15z" />
    <glyph glyph-name="Adieresis" unicode="&#xc4;" horiz-adv-x="673" 
d="M25 13q-12 15 -12 35t12 41l348 595q15 25 43 25q13 0 21.5 -7t11.5 -18l140 -595q2 -12 2 -18q0 -28 -18 -50.5t-47 -29.5l-44 216h-298l-125 -216q-22 7 -34 22zM469 277l-77 345l-7 -2l8 -40l-171 -303h247zM306.5 791q-11.5 11 -11.5 28q0 25 17.5 42.5t42.5 17.5
q19 0 30 -11t11 -29q0 -24 -17 -41.5t-42 -17.5q-19 0 -30.5 11zM493.5 791q-11.5 11 -11.5 28q0 25 17.5 42.5t42.5 17.5q19 0 30.5 -11t11.5 -29q0 -24 -17.5 -41.5t-42.5 -17.5q-19 0 -30.5 11z" />
    <glyph glyph-name="uni1EA0" unicode="&#x1ea0;" horiz-adv-x="673" 
d="M25 13q-12 15 -12 35t12 41l348 595q15 25 43 25q13 0 21.5 -7t11.5 -18l140 -595q2 -12 2 -18q0 -28 -18 -50.5t-47 -29.5l-44 216h-298l-125 -216q-22 7 -34 22zM469 277l-77 345l-7 -2l8 -40l-171 -303h247zM233 -159q-12 11 -12 29q0 24 18 41.5t43 17.5
q18 0 29.5 -11.5t11.5 -28.5q0 -24 -17.5 -41.5t-41.5 -17.5q-19 0 -31 11z" />
    <glyph glyph-name="Agrave" unicode="&#xc0;" horiz-adv-x="673" 
d="M25 13q-12 15 -12 35t12 41l348 595q15 25 43 25q13 0 21.5 -7t11.5 -18l140 -595q2 -12 2 -18q0 -28 -18 -50.5t-47 -29.5l-44 216h-298l-125 -216q-22 7 -34 22zM469 277l-77 345l-7 -2l8 -40l-171 -303h247zM421 767.5q-13 3.5 -21 16.5l-92 145h48q27 0 43 -7t22 -23
l51 -134q-38 -1 -51 2.5z" />
    <glyph glyph-name="uni1EA2" unicode="&#x1ea2;" horiz-adv-x="673" 
d="M25 13q-12 15 -12 35t12 41l348 595q15 25 43 25q13 0 21.5 -7t11.5 -18l140 -595q2 -12 2 -18q0 -28 -18 -50.5t-47 -29.5l-44 216h-298l-125 -216q-22 7 -34 22zM469 277l-77 345l-7 -2l8 -40l-171 -303h247zM408 794q3 18 13 29.5t28 26.5q16 12 24 22t8 25
q0 21 -30 21q-20 0 -31.5 -13t-11.5 -36v-6q-24 0 -38 8t-14 23q0 29 32 52t74 23q37 0 60 -15.5t23 -44.5q0 -26 -10.5 -40.5t-30.5 -28.5q-16 -12 -24 -21t-11 -23t-14.5 -21.5t-28.5 -7.5q-11 0 -23 3z" />
    <glyph glyph-name="Amacron" unicode="&#x100;" horiz-adv-x="673" 
d="M25 13q-12 15 -12 35t12 41l348 595q15 25 43 25q13 0 21.5 -7t11.5 -18l140 -595q2 -12 2 -18q0 -28 -18 -50.5t-47 -29.5l-44 216h-298l-125 -216q-22 7 -34 22zM469 277l-77 345l-7 -2l8 -40l-171 -303h247zM300.5 836q18.5 16 49.5 16h249q-5 -30 -24 -46t-49 -16
h-249q5 30 23.5 46z" />
    <glyph glyph-name="Aogonek" unicode="&#x104;" horiz-adv-x="673" 
d="M488.5 -59q-22.5 -32 -22.5 -62q0 -15 9 -23.5t25 -8.5q25 0 42 18q2 -8 1 -14q-1 -20 -23.5 -35.5t-53.5 -15.5q-33 0 -52 17.5t-19 46.5q0 38 37 78.5t91 62.5l-41 202h-298l-125 -216q-22 7 -34 22t-12 35t12 41l348 595q15 25 43 25q13 0 21.5 -7t11.5 -18l140 -595
q2 -12 2 -18q0 -23 -11 -41.5t-30 -28.5q-39 -28 -61.5 -60zM469 277l-77 345l-7 -2l8 -40l-171 -303h247z" />
    <glyph glyph-name="Aring" unicode="&#xc5;" horiz-adv-x="673" 
d="M25 13q-12 15 -12 35t12 41l348 595q15 25 43 25q13 0 21.5 -7t11.5 -18l140 -595q2 -12 2 -18q0 -28 -18 -50.5t-47 -29.5l-44 216h-298l-125 -216q-22 7 -34 22zM469 277l-77 345l-7 -2l8 -40l-171 -303h247zM358.5 767.5q-24.5 21.5 -24.5 57.5q0 49 36.5 82.5
t88.5 33.5q40 0 64 -21.5t24 -57.5q0 -49 -36 -82.5t-87 -33.5q-41 0 -65.5 21.5zM477 810.5q18 18.5 18 43.5q0 19 -12.5 30.5t-31.5 11.5q-26 0 -44 -18.5t-18 -45.5q0 -19 12 -29.5t32 -10.5q26 0 44 18.5z" />
    <glyph glyph-name="Aringacute" unicode="&#x1fa;" horiz-adv-x="673" 
d="M506 1068q17 25 61 25h39l-112 -117q-10 -10 -21 -12.5t-42 -1.5zM358.5 767.5q-24.5 21.5 -24.5 57.5q0 49 36 82.5t89 33.5q40 0 64 -21.5t24 -57.5q0 -49 -36 -82.5t-87 -33.5q-41 0 -65.5 21.5zM476 810q18 18 18 44q0 19 -12 30.5t-31 11.5q-26 0 -44 -18.5
t-18 -45.5q0 -19 11.5 -29.5t31.5 -10.5q26 0 44 18zM25 13q-12 15 -12 35t12 41l348 595q15 25 43 25q13 0 21.5 -7t11.5 -18l140 -595q2 -12 2 -18q0 -28 -18 -50.5t-47 -29.5l-44 216h-298l-125 -216q-22 7 -34 22zM469 277l-77 345l-7 -2l8 -40l-171 -303h247z" />
    <glyph glyph-name="Atilde" unicode="&#xc3;" horiz-adv-x="673" 
d="M25 13q-12 15 -12 35t12 41l348 595q15 25 43 25q13 0 21.5 -7t11.5 -18l140 -595q2 -12 2 -18q0 -28 -18 -50.5t-47 -29.5l-44 216h-298l-125 -216q-22 7 -34 22zM469 277l-77 345l-7 -2l8 -40l-171 -303h247zM295.5 780q-9.5 11 -9.5 28q0 34 27.5 58t66.5 24
q24 0 41 -9.5t37 -27.5q15 -13 24.5 -19t20.5 -6q16 0 26 10t10 29q0 9 -3 19q8 4 20 4q15 0 24 -11.5t9 -28.5q0 -34 -26.5 -57.5t-64.5 -23.5q-22 0 -38.5 9.5t-36.5 27.5q-16 14 -26 20.5t-22 6.5q-18 0 -28.5 -10.5t-10.5 -29.5q0 -12 4 -20q-9 -4 -20 -4
q-15 0 -24.5 11z" />
    <glyph glyph-name="AE" unicode="&#xc6;" horiz-adv-x="898" 
d="M410 674q16 26 46 26h452q-6 -35 -24.5 -52.5t-50.5 -17.5h-297l-43 -242h242q-6 -35 -24.5 -52.5t-50.5 -17.5h-179l-44 -248h318q52 0 52 -49q0 -5 -2 -21h-418q-19 0 -28 11.5t-6 26.5l30 169h-189l-138 -216q-21 6 -32 20t-11 33q0 21 15 45zM396 278l61 348
l-225 -348h164z" />
    <glyph glyph-name="AEacute" unicode="&#x1fc;" horiz-adv-x="898" 
d="M410 674q16 26 46 26h452q-6 -35 -24.5 -52.5t-50.5 -17.5h-297l-43 -242h242q-6 -35 -24.5 -52.5t-50.5 -17.5h-179l-44 -248h318q52 0 52 -49q0 -5 -2 -21h-418q-19 0 -28 11.5t-6 26.5l30 169h-189l-138 -216q-21 6 -32 20t-11 33q0 21 15 45zM396 278l61 348
l-225 -348h164zM641 898q22 31 77 31h48l-139 -145q-13 -13 -27 -16.5t-53 -2.5z" />
    <glyph glyph-name="B" unicode="B" horiz-adv-x="655" 
d="M43 11q-10 11 -8 27l110 624q3 16 17 27t31 11h281q72 0 112.5 -39t40.5 -107q0 -64 -35 -119.5t-88 -78.5l-1 -2q96 -29 96 -124q0 -62 -30 -115t-81 -84t-111 -31h-308q-16 0 -26 11zM416 385q34 0 65 22t49.5 58t18.5 77q0 43 -23 66t-66 23h-241l-44 -246h241z
M381 69q61 0 101 44t40 112q0 44 -25.5 67.5t-72.5 23.5h-261l-43 -247h261z" />
    <glyph glyph-name="C" unicode="C" horiz-adv-x="681" 
d="M171.5 16q-55.5 25 -85.5 69.5t-30 103.5q0 23 4 43l42 238q12 70 57 124t114.5 84.5t152.5 30.5q72 0 128 -23t87.5 -63.5t31.5 -92.5q0 -37 -26 -61t-66 -25q10 32 10 63q0 58 -49.5 94.5t-127.5 36.5q-59 0 -109 -21.5t-82.5 -59.5t-41.5 -87l-41 -238q-3 -15 -3 -30
q0 -63 47.5 -101.5t128.5 -38.5q94 0 158 41t78 119q1 10 2.5 19t1.5 16q31 -1 50 -14.5t19 -35.5q0 -58 -41 -107.5t-114.5 -79t-165.5 -29.5q-74 0 -129.5 25z" />
    <glyph glyph-name="Cacute" unicode="&#x106;" horiz-adv-x="681" 
d="M171.5 16q-55.5 25 -85.5 69.5t-30 103.5q0 23 4 43l42 238q12 70 57 124t114.5 84.5t152.5 30.5q72 0 128 -23t87.5 -63.5t31.5 -92.5q0 -37 -26 -61t-66 -25q10 32 10 63q0 58 -49.5 94.5t-127.5 36.5q-59 0 -109 -21.5t-82.5 -59.5t-41.5 -87l-41 -238q-3 -15 -3 -30
q0 -63 47.5 -101.5t128.5 -38.5q94 0 158 41t78 119q1 10 2.5 19t1.5 16q31 -1 50 -14.5t19 -35.5q0 -58 -41 -107.5t-114.5 -79t-165.5 -29.5q-74 0 -129.5 25zM486 898q22 31 77 31h48l-139 -145q-13 -13 -27 -16.5t-53 -2.5z" />
    <glyph glyph-name="Ccaron" unicode="&#x10c;" horiz-adv-x="681" 
d="M171.5 16q-55.5 25 -85.5 69.5t-30 103.5q0 23 4 43l42 238q12 70 57 124t114.5 84.5t152.5 30.5q72 0 128 -23t87.5 -63.5t31.5 -92.5q0 -37 -26 -61t-66 -25q10 32 10 63q0 58 -49.5 94.5t-127.5 36.5q-59 0 -109 -21.5t-82.5 -59.5t-41.5 -87l-41 -238q-3 -15 -3 -30
q0 -63 47.5 -101.5t128.5 -38.5q94 0 158 41t78 119q1 10 2.5 19t1.5 16q31 -1 50 -14.5t19 -35.5q0 -58 -41 -107.5t-114.5 -79t-165.5 -29.5q-74 0 -129.5 25zM540 926q15 15 40 15q29 0 41 -19l-161 -143q-13 -11 -27 -11q-15 0 -23 11l-111 143q19 19 49 19q25 0 35 -15
l62 -93z" />
    <glyph glyph-name="Ccedilla" unicode="&#xc7;" horiz-adv-x="681" 
d="M647 469q-26 -24 -66 -25q10 32 10 63q0 58 -49.5 94.5t-127.5 36.5q-59 0 -109 -21.5t-82.5 -59.5t-41.5 -87l-41 -238q-3 -15 -3 -30q0 -63 47.5 -101.5t128.5 -38.5q94 0 158 41t78 119q1 10 2.5 19t1.5 16q31 -1 50 -14.5t19 -35.5q0 -55 -37 -102.5t-104 -78
t-151 -34.5l-32 -37q38 0 58 -18.5t20 -47.5q0 -44 -34.5 -74t-86.5 -30q-37 0 -60.5 15t-23.5 37q0 20 15 32q22 -35 68 -35q26 0 41.5 13t15.5 35q0 15 -11 23t-29 8t-36 -6q-8 -3 -15 2.5t-7 13.5q0 9 7 16l45 54q-97 9 -153 61.5t-56 134.5q0 23 4 43l42 238
q12 70 57 124t114.5 84.5t152.5 30.5q72 0 128 -23t87.5 -63.5t31.5 -92.5q0 -37 -26 -61z" />
    <glyph glyph-name="Ccircumflex" unicode="&#x108;" horiz-adv-x="681" 
d="M171.5 16q-55.5 25 -85.5 69.5t-30 103.5q0 23 4 43l42 238q12 70 57 124t114.5 84.5t152.5 30.5q72 0 128 -23t87.5 -63.5t31.5 -92.5q0 -37 -26 -61t-66 -25q10 32 10 63q0 58 -49.5 94.5t-127.5 36.5q-59 0 -109 -21.5t-82.5 -59.5t-41.5 -87l-41 -238q-3 -15 -3 -30
q0 -63 47.5 -101.5t128.5 -38.5q94 0 158 41t78 119q1 10 2.5 19t1.5 16q31 -1 50 -14.5t19 -35.5q0 -58 -41 -107.5t-114.5 -79t-165.5 -29.5q-74 0 -129.5 25zM318 769q-13 0 -24 5t-17 14l161 143q13 11 27 11q13 0 22 -11l112 -143q-20 -20 -50 -20q-23 0 -34 15l-62 94
l-95 -94q-16 -14 -40 -14z" />
    <glyph glyph-name="Cdotaccent" unicode="&#x10a;" horiz-adv-x="681" 
d="M171.5 16q-55.5 25 -85.5 69.5t-30 103.5q0 23 4 43l42 238q12 70 57 124t114.5 84.5t152.5 30.5q72 0 128 -23t87.5 -63.5t31.5 -92.5q0 -37 -26 -61t-66 -25q10 32 10 63q0 58 -49.5 94.5t-127.5 36.5q-59 0 -109 -21.5t-82.5 -59.5t-41.5 -87l-41 -238q-3 -15 -3 -30
q0 -63 47.5 -101.5t128.5 -38.5q94 0 158 41t78 119q1 10 2.5 19t1.5 16q31 -1 50 -14.5t19 -35.5q0 -58 -41 -107.5t-114.5 -79t-165.5 -29.5q-74 0 -129.5 25zM405 791q-12 11 -12 29q0 25 18 42t43 17q19 0 30 -11t11 -29q0 -24 -17.5 -41.5t-41.5 -17.5q-19 0 -31 11z
" />
    <glyph glyph-name="D" unicode="D" horiz-adv-x="699" 
d="M42 11q-10 11 -7 27l110 624q3 17 16.5 27.5t31.5 10.5h239q72 0 127 -26t85.5 -72t30.5 -106q0 -23 -4 -43l-36 -204q-21 -118 -107 -183.5t-220 -65.5h-239q-17 0 -27 11zM311 70q103 0 166 46t78 132l36 206q4 28 4 39q0 67 -47 102t-139 35h-190l-98 -560h190z" />
    <glyph glyph-name="Eth" unicode="&#xd0;" horiz-adv-x="754" 
d="M619 674q55 -26 85.5 -72t30.5 -106q0 -23 -4 -43l-36 -204q-21 -118 -107 -183.5t-220 -65.5h-239q-17 0 -27 11t-7 27l47 267h-85q12 63 63 63h33l52 294q3 17 16.5 27.5t31.5 10.5h239q72 0 127 -26zM655 493q0 67 -47 102t-139 35h-190l-46 -262h193
q-5 -31 -21.5 -47t-41.5 -16h-141l-41 -235h190q103 0 166 46t78 132l36 206q4 28 4 39z" />
    <glyph glyph-name="Dcaron" unicode="&#x10e;" horiz-adv-x="699" 
d="M42 11q-10 11 -7 27l110 624q3 17 16.5 27.5t31.5 10.5h239q72 0 127 -26t85.5 -72t30.5 -106q0 -23 -4 -43l-36 -204q-21 -118 -107 -183.5t-220 -65.5h-239q-17 0 -27 11zM311 70q103 0 166 46t78 132l36 206q4 28 4 39q0 67 -47 102t-139 35h-190l-98 -560h190z
M525 926q15 15 40 15q29 0 41 -19l-161 -143q-13 -11 -27 -11q-15 0 -23 11l-111 143q19 19 49 19q25 0 35 -15l62 -93z" />
    <glyph glyph-name="Dcroat" unicode="&#x110;" horiz-adv-x="764" 
d="M622 674q55 -26 85.5 -72t30.5 -106q0 -23 -4 -43l-36 -204q-21 -118 -107 -183.5t-220 -65.5h-239q-17 0 -27 11t-7 27l47 267h-87q12 63 63 63h35l52 294q3 17 16.5 27.5t31.5 10.5h239q72 0 127 -26zM658 493q0 67 -47 102t-139 35h-190l-46 -262h190
q-5 -31 -21.5 -47t-41.5 -16h-138l-41 -235h190q103 0 166 46t78 132l36 206q4 28 4 39z" />
    <glyph glyph-name="uni1E0C" unicode="&#x1e0c;" horiz-adv-x="699" 
d="M42 11q-10 11 -7 27l110 624q3 17 16.5 27.5t31.5 10.5h239q72 0 127 -26t85.5 -72t30.5 -106q0 -23 -4 -43l-36 -204q-21 -118 -107 -183.5t-220 -65.5h-239q-17 0 -27 11zM311 70q103 0 166 46t78 132l36 206q4 28 4 39q0 67 -47 102t-139 35h-190l-98 -560h190z
M222 -159q-12 11 -12 29q0 24 18 41.5t43 17.5q18 0 29.5 -11.5t11.5 -28.5q0 -24 -17.5 -41.5t-41.5 -17.5q-19 0 -31 11z" />
    <glyph glyph-name="uni1E0E" unicode="&#x1e0e;" horiz-adv-x="699" 
d="M42 11q-10 11 -7 27l110 624q3 17 16.5 27.5t31.5 10.5h239q72 0 127 -26t85.5 -72t30.5 -106q0 -23 -4 -43l-36 -204q-21 -118 -107 -183.5t-220 -65.5h-239q-17 0 -27 11zM311 70q103 0 166 46t78 132l36 206q4 28 4 39q0 67 -47 102t-139 35h-190l-98 -560h190z
M178 -59h249q-5 -29 -24 -45.5t-49 -16.5h-249q11 62 73 62z" />
    <glyph glyph-name="E" unicode="E" horiz-adv-x="624" 
d="M145 662q3 16 17 27t31 11h442q-7 -36 -25.5 -53t-50.5 -17h-340l-42 -242h285q-13 -70 -76 -70h-222l-43 -248h361q51 0 51 -48q0 -14 -2 -22h-462q-17 0 -26.5 10.5t-7.5 27.5z" />
    <glyph glyph-name="Eacute" unicode="&#xc9;" horiz-adv-x="624" 
d="M145 662q3 16 17 27t31 11h442q-7 -36 -25.5 -53t-50.5 -17h-340l-42 -242h285q-13 -70 -76 -70h-222l-43 -248h361q51 0 51 -48q0 -14 -2 -22h-462q-17 0 -26.5 10.5t-7.5 27.5zM456 898q22 31 77 31h48l-139 -145q-13 -13 -27 -16.5t-53 -2.5z" />
    <glyph glyph-name="Ebreve" unicode="&#x114;" horiz-adv-x="624" 
d="M145 662q3 16 17 27t31 11h442q-7 -36 -25.5 -53t-50.5 -17h-340l-42 -242h285q-13 -70 -76 -70h-222l-43 -248h361q51 0 51 -48q0 -14 -2 -22h-462q-17 0 -26.5 10.5t-7.5 27.5zM305.5 794q-41.5 29 -41.5 78q0 36 20 55.5t56 19.5q-4 -20 -4 -40q0 -79 77 -79
q94 0 115 119q29 0 42.5 -12t13.5 -31q0 -35 -26 -67t-68 -52t-88 -20q-55 0 -96.5 29z" />
    <glyph glyph-name="Ecaron" unicode="&#x11a;" horiz-adv-x="624" 
d="M145 662q3 16 17 27t31 11h442q-7 -36 -25.5 -53t-50.5 -17h-340l-42 -242h285q-13 -70 -76 -70h-222l-43 -248h361q51 0 51 -48q0 -14 -2 -22h-462q-17 0 -26.5 10.5t-7.5 27.5zM509 926q15 15 40 15q29 0 41 -19l-161 -143q-13 -11 -27 -11q-15 0 -23 11l-111 143
q19 19 49 19q25 0 35 -15l62 -93z" />
    <glyph glyph-name="Ecircumflex" unicode="&#xca;" horiz-adv-x="624" 
d="M145 662q3 16 17 27t31 11h442q-7 -36 -25.5 -53t-50.5 -17h-340l-42 -242h285q-13 -70 -76 -70h-222l-43 -248h361q51 0 51 -48q0 -14 -2 -22h-462q-17 0 -26.5 10.5t-7.5 27.5zM287 769q-13 0 -24 5t-17 14l161 143q13 11 27 11q13 0 22 -11l112 -143q-20 -20 -50 -20
q-23 0 -34 15l-62 94l-95 -94q-16 -14 -40 -14z" />
    <glyph glyph-name="uni1EBE" unicode="&#x1ebe;" horiz-adv-x="624" 
d="M145 662q3 16 17 27t31 11h442q-7 -36 -25.5 -53t-50.5 -17h-340l-42 -242h285q-13 -70 -76 -70h-222l-43 -248h361q51 0 51 -48q0 -14 -2 -22h-462q-17 0 -26.5 10.5t-7.5 27.5zM578 1019q10 15 26.5 21.5t43.5 6.5h34l-106 -114q-11 -12 -25 -15.5t-44 -2.5zM324 783
q-16 -15 -39 -15q-14 0 -25 5t-17 15l162 143q13 11 26 11q14 0 23 -11l111 -143q-9 -10 -22 -15t-27 -5q-24 0 -34 15l-62 94z" />
    <glyph glyph-name="uni1EC6" unicode="&#x1ec6;" horiz-adv-x="624" 
d="M145 662q3 16 17 27t31 11h442q-7 -36 -25.5 -53t-50.5 -17h-340l-42 -242h285q-13 -70 -76 -70h-222l-43 -248h361q51 0 51 -48q0 -14 -2 -22h-462q-17 0 -26.5 10.5t-7.5 27.5zM206 -159q-12 11 -12 29q0 24 18 41.5t43 17.5q18 0 29.5 -11.5t11.5 -28.5
q0 -24 -17.5 -41.5t-41.5 -17.5q-19 0 -31 11zM287 769q-13 0 -24 5t-17 14l161 143q13 11 27 11q13 0 22 -11l112 -143q-20 -20 -50 -20q-23 0 -34 15l-62 94l-95 -94q-16 -14 -40 -14z" />
    <glyph glyph-name="uni1EC0" unicode="&#x1ec0;" horiz-adv-x="624" 
d="M145 662q3 16 17 27t31 11h442q-7 -36 -25.5 -53t-50.5 -17h-340l-42 -242h285q-13 -70 -76 -70h-222l-43 -248h361q51 0 51 -48q0 -14 -2 -22h-462q-17 0 -26.5 10.5t-7.5 27.5zM547.5 917.5q-11.5 3.5 -18.5 15.5l-69 114h35q25 0 39.5 -6.5t20.5 -21.5l37 -104
q-33 -1 -44.5 2.5zM325 783q-16 -15 -39 -15q-14 0 -25 5t-17 15l162 143q13 11 26 11q14 0 23 -11l111 -143q-10 -10 -23 -15t-26 -5q-25 0 -34 15l-62 94z" />
    <glyph glyph-name="uni1EC2" unicode="&#x1ec2;" horiz-adv-x="624" 
d="M145 662q3 16 17 27t31 11h442q-7 -36 -25.5 -53t-50.5 -17h-340l-42 -242h285q-13 -70 -76 -70h-222l-43 -248h361q51 0 51 -48q0 -14 -2 -22h-462q-17 0 -26.5 10.5t-7.5 27.5zM527 911q3 16 11.5 26.5t23.5 22.5q13 10 19.5 18.5t6.5 19.5q0 8 -7.5 13t-20.5 5
q-18 0 -28.5 -10.5t-10.5 -29.5q0 -3 1 -5q-21 0 -33.5 6.5t-12.5 20.5q0 24 28.5 43.5t65.5 19.5q33 0 53.5 -13.5t20.5 -38.5q0 -22 -9 -34.5t-26 -25.5q-14 -11 -20.5 -18t-8.5 -19t-12.5 -18.5t-26.5 -6.5q-6 0 -18 2zM325 783q-16 -15 -39 -15q-14 0 -25 5t-17 15
l162 143q13 11 26 11q14 0 23 -11l111 -143q-10 -10 -23 -15t-26 -5q-25 0 -34 15l-62 94z" />
    <glyph glyph-name="uni1EC4" unicode="&#x1ec4;" horiz-adv-x="624" 
d="M145 662q3 16 17 27t31 11h442q-7 -36 -25.5 -53t-50.5 -17h-340l-42 -242h285q-13 -70 -76 -70h-222l-43 -248h361q51 0 51 -48q0 -14 -2 -22h-462q-17 0 -26.5 10.5t-7.5 27.5zM321 968q-9 10 -9 26q0 31 25 53t60 22q22 0 37.5 -8.5t33.5 -24.5q13 -11 22 -16.5
t19 -5.5q16 0 24.5 8.5t8.5 23.5q0 7 -4 19q12 4 18 4q14 0 23 -10.5t9 -25.5q0 -31 -24 -51.5t-59 -20.5q-20 0 -34.5 8t-33.5 24q-14 12 -23.5 18t-20.5 6q-16 0 -25 -11t-9 -29q0 -11 2 -16q-15 -3 -17 -3q-14 0 -23 10zM286 768q-14 0 -25 5t-17 15l162 143q13 11 26 11
q14 0 23 -11l111 -143q-10 -10 -23 -15t-26 -5q-25 0 -34 15l-62 94l-96 -94q-16 -15 -39 -15z" />
    <glyph glyph-name="Edieresis" unicode="&#xcb;" horiz-adv-x="624" 
d="M145 662q3 16 17 27t31 11h442q-7 -36 -25.5 -53t-50.5 -17h-340l-42 -242h285q-13 -70 -76 -70h-222l-43 -248h361q51 0 51 -48q0 -14 -2 -22h-462q-17 0 -26.5 10.5t-7.5 27.5zM280.5 791q-11.5 11 -11.5 28q0 25 17.5 42.5t42.5 17.5q19 0 30 -11t11 -29
q0 -24 -17 -41.5t-42 -17.5q-19 0 -30.5 11zM467.5 791q-11.5 11 -11.5 28q0 25 17.5 42.5t42.5 17.5q19 0 30.5 -11t11.5 -29q0 -24 -17.5 -41.5t-42.5 -17.5q-19 0 -30.5 11z" />
    <glyph glyph-name="Edotaccent" unicode="&#x116;" horiz-adv-x="624" 
d="M145 662q3 16 17 27t31 11h442q-7 -36 -25.5 -53t-50.5 -17h-340l-42 -242h285q-13 -70 -76 -70h-222l-43 -248h361q51 0 51 -48q0 -14 -2 -22h-462q-17 0 -26.5 10.5t-7.5 27.5zM374 791q-12 11 -12 29q0 25 18 42t43 17q19 0 30 -11t11 -29q0 -24 -17.5 -41.5
t-41.5 -17.5q-19 0 -31 11z" />
    <glyph glyph-name="uni1EB8" unicode="&#x1eb8;" horiz-adv-x="624" 
d="M145 662q3 16 17 27t31 11h442q-7 -36 -25.5 -53t-50.5 -17h-340l-42 -242h285q-13 -70 -76 -70h-222l-43 -248h361q51 0 51 -48q0 -14 -2 -22h-462q-17 0 -26.5 10.5t-7.5 27.5zM206 -159q-12 11 -12 29q0 24 18 41.5t43 17.5q18 0 29.5 -11.5t11.5 -28.5
q0 -24 -17.5 -41.5t-41.5 -17.5q-19 0 -31 11z" />
    <glyph glyph-name="Egrave" unicode="&#xc8;" horiz-adv-x="624" 
d="M145 662q3 16 17 27t31 11h442q-7 -36 -25.5 -53t-50.5 -17h-340l-42 -242h285q-13 -70 -76 -70h-222l-43 -248h361q51 0 51 -48q0 -14 -2 -22h-462q-17 0 -26.5 10.5t-7.5 27.5zM395 767.5q-13 3.5 -21 16.5l-92 145h48q27 0 43 -7t22 -23l51 -134q-38 -1 -51 2.5z" />
    <glyph glyph-name="uni1EBA" unicode="&#x1eba;" horiz-adv-x="624" 
d="M145 662q3 16 17 27t31 11h442q-7 -36 -25.5 -53t-50.5 -17h-340l-42 -242h285q-13 -70 -76 -70h-222l-43 -248h361q51 0 51 -48q0 -14 -2 -22h-462q-17 0 -26.5 10.5t-7.5 27.5zM383 794q3 18 13 29.5t28 26.5q16 12 24 22t8 25q0 21 -30 21q-20 0 -31.5 -13t-11.5 -36
v-6q-24 0 -38 8t-14 23q0 29 32 52t74 23q37 0 60 -15.5t23 -44.5q0 -26 -10.5 -40.5t-30.5 -28.5q-16 -12 -24 -21t-11 -23t-14.5 -21.5t-28.5 -7.5q-11 0 -23 3z" />
    <glyph glyph-name="Emacron" unicode="&#x112;" horiz-adv-x="624" 
d="M145 662q3 16 17 27t31 11h442q-7 -36 -25.5 -53t-50.5 -17h-340l-42 -242h285q-13 -70 -76 -70h-222l-43 -248h361q51 0 51 -48q0 -14 -2 -22h-462q-17 0 -26.5 10.5t-7.5 27.5zM274.5 836q18.5 16 49.5 16h249q-5 -30 -24 -46t-49 -16h-249q5 30 23.5 46z" />
    <glyph glyph-name="Eogonek" unicode="&#x118;" horiz-adv-x="624" 
d="M635 700q-7 -36 -25.5 -53t-50.5 -17h-340l-42 -242h285q-13 -70 -76 -70h-222l-43 -248h361q51 0 51 -48q0 -14 -2 -22h-20q-39 -27 -63 -60t-24 -63q0 -15 8.5 -24t25.5 -9q24 0 42 19l1 -14q-2 -20 -24.5 -35.5t-52.5 -15.5q-33 0 -52.5 17.5t-19.5 46.5
q0 37 35.5 76.5t88.5 61.5h-407q-17 0 -26.5 10.5t-7.5 27.5l110 624q3 16 17 27t31 11h442z" />
    <glyph glyph-name="uni1EBC" unicode="&#x1ebc;" horiz-adv-x="624" 
d="M145 662q3 16 17 27t31 11h442q-7 -36 -25.5 -53t-50.5 -17h-340l-42 -242h285q-13 -70 -76 -70h-222l-43 -248h361q51 0 51 -48q0 -14 -2 -22h-462q-17 0 -26.5 10.5t-7.5 27.5zM269.5 780q-9.5 11 -9.5 28q0 34 27.5 58t66.5 24q24 0 41 -9.5t37 -27.5q15 -13 24.5 -19
t20.5 -6q16 0 26 10t10 29q0 9 -3 19q8 4 20 4q15 0 24 -11.5t9 -28.5q0 -34 -26.5 -57.5t-64.5 -23.5q-22 0 -38.5 9.5t-36.5 27.5q-16 14 -26 20.5t-22 6.5q-18 0 -28.5 -10.5t-10.5 -29.5q0 -12 4 -20q-9 -4 -20 -4q-15 0 -24.5 11z" />
    <glyph glyph-name="F" unicode="F" horiz-adv-x="596" 
d="M146 662q2 16 16 27t31 11h444q-12 -70 -75 -70h-342l-42 -237h285q-12 -70 -76 -70h-222l-46 -263q-12 -69 -92 -69z" />
    <glyph glyph-name="G" unicode="G" horiz-adv-x="691" 
d="M121.5 43.5q-65.5 52.5 -65.5 142.5q0 25 4 46l42 238q12 72 56.5 126t113.5 83.5t154 29.5q114 0 181 -48.5t67 -130.5q0 -39 -25 -62t-67 -23q11 42 11 63q0 59 -48.5 95t-130.5 36q-93 0 -156.5 -46t-76.5 -123l-41 -238q-3 -16 -3 -33q0 -64 47.5 -101t130.5 -37
q93 0 155.5 44t76.5 118l12 65h-141q-24 0 -37.5 14t-13.5 38q0 10 1 16h244q16 0 24.5 -8t8.5 -22q0 -5 -1 -8l-17 -95q-12 -70 -56 -122.5t-113 -81t-155 -28.5q-116 0 -181.5 52.5z" />
    <glyph glyph-name="Gbreve" unicode="&#x11e;" horiz-adv-x="691" 
d="M121.5 43.5q-65.5 52.5 -65.5 142.5q0 25 4 46l42 238q12 72 56.5 126t113.5 83.5t154 29.5q114 0 181 -48.5t67 -130.5q0 -39 -25 -62t-67 -23q11 42 11 63q0 59 -48.5 95t-130.5 36q-93 0 -156.5 -46t-76.5 -123l-41 -238q-3 -16 -3 -33q0 -64 47.5 -101t130.5 -37
q93 0 155.5 44t76.5 118l12 65h-141q-24 0 -37.5 14t-13.5 38q0 10 1 16h244q16 0 24.5 -8t8.5 -22q0 -5 -1 -8l-17 -95q-12 -70 -56 -122.5t-113 -81t-155 -28.5q-116 0 -181.5 52.5zM334.5 794q-41.5 29 -41.5 78q0 36 20 55.5t56 19.5q-4 -20 -4 -40q0 -79 77 -79
q94 0 115 119q29 0 42.5 -12t13.5 -31q0 -35 -26 -67t-68 -52t-88 -20q-55 0 -96.5 29z" />
    <glyph glyph-name="Gcaron" unicode="&#x1e6;" horiz-adv-x="691" 
d="M121.5 43.5q-65.5 52.5 -65.5 142.5q0 25 4 46l42 238q12 72 56.5 126t113.5 83.5t154 29.5q114 0 181 -48.5t67 -130.5q0 -39 -25 -62t-67 -23q11 42 11 63q0 59 -48.5 95t-130.5 36q-93 0 -156.5 -46t-76.5 -123l-41 -238q-3 -16 -3 -33q0 -64 47.5 -101t130.5 -37
q93 0 155.5 44t76.5 118l12 65h-141q-24 0 -37.5 14t-13.5 38q0 10 1 16h244q16 0 24.5 -8t8.5 -22q0 -5 -1 -8l-17 -95q-12 -70 -56 -122.5t-113 -81t-155 -28.5q-116 0 -181.5 52.5zM538 926q15 15 40 15q29 0 41 -19l-161 -143q-13 -11 -27 -11q-15 0 -23 11l-111 143
q19 19 49 19q25 0 35 -15l62 -93z" />
    <glyph glyph-name="Gcircumflex" unicode="&#x11c;" horiz-adv-x="691" 
d="M121.5 43.5q-65.5 52.5 -65.5 142.5q0 25 4 46l42 238q12 72 56.5 126t113.5 83.5t154 29.5q114 0 181 -48.5t67 -130.5q0 -39 -25 -62t-67 -23q11 42 11 63q0 59 -48.5 95t-130.5 36q-93 0 -156.5 -46t-76.5 -123l-41 -238q-3 -16 -3 -33q0 -64 47.5 -101t130.5 -37
q93 0 155.5 44t76.5 118l12 65h-141q-24 0 -37.5 14t-13.5 38q0 10 1 16h244q16 0 24.5 -8t8.5 -22q0 -5 -1 -8l-17 -95q-12 -70 -56 -122.5t-113 -81t-155 -28.5q-116 0 -181.5 52.5zM316 769q-13 0 -24 5t-17 14l161 143q13 11 27 11q13 0 22 -11l112 -143
q-20 -20 -50 -20q-23 0 -34 15l-62 94l-95 -94q-16 -14 -40 -14z" />
    <glyph glyph-name="uni0122" unicode="&#x122;" horiz-adv-x="691" 
d="M121.5 43.5q-65.5 52.5 -65.5 142.5q0 25 4 46l42 238q12 72 56.5 126t113.5 83.5t154 29.5q114 0 181 -48.5t67 -130.5q0 -39 -25 -62t-67 -23q11 42 11 63q0 59 -48.5 95t-130.5 36q-93 0 -156.5 -46t-76.5 -123l-41 -238q-3 -16 -3 -33q0 -64 47.5 -101t130.5 -37
q93 0 155.5 44t76.5 118l12 65h-141q-24 0 -37.5 14t-13.5 38q0 10 1 16h244q16 0 24.5 -8t8.5 -22q0 -5 -1 -8l-17 -95q-12 -70 -56 -122.5t-113 -81t-155 -28.5q-116 0 -181.5 52.5zM279 -168q-4 -2 -10 -3.5t-13 -1.5q-23 0 -36 12.5t-13 33.5q0 32 23 55t55 23
q26 0 41.5 -15t15.5 -39q0 -51 -31 -101.5t-73 -85.5q-9 -6 -23 -6q-15 0 -19 6q74 64 83 122z" />
    <glyph glyph-name="Gdotaccent" unicode="&#x120;" horiz-adv-x="691" 
d="M121.5 43.5q-65.5 52.5 -65.5 142.5q0 25 4 46l42 238q12 72 56.5 126t113.5 83.5t154 29.5q114 0 181 -48.5t67 -130.5q0 -39 -25 -62t-67 -23q11 42 11 63q0 59 -48.5 95t-130.5 36q-93 0 -156.5 -46t-76.5 -123l-41 -238q-3 -16 -3 -33q0 -64 47.5 -101t130.5 -37
q93 0 155.5 44t76.5 118l12 65h-141q-24 0 -37.5 14t-13.5 38q0 10 1 16h244q16 0 24.5 -8t8.5 -22q0 -5 -1 -8l-17 -95q-12 -70 -56 -122.5t-113 -81t-155 -28.5q-116 0 -181.5 52.5zM403 791q-12 11 -12 29q0 25 18 42t43 17q19 0 30 -11t11 -29q0 -24 -17.5 -41.5
t-41.5 -17.5q-19 0 -31 11z" />
    <glyph glyph-name="uni1E20" unicode="&#x1e20;" horiz-adv-x="691" 
d="M121.5 43.5q-65.5 52.5 -65.5 142.5q0 25 4 46l42 238q12 72 56.5 126t113.5 83.5t154 29.5q114 0 181 -48.5t67 -130.5q0 -39 -25 -62t-67 -23q11 42 11 63q0 59 -48.5 95t-130.5 36q-93 0 -156.5 -46t-76.5 -123l-41 -238q-3 -16 -3 -33q0 -64 47.5 -101t130.5 -37
q93 0 155.5 44t76.5 118l12 65h-141q-24 0 -37.5 14t-13.5 38q0 10 1 16h244q16 0 24.5 -8t8.5 -22q0 -5 -1 -8l-17 -95q-12 -70 -56 -122.5t-113 -81t-155 -28.5q-116 0 -181.5 52.5zM303.5 836q18.5 16 49.5 16h249q-5 -30 -24 -46t-49 -16h-249q5 30 23.5 46z" />
    <glyph glyph-name="H" unicode="H" horiz-adv-x="681" 
d="M142 639q6 34 29.5 52t62.5 18l-57 -321h374l44 251q6 34 29.5 52t63.5 18l-115 -648q-6 -34 -30 -52t-62 -18l57 326h-374l-44 -256q-6 -34 -29.5 -52t-63.5 -18z" />
    <glyph glyph-name="Hbar" unicode="&#x126;" horiz-adv-x="775" 
d="M790 556q-10 -60 -63 -60h-32l-77 -435q-6 -34 -30 -52t-62 -18l57 326h-374l-44 -256q-6 -34 -29.5 -52t-63.5 -18l90 505h-81q11 60 63 60h28l15 83q6 34 29.5 52t62.5 18l-27 -153h373l15 83q6 34 29.5 52t63.5 18l-27 -153h84zM615 496h-374l-19 -108h374z" />
    <glyph glyph-name="uni1E2A" unicode="&#x1e2a;" horiz-adv-x="681" 
d="M142 639q6 34 29.5 52t62.5 18l-57 -321h374l44 251q6 34 29.5 52t63.5 18l-115 -648q-6 -34 -30 -52t-62 -18l57 326h-374l-44 -256q-6 -34 -29.5 -52t-63.5 -18zM158 -187.5q-42 25.5 -42 73.5q0 35 19.5 53t56.5 18q-4 -28 -4 -36q0 -38 19.5 -54.5t59.5 -16.5
q50 0 76.5 25.5t36.5 81.5q57 0 57 -40q0 -34 -25 -64t-66.5 -48t-89.5 -18q-56 0 -98 25.5z" />
    <glyph glyph-name="Hcircumflex" unicode="&#x124;" horiz-adv-x="681" 
d="M142 639q6 34 29.5 52t62.5 18l-57 -321h374l44 251q6 34 29.5 52t63.5 18l-115 -648q-6 -34 -30 -52t-62 -18l57 326h-374l-44 -256q-6 -34 -29.5 -52t-63.5 -18zM317 769q-13 0 -24 5t-17 14l161 143q13 11 27 11q13 0 22 -11l112 -143q-20 -20 -50 -20q-23 0 -34 15
l-62 94l-95 -94q-16 -14 -40 -14z" />
    <glyph glyph-name="uni1E24" unicode="&#x1e24;" horiz-adv-x="681" 
d="M142 639q6 34 29.5 52t62.5 18l-57 -321h374l44 251q6 34 29.5 52t63.5 18l-115 -648q-6 -34 -30 -52t-62 -18l57 326h-374l-44 -256q-6 -34 -29.5 -52t-63.5 -18zM231 -162q-12 11 -12 29q0 24 18 41.5t43 17.5q18 0 29.5 -11.5t11.5 -28.5q0 -24 -17.5 -41.5
t-41.5 -17.5q-19 0 -31 11z" />
    <glyph glyph-name="I" unicode="I" horiz-adv-x="266" 
d="M162 639q6 34 29.5 52t61.5 18l-114 -648q-6 -34 -30 -52t-62 -18z" />
    <glyph glyph-name="IJ" unicode="&#x132;" horiz-adv-x="790" 
d="M162 639q6 34 30.5 52t61.5 18l-114 -648q-6 -34 -30.5 -52t-62.5 -18zM331 13.5q-46 22.5 -70.5 62.5t-24.5 91q0 53 26 75.5t68 19.5q-4 -12 -8.5 -35t-4.5 -42q0 -59 31.5 -90.5t103.5 -31.5q80 0 128.5 44.5t61.5 122.5l71 399h-129q-53 0 -53 50q0 5 2 21h234
q16 0 25 -11t6 -27l-76 -432q-19 -107 -92.5 -173t-190.5 -66q-62 0 -108 22.5z" />
    <glyph glyph-name="Iacute" unicode="&#xcd;" horiz-adv-x="266" 
d="M162 639q6 34 29.5 52t61.5 18l-114 -648q-6 -34 -30 -52t-62 -18zM279 898q22 31 77 31h48l-139 -145q-13 -13 -27 -16.5t-53 -2.5z" />
    <glyph glyph-name="Ibreve" unicode="&#x12c;" horiz-adv-x="266" 
d="M162 639q6 34 29.5 52t61.5 18l-114 -648q-6 -34 -30 -52t-62 -18zM128.5 794q-41.5 29 -41.5 78q0 36 20 55.5t56 19.5q-4 -20 -4 -40q0 -79 77 -79q94 0 115 119q29 0 42.5 -12t13.5 -31q0 -35 -26 -67t-68 -52t-88 -20q-55 0 -96.5 29z" />
    <glyph glyph-name="uni01CF" unicode="&#x1cf;" horiz-adv-x="266" 
d="M162 639q6 34 29.5 52t61.5 18l-114 -648q-6 -34 -30 -52t-62 -18zM332 926q15 15 40 15q29 0 41 -19l-161 -143q-13 -11 -27 -11q-15 0 -23 11l-111 143q19 19 49 19q25 0 35 -15l62 -93z" />
    <glyph glyph-name="Icircumflex" unicode="&#xce;" horiz-adv-x="266" 
d="M162 639q6 34 29.5 52t61.5 18l-114 -648q-6 -34 -30 -52t-62 -18zM110 769q-13 0 -24 5t-17 14l161 143q13 11 27 11q13 0 22 -11l112 -143q-20 -20 -50 -20q-23 0 -34 15l-62 94l-95 -94q-16 -14 -40 -14z" />
    <glyph glyph-name="Idieresis" unicode="&#xcf;" horiz-adv-x="266" 
d="M162 639q6 34 29.5 52t61.5 18l-114 -648q-6 -34 -30 -52t-62 -18zM103.5 791q-11.5 11 -11.5 28q0 25 17.5 42.5t42.5 17.5q19 0 30 -11t11 -29q0 -24 -17 -41.5t-42 -17.5q-19 0 -30.5 11zM290.5 791q-11.5 11 -11.5 28q0 25 17.5 42.5t42.5 17.5q19 0 30.5 -11
t11.5 -29q0 -24 -17.5 -41.5t-42.5 -17.5q-19 0 -30.5 11z" />
    <glyph glyph-name="Idotaccent" unicode="&#x130;" horiz-adv-x="266" 
d="M162 639q6 34 29.5 52t61.5 18l-114 -648q-6 -34 -30 -52t-62 -18zM197 791q-12 11 -12 29q0 25 18 42t43 17q19 0 30 -11t11 -29q0 -24 -17.5 -41.5t-41.5 -17.5q-19 0 -31 11z" />
    <glyph glyph-name="uni1ECA" unicode="&#x1eca;" horiz-adv-x="266" 
d="M162 639q6 34 29.5 52t61.5 18l-114 -648q-6 -34 -30 -52t-62 -18zM30 -159q-12 11 -12 29q0 24 18 41.5t43 17.5q18 0 29.5 -11.5t11.5 -28.5q0 -24 -17.5 -41.5t-41.5 -17.5q-19 0 -31 11z" />
    <glyph glyph-name="Igrave" unicode="&#xcc;" horiz-adv-x="266" 
d="M162 639q6 34 29.5 52t61.5 18l-114 -648q-6 -34 -30 -52t-62 -18zM218 767.5q-13 3.5 -21 16.5l-92 145h48q27 0 43 -7t22 -23l51 -134q-38 -1 -51 2.5z" />
    <glyph glyph-name="uni1EC8" unicode="&#x1ec8;" horiz-adv-x="266" 
d="M162 639q6 34 29.5 52t61.5 18l-114 -648q-6 -34 -30 -52t-62 -18zM205 794q3 18 13 29.5t28 26.5q16 12 24 22t8 25q0 21 -30 21q-20 0 -31.5 -13t-11.5 -36v-6q-24 0 -38 8t-14 23q0 29 32 52t74 23q37 0 60 -15.5t23 -44.5q0 -26 -10.5 -40.5t-30.5 -28.5
q-16 -12 -24 -21t-11 -23t-14.5 -21.5t-28.5 -7.5q-11 0 -23 3z" />
    <glyph glyph-name="Imacron" unicode="&#x12a;" horiz-adv-x="266" 
d="M162 639q6 34 29.5 52t61.5 18l-114 -648q-6 -34 -30 -52t-62 -18zM97.5 836q18.5 16 49.5 16h249q-5 -30 -24 -46t-49 -16h-249q5 30 23.5 46z" />
    <glyph glyph-name="Iogonek" unicode="&#x12e;" horiz-adv-x="266" 
d="M139 61q-5 -22 -15 -37h15q-42 -28 -67 -61.5t-25 -64.5q0 -16 9 -24.5t25 -8.5q24 0 42 19q2 -10 1 -14q-1 -20 -24 -36t-53 -16q-33 0 -52 18t-19 47q0 27 19 56t52 53l115 647q6 34 29.5 52t61.5 18z" />
    <glyph glyph-name="Itilde" unicode="&#x128;" horiz-adv-x="266" 
d="M162 639q6 34 29.5 52t61.5 18l-114 -648q-6 -34 -30 -52t-62 -18zM92.5 780q-9.5 11 -9.5 28q0 34 27.5 58t66.5 24q24 0 41 -9.5t37 -27.5q15 -13 24.5 -19t20.5 -6q16 0 26 10t10 29q0 9 -3 19q8 4 20 4q15 0 24 -11.5t9 -28.5q0 -34 -26.5 -57.5t-64.5 -23.5
q-22 0 -38.5 9.5t-36.5 27.5q-16 14 -26 20.5t-22 6.5q-18 0 -28.5 -10.5t-10.5 -29.5q0 -12 4 -20q-9 -4 -20 -4q-15 0 -24.5 11z" />
    <glyph glyph-name="J" unicode="J" horiz-adv-x="606" 
d="M139.5 14.5q-48.5 23.5 -76 64t-27.5 90.5q0 47 23.5 69t70.5 24q-5 -18 -9 -39t-4 -34q0 -62 36 -94t107 -32q169 0 198 167l71 399h-128q-54 0 -54 50q0 7 2 21h234q16 0 25 -11t6 -27l-76 -432q-20 -113 -96.5 -176t-194.5 -63q-59 0 -107.5 23.5z" />
    <glyph glyph-name="Jcircumflex" unicode="&#x134;" horiz-adv-x="606" 
d="M139.5 14.5q-48.5 23.5 -76 64t-27.5 90.5q0 47 23.5 69t70.5 24q-5 -18 -9 -39t-4 -34q0 -62 36 -94t107 -32q169 0 198 167l71 399h-128q-54 0 -54 50q0 7 2 21h234q16 0 25 -11t6 -27l-76 -432q-20 -113 -96.5 -176t-194.5 -63q-59 0 -107.5 23.5zM364 769
q-13 0 -24 5t-17 14l161 143q13 11 27 11q13 0 22 -11l112 -143q-20 -20 -50 -20q-23 0 -34 15l-62 94l-95 -94q-16 -14 -40 -14z" />
    <glyph glyph-name="K" unicode="K" horiz-adv-x="647" 
d="M142 639q6 33 30.5 51.5t61.5 18.5l-63 -350l437 350q25 -27 25 -43q0 -11 -9.5 -25t-25.5 -27l-289 -233l247 -370q-11 -9 -24.5 -14.5t-24.5 -5.5q-35 0 -52 25l-212 315l-89 -71l-35 -201q-12 -68 -92 -68z" />
    <glyph glyph-name="uni0136" unicode="&#x136;" horiz-adv-x="647" 
d="M142 639q6 33 30.5 51.5t61.5 18.5l-63 -350l437 350q25 -27 25 -43q0 -11 -9.5 -25t-25.5 -27l-289 -233l247 -370q-11 -9 -24.5 -14.5t-24.5 -5.5q-35 0 -52 25l-212 315l-89 -71l-35 -201q-12 -68 -92 -68zM213 -168q-4 -2 -10 -3.5t-13 -1.5q-23 0 -36 12.5t-13 33.5
q0 32 23 55t55 23q26 0 41.5 -15t15.5 -39q0 -51 -31 -101.5t-73 -85.5q-9 -6 -23 -6q-15 0 -19 6q74 64 83 122z" />
    <glyph glyph-name="L" unicode="L" horiz-adv-x="576" 
d="M43 12q-10 12 -7 29l105 598q6 34 29.5 52t62.5 18l-112 -638h320q26 0 40 -13t14 -38q0 -6 -2 -20h-423q-17 0 -27 12z" />
    <glyph glyph-name="Lacute" unicode="&#x139;" horiz-adv-x="576" 
d="M43 12q-10 12 -7 29l105 598q6 34 29.5 52t62.5 18l-112 -638h320q26 0 40 -13t14 -38q0 -6 -2 -20h-423q-17 0 -27 12zM274 898q22 31 77 31h48l-139 -145q-13 -13 -27 -16.5t-53 -2.5z" />
    <glyph glyph-name="Lcaron" unicode="&#x13d;" horiz-adv-x="616" 
d="M43 12q-10 12 -7 29l105 598q6 34 29.5 52t62.5 18l-112 -638h320q26 0 40 -13t14 -38q0 -6 -2 -20h-423q-17 0 -27 12zM502 589q22 32 27 60q-16 -4 -23 -4q-24 0 -37 12t-13 34q0 32 23 54.5t55 22.5q26 0 41 -15t15 -39q0 -51 -30.5 -102t-72.5 -84q-7 -6 -23 -6
q-14 0 -19 5q35 30 57 62z" />
    <glyph glyph-name="uni013B" unicode="&#x13b;" horiz-adv-x="576" 
d="M43 12q-10 12 -7 29l105 598q6 34 29.5 52t62.5 18l-112 -638h320q26 0 40 -13t14 -38q0 -6 -2 -20h-423q-17 0 -27 12zM240 -168q-4 -2 -10 -3.5t-13 -1.5q-23 0 -36 12.5t-13 33.5q0 32 23 55t55 23q26 0 41.5 -15t15.5 -39q0 -51 -31 -101.5t-73 -85.5q-9 -6 -23 -6
q-15 0 -19 6q74 64 83 122z" />
    <glyph glyph-name="Ldot" unicode="&#x13f;" horiz-adv-x="576" 
d="M43 12q-10 12 -7 29l105 598q6 34 29.5 52t62.5 18l-112 -638h320q26 0 40 -13t14 -38q0 -6 -2 -20h-423q-17 0 -27 12zM308.5 245q-14.5 14 -14.5 36q0 29 22.5 51t51.5 22q22 0 37 -15t15 -37q0 -27 -22.5 -49t-51.5 -22q-23 0 -37.5 14z" />
    <glyph glyph-name="uni1E36" unicode="&#x1e36;" horiz-adv-x="576" 
d="M43 12q-10 12 -7 29l105 598q6 34 29.5 52t62.5 18l-112 -638h320q26 0 40 -13t14 -38q0 -6 -2 -20h-423q-17 0 -27 12zM196 -159q-12 11 -12 29q0 24 18 41.5t43 17.5q18 0 29.5 -11.5t11.5 -28.5q0 -24 -17.5 -41.5t-41.5 -17.5q-19 0 -31 11z" />
    <glyph glyph-name="uni1E38" unicode="&#x1e38;" horiz-adv-x="576" 
d="M43 12q-10 12 -7 29l105 598q6 34 29.5 52t62.5 18l-112 -638h320q26 0 40 -13t14 -38q0 -6 -2 -20h-423q-17 0 -27 12zM93.5 836q18.5 16 49.5 16h249q-5 -30 -24 -46t-49 -16h-249q5 30 23.5 46zM196 -159q-12 11 -12 29q0 24 18 41.5t43 17.5q18 0 29.5 -11.5
t11.5 -28.5q0 -24 -17.5 -41.5t-41.5 -17.5q-19 0 -31 11z" />
    <glyph glyph-name="uni1E3A" unicode="&#x1e3a;" horiz-adv-x="576" 
d="M43 12q-10 12 -7 29l105 598q6 34 29.5 52t62.5 18l-112 -638h320q26 0 40 -13t14 -38q0 -6 -2 -20h-423q-17 0 -27 12zM152 -59h249q-5 -29 -24 -45.5t-49 -16.5h-249q11 62 73 62z" />
    <glyph glyph-name="Lslash" unicode="&#x141;" horiz-adv-x="621" 
d="M540 19q0 -5 -2 -19h-424q-17 0 -27 12t-7 29l43 245l-74 -42q-6 14 -6 27q0 16 8.5 29t23.5 21l61 35l50 283q6 34 29.5 52t62.5 18l-54 -303l130 74q6 -13 6 -27q0 -32 -31 -50l-117 -66l-47 -266h320q55 0 55 -52z" />
    <glyph glyph-name="M" unicode="M" horiz-adv-x="816" 
d="M142 639q6 33 29.5 51.5t60.5 18.5l147 -607l-25 -42l6 -2l381 651q33 0 51.5 -15t18.5 -41q0 -10 -1 -15l-114 -647q-68 0 -68 53q0 5 2 17l80 458l34 60l-7 2l-337 -566q-5 -10 -16 -17t-22 -7q-10 0 -18.5 6.5t-11.5 17.5l-138 566l-7 -2l13 -60l-81 -458
q-6 -34 -29.5 -52t-62.5 -18z" />
    <glyph glyph-name="uni1E42" unicode="&#x1e42;" horiz-adv-x="816" 
d="M142 639q6 33 29.5 51.5t60.5 18.5l147 -607l-25 -42l6 -2l381 651q33 0 51.5 -15t18.5 -41q0 -10 -1 -15l-114 -647q-68 0 -68 53q0 5 2 17l80 458l34 60l-7 2l-337 -566q-5 -10 -16 -17t-22 -7q-10 0 -18.5 6.5t-11.5 17.5l-138 566l-7 -2l13 -60l-81 -458
q-6 -34 -29.5 -52t-62.5 -18zM303 -159q-12 11 -12 29q0 24 18 41.5t43 17.5q18 0 29.5 -11.5t11.5 -28.5q0 -24 -17.5 -41.5t-41.5 -17.5q-19 0 -31 11z" />
    <glyph glyph-name="N" unicode="N" horiz-adv-x="690" 
d="M141 637q6 34 29.5 53t59.5 19l299 -614l6 5l-18 41l101 568q33 0 50.5 -14t17.5 -40q0 -4 -2 -16l-102 -580q-6 -31 -28.5 -49.5t-54.5 -18.5l-302 622l-7 -5l18 -41l-89 -506q-6 -34 -29.5 -52t-62.5 -18z" />
    <glyph glyph-name="Nacute" unicode="&#x143;" horiz-adv-x="690" 
d="M141 637q6 34 29.5 53t59.5 19l299 -614l6 5l-18 41l101 568q33 0 50.5 -14t17.5 -40q0 -4 -2 -16l-102 -580q-6 -31 -28.5 -49.5t-54.5 -18.5l-302 622l-7 -5l18 -41l-89 -506q-6 -34 -29.5 -52t-62.5 -18zM491 898q22 31 77 31h48l-139 -145q-13 -13 -27 -16.5
t-53 -2.5z" />
    <glyph glyph-name="Ncaron" unicode="&#x147;" horiz-adv-x="690" 
d="M141 637q6 34 29.5 53t59.5 19l299 -614l6 5l-18 41l101 568q33 0 50.5 -14t17.5 -40q0 -4 -2 -16l-102 -580q-6 -31 -28.5 -49.5t-54.5 -18.5l-302 622l-7 -5l18 -41l-89 -506q-6 -34 -29.5 -52t-62.5 -18zM544 926q15 15 40 15q29 0 41 -19l-161 -143q-13 -11 -27 -11
q-15 0 -23 11l-111 143q19 19 49 19q25 0 35 -15l62 -93z" />
    <glyph glyph-name="uni0145" unicode="&#x145;" horiz-adv-x="690" 
d="M141 637q6 34 29.5 53t59.5 19l299 -614l6 5l-18 41l101 568q33 0 50.5 -14t17.5 -40q0 -4 -2 -16l-102 -580q-6 -31 -28.5 -49.5t-54.5 -18.5l-302 622l-7 -5l18 -41l-89 -506q-6 -34 -29.5 -52t-62.5 -18zM286 -168q-4 -2 -10 -3.5t-13 -1.5q-23 0 -36 12.5t-13 33.5
q0 32 23 55t55 23q26 0 41.5 -15t15.5 -39q0 -51 -31 -101.5t-73 -85.5q-9 -6 -23 -6q-15 0 -19 6q74 64 83 122z" />
    <glyph glyph-name="uni1E44" unicode="&#x1e44;" horiz-adv-x="690" 
d="M141 637q6 34 29.5 53t59.5 19l299 -614l6 5l-18 41l101 568q33 0 50.5 -14t17.5 -40q0 -4 -2 -16l-102 -580q-6 -31 -28.5 -49.5t-54.5 -18.5l-302 622l-7 -5l18 -41l-89 -506q-6 -34 -29.5 -52t-62.5 -18zM409 791q-12 11 -12 29q0 25 18 42t43 17q19 0 30 -11t11 -29
q0 -24 -17.5 -41.5t-41.5 -17.5q-19 0 -31 11z" />
    <glyph glyph-name="uni1E46" unicode="&#x1e46;" horiz-adv-x="690" 
d="M141 637q6 34 29.5 53t59.5 19l299 -614l6 5l-18 41l101 568q33 0 50.5 -14t17.5 -40q0 -4 -2 -16l-102 -580q-6 -31 -28.5 -49.5t-54.5 -18.5l-302 622l-7 -5l18 -41l-89 -506q-6 -34 -29.5 -52t-62.5 -18zM242 -159q-12 11 -12 29q0 24 18 41.5t43 17.5
q18 0 29.5 -11.5t11.5 -28.5q0 -24 -17.5 -41.5t-41.5 -17.5q-19 0 -31 11z" />
    <glyph glyph-name="Eng" unicode="&#x14a;" horiz-adv-x="690" 
d="M219.5 -250q-43.5 16 -68 44t-24.5 63q0 38 25.5 59.5t66.5 17.5q-4 -13 -7 -28t-3 -24q0 -36 29.5 -56t83.5 -20q71 0 111 38.5t53 120.5l7 39l-296 607l-7 -5l18 -41l-89 -504q-6 -34 -29.5 -52t-62.5 -18l114 646q6 34 29.5 53t60.5 19l284 -583l103 583
q33 0 50.5 -14t17.5 -40q0 -4 -2 -16l-119 -674q-40 -231 -249 -231q-53 0 -96.5 16z" />
    <glyph glyph-name="uni1E48" unicode="&#x1e48;" horiz-adv-x="690" 
d="M141 637q6 34 29.5 53t59.5 19l299 -614l6 5l-18 41l101 568q33 0 50.5 -14t17.5 -40q0 -4 -2 -16l-102 -580q-6 -31 -28.5 -49.5t-54.5 -18.5l-302 622l-7 -5l18 -41l-89 -506q-6 -34 -29.5 -52t-62.5 -18zM198 -59h249q-5 -29 -24 -45.5t-49 -16.5h-249q11 62 73 62z
" />
    <glyph glyph-name="Ntilde" unicode="&#xd1;" horiz-adv-x="690" 
d="M141 637q6 34 29.5 53t59.5 19l299 -614l6 5l-18 41l101 568q33 0 50.5 -14t17.5 -40q0 -4 -2 -16l-102 -580q-6 -31 -28.5 -49.5t-54.5 -18.5l-302 622l-7 -5l18 -41l-89 -506q-6 -34 -29.5 -52t-62.5 -18zM304.5 780q-9.5 11 -9.5 28q0 34 27.5 58t66.5 24
q24 0 41 -9.5t37 -27.5q15 -13 24.5 -19t20.5 -6q16 0 26 10t10 29q0 9 -3 19q8 4 20 4q15 0 24 -11.5t9 -28.5q0 -34 -26.5 -57.5t-64.5 -23.5q-22 0 -38.5 9.5t-36.5 27.5q-16 14 -26 20.5t-22 6.5q-18 0 -28.5 -10.5t-10.5 -29.5q0 -12 4 -20q-9 -4 -20 -4
q-15 0 -24.5 11z" />
    <glyph glyph-name="O" unicode="O" horiz-adv-x="677" 
d="M166.5 17.5q-55.5 26.5 -87 74.5t-31.5 109q0 22 4 42l38 216q13 77 58 133.5t114.5 86.5t156.5 30q71 0 127 -27t87.5 -74.5t31.5 -108.5q0 -12 -4 -40l-39 -216q-13 -75 -56.5 -132t-113.5 -88.5t-160 -31.5q-70 0 -125.5 26.5zM466.5 110.5q63.5 49.5 77.5 133.5
l39 214q3 20 3 37q0 67 -46 105.5t-133 38.5q-100 0 -162 -48.5t-77 -132.5l-38 -214q-4 -19 -4 -40q0 -67 45.5 -105t132.5 -38q99 0 162.5 49.5z" />
    <glyph glyph-name="Oacute" unicode="&#xd3;" horiz-adv-x="677" 
d="M166.5 17.5q-55.5 26.5 -87 74.5t-31.5 109q0 22 4 42l38 216q13 77 58 133.5t114.5 86.5t156.5 30q71 0 127 -27t87.5 -74.5t31.5 -108.5q0 -12 -4 -40l-39 -216q-13 -75 -56.5 -132t-113.5 -88.5t-160 -31.5q-70 0 -125.5 26.5zM466.5 110.5q63.5 49.5 77.5 133.5
l39 214q3 20 3 37q0 67 -46 105.5t-133 38.5q-100 0 -162 -48.5t-77 -132.5l-38 -214q-4 -19 -4 -40q0 -67 45.5 -105t132.5 -38q99 0 162.5 49.5zM483 898q22 31 77 31h48l-139 -145q-13 -13 -27 -16.5t-53 -2.5z" />
    <glyph glyph-name="Obreve" unicode="&#x14e;" horiz-adv-x="677" 
d="M166.5 17.5q-55.5 26.5 -87 74.5t-31.5 109q0 22 4 42l38 216q13 77 58 133.5t114.5 86.5t156.5 30q71 0 127 -27t87.5 -74.5t31.5 -108.5q0 -12 -4 -40l-39 -216q-13 -75 -56.5 -132t-113.5 -88.5t-160 -31.5q-70 0 -125.5 26.5zM466.5 110.5q63.5 49.5 77.5 133.5
l39 214q3 20 3 37q0 67 -46 105.5t-133 38.5q-100 0 -162 -48.5t-77 -132.5l-38 -214q-4 -19 -4 -40q0 -67 45.5 -105t132.5 -38q99 0 162.5 49.5zM332.5 794q-41.5 29 -41.5 78q0 36 20 55.5t56 19.5q-4 -20 -4 -40q0 -79 77 -79q94 0 115 119q29 0 42.5 -12t13.5 -31
q0 -35 -26 -67t-68 -52t-88 -20q-55 0 -96.5 29z" />
    <glyph glyph-name="uni01D1" unicode="&#x1d1;" horiz-adv-x="677" 
d="M166.5 17.5q-55.5 26.5 -87 74.5t-31.5 109q0 22 4 42l38 216q13 77 58 133.5t114.5 86.5t156.5 30q71 0 127 -27t87.5 -74.5t31.5 -108.5q0 -12 -4 -40l-39 -216q-13 -75 -56.5 -132t-113.5 -88.5t-160 -31.5q-70 0 -125.5 26.5zM466.5 110.5q63.5 49.5 77.5 133.5
l39 214q3 20 3 37q0 67 -46 105.5t-133 38.5q-100 0 -162 -48.5t-77 -132.5l-38 -214q-4 -19 -4 -40q0 -67 45.5 -105t132.5 -38q99 0 162.5 49.5zM536 926q15 15 40 15q29 0 41 -19l-161 -143q-13 -11 -27 -11q-15 0 -23 11l-111 143q19 19 49 19q25 0 35 -15l62 -93z" />
    <glyph glyph-name="Ocircumflex" unicode="&#xd4;" horiz-adv-x="677" 
d="M166.5 17.5q-55.5 26.5 -87 74.5t-31.5 109q0 22 4 42l38 216q13 77 58 133.5t114.5 86.5t156.5 30q71 0 127 -27t87.5 -74.5t31.5 -108.5q0 -12 -4 -40l-39 -216q-13 -75 -56.5 -132t-113.5 -88.5t-160 -31.5q-70 0 -125.5 26.5zM466.5 110.5q63.5 49.5 77.5 133.5
l39 214q3 20 3 37q0 67 -46 105.5t-133 38.5q-100 0 -162 -48.5t-77 -132.5l-38 -214q-4 -19 -4 -40q0 -67 45.5 -105t132.5 -38q99 0 162.5 49.5zM314 769q-13 0 -24 5t-17 14l161 143q13 11 27 11q13 0 22 -11l112 -143q-20 -20 -50 -20q-23 0 -34 15l-62 94l-95 -94
q-16 -14 -40 -14z" />
    <glyph glyph-name="uni1ED0" unicode="&#x1ed0;" horiz-adv-x="677" 
d="M166.5 17.5q-55.5 26.5 -87 74.5t-31.5 109q0 22 4 42l38 216q13 77 58 133.5t114.5 86.5t156.5 30q71 0 127 -27t87.5 -74.5t31.5 -108.5q0 -12 -4 -40l-39 -216q-13 -75 -56.5 -132t-113.5 -88.5t-160 -31.5q-70 0 -125.5 26.5zM466.5 110.5q63.5 49.5 77.5 133.5
l39 214q3 20 3 37q0 67 -46 105.5t-133 38.5q-100 0 -162 -48.5t-77 -132.5l-38 -214q-4 -19 -4 -40q0 -67 45.5 -105t132.5 -38q99 0 162.5 49.5zM605 1019q10 15 26.5 21.5t43.5 6.5h34l-106 -114q-11 -12 -25 -15.5t-44 -2.5zM351 783q-16 -15 -39 -15q-14 0 -25 5
t-17 15l162 143q13 11 26 11q14 0 23 -11l111 -143q-9 -10 -22 -15t-27 -5q-24 0 -34 15l-62 94z" />
    <glyph glyph-name="uni1ED8" unicode="&#x1ed8;" horiz-adv-x="677" 
d="M166.5 17.5q-55.5 26.5 -87 74.5t-31.5 109q0 22 4 42l38 216q13 77 58 133.5t114.5 86.5t156.5 30q71 0 127 -27t87.5 -74.5t31.5 -108.5q0 -12 -4 -40l-39 -216q-13 -75 -56.5 -132t-113.5 -88.5t-160 -31.5q-70 0 -125.5 26.5zM466.5 110.5q63.5 49.5 77.5 133.5
l39 214q3 20 3 37q0 67 -46 105.5t-133 38.5q-100 0 -162 -48.5t-77 -132.5l-38 -214q-4 -19 -4 -40q0 -67 45.5 -105t132.5 -38q99 0 162.5 49.5zM234 -159q-12 11 -12 29q0 24 18 41.5t43 17.5q18 0 29.5 -11.5t11.5 -28.5q0 -24 -17.5 -41.5t-41.5 -17.5q-19 0 -31 11z
M314 769q-13 0 -24 5t-17 14l161 143q13 11 27 11q13 0 22 -11l112 -143q-20 -20 -50 -20q-23 0 -34 15l-62 94l-95 -94q-16 -14 -40 -14z" />
    <glyph glyph-name="uni1ED2" unicode="&#x1ed2;" horiz-adv-x="677" 
d="M166.5 17.5q-55.5 26.5 -87 74.5t-31.5 109q0 22 4 42l38 216q13 77 58 133.5t114.5 86.5t156.5 30q71 0 127 -27t87.5 -74.5t31.5 -108.5q0 -12 -4 -40l-39 -216q-13 -75 -56.5 -132t-113.5 -88.5t-160 -31.5q-70 0 -125.5 26.5zM466.5 110.5q63.5 49.5 77.5 133.5
l39 214q3 20 3 37q0 67 -46 105.5t-133 38.5q-100 0 -162 -48.5t-77 -132.5l-38 -214q-4 -19 -4 -40q0 -67 45.5 -105t132.5 -38q99 0 162.5 49.5zM574.5 917.5q-11.5 3.5 -18.5 15.5l-69 114h35q25 0 39.5 -6.5t20.5 -21.5l37 -104q-33 -1 -44.5 2.5zM352 783
q-16 -15 -39 -15q-14 0 -25 5t-17 15l162 143q13 11 26 11q14 0 23 -11l111 -143q-10 -10 -23 -15t-26 -5q-25 0 -34 15l-62 94z" />
    <glyph glyph-name="uni1ED4" unicode="&#x1ed4;" horiz-adv-x="677" 
d="M166.5 17.5q-55.5 26.5 -87 74.5t-31.5 109q0 22 4 42l38 216q13 77 58 133.5t114.5 86.5t156.5 30q71 0 127 -27t87.5 -74.5t31.5 -108.5q0 -12 -4 -40l-39 -216q-13 -75 -56.5 -132t-113.5 -88.5t-160 -31.5q-70 0 -125.5 26.5zM466.5 110.5q63.5 49.5 77.5 133.5
l39 214q3 20 3 37q0 67 -46 105.5t-133 38.5q-100 0 -162 -48.5t-77 -132.5l-38 -214q-4 -19 -4 -40q0 -67 45.5 -105t132.5 -38q99 0 162.5 49.5zM554 911q3 16 11.5 26.5t23.5 22.5q13 10 19.5 18.5t6.5 19.5q0 8 -7.5 13t-20.5 5q-18 0 -28.5 -10.5t-10.5 -29.5
q0 -3 1 -5q-21 0 -33.5 6.5t-12.5 20.5q0 24 28.5 43.5t65.5 19.5q33 0 53.5 -13.5t20.5 -38.5q0 -22 -9 -34.5t-26 -25.5q-14 -11 -20.5 -18t-8.5 -19t-12.5 -18.5t-26.5 -6.5q-6 0 -18 2zM352 783q-16 -15 -39 -15q-14 0 -25 5t-17 15l162 143q13 11 26 11q14 0 23 -11
l111 -143q-10 -10 -23 -15t-26 -5q-25 0 -34 15l-62 94z" />
    <glyph glyph-name="uni1ED6" unicode="&#x1ed6;" horiz-adv-x="677" 
d="M166.5 17.5q-55.5 26.5 -87 74.5t-31.5 109q0 22 4 42l38 216q13 77 58 133.5t114.5 86.5t156.5 30q71 0 127 -27t87.5 -74.5t31.5 -108.5q0 -12 -4 -40l-39 -216q-13 -75 -56.5 -132t-113.5 -88.5t-160 -31.5q-70 0 -125.5 26.5zM466.5 110.5q63.5 49.5 77.5 133.5
l39 214q3 20 3 37q0 67 -46 105.5t-133 38.5q-100 0 -162 -48.5t-77 -132.5l-38 -214q-4 -19 -4 -40q0 -67 45.5 -105t132.5 -38q99 0 162.5 49.5zM348 968q-9 10 -9 26q0 31 25 53t60 22q22 0 37.5 -8.5t33.5 -24.5q13 -11 22 -16.5t19 -5.5q16 0 24.5 8.5t8.5 23.5
q0 7 -4 19q12 4 18 4q14 0 23 -10.5t9 -25.5q0 -31 -24 -51.5t-59 -20.5q-20 0 -34.5 8t-33.5 24q-14 12 -23.5 18t-20.5 6q-16 0 -25 -11t-9 -29q0 -11 2 -16q-15 -3 -17 -3q-14 0 -23 10zM313 768q-14 0 -25 5t-17 15l162 143q13 11 26 11q14 0 23 -11l111 -143
q-10 -10 -23 -15t-26 -5q-25 0 -34 15l-62 94l-96 -94q-16 -15 -39 -15z" />
    <glyph glyph-name="Odieresis" unicode="&#xd6;" horiz-adv-x="677" 
d="M166.5 17.5q-55.5 26.5 -87 74.5t-31.5 109q0 22 4 42l38 216q13 77 58 133.5t114.5 86.5t156.5 30q71 0 127 -27t87.5 -74.5t31.5 -108.5q0 -12 -4 -40l-39 -216q-13 -75 -56.5 -132t-113.5 -88.5t-160 -31.5q-70 0 -125.5 26.5zM466.5 110.5q63.5 49.5 77.5 133.5
l39 214q3 20 3 37q0 67 -46 105.5t-133 38.5q-100 0 -162 -48.5t-77 -132.5l-38 -214q-4 -19 -4 -40q0 -67 45.5 -105t132.5 -38q99 0 162.5 49.5zM307.5 791q-11.5 11 -11.5 28q0 25 17.5 42.5t42.5 17.5q19 0 30 -11t11 -29q0 -24 -17 -41.5t-42 -17.5q-19 0 -30.5 11z
M494.5 791q-11.5 11 -11.5 28q0 25 17.5 42.5t42.5 17.5q19 0 30.5 -11t11.5 -29q0 -24 -17.5 -41.5t-42.5 -17.5q-19 0 -30.5 11z" />
    <glyph glyph-name="uni1ECC" unicode="&#x1ecc;" horiz-adv-x="677" 
d="M166.5 17.5q-55.5 26.5 -87 74.5t-31.5 109q0 22 4 42l38 216q13 77 58 133.5t114.5 86.5t156.5 30q71 0 127 -27t87.5 -74.5t31.5 -108.5q0 -12 -4 -40l-39 -216q-13 -75 -56.5 -132t-113.5 -88.5t-160 -31.5q-70 0 -125.5 26.5zM466.5 110.5q63.5 49.5 77.5 133.5
l39 214q3 20 3 37q0 67 -46 105.5t-133 38.5q-100 0 -162 -48.5t-77 -132.5l-38 -214q-4 -19 -4 -40q0 -67 45.5 -105t132.5 -38q99 0 162.5 49.5zM234 -159q-12 11 -12 29q0 24 18 41.5t43 17.5q18 0 29.5 -11.5t11.5 -28.5q0 -24 -17.5 -41.5t-41.5 -17.5q-19 0 -31 11z
" />
    <glyph glyph-name="Ograve" unicode="&#xd2;" horiz-adv-x="677" 
d="M166.5 17.5q-55.5 26.5 -87 74.5t-31.5 109q0 22 4 42l38 216q13 77 58 133.5t114.5 86.5t156.5 30q71 0 127 -27t87.5 -74.5t31.5 -108.5q0 -12 -4 -40l-39 -216q-13 -75 -56.5 -132t-113.5 -88.5t-160 -31.5q-70 0 -125.5 26.5zM466.5 110.5q63.5 49.5 77.5 133.5
l39 214q3 20 3 37q0 67 -46 105.5t-133 38.5q-100 0 -162 -48.5t-77 -132.5l-38 -214q-4 -19 -4 -40q0 -67 45.5 -105t132.5 -38q99 0 162.5 49.5zM422 767.5q-13 3.5 -21 16.5l-92 145h48q27 0 43 -7t22 -23l51 -134q-38 -1 -51 2.5z" />
    <glyph glyph-name="uni1ECE" unicode="&#x1ece;" horiz-adv-x="677" 
d="M166.5 17.5q-55.5 26.5 -87 74.5t-31.5 109q0 22 4 42l38 216q13 77 58 133.5t114.5 86.5t156.5 30q71 0 127 -27t87.5 -74.5t31.5 -108.5q0 -12 -4 -40l-39 -216q-13 -75 -56.5 -132t-113.5 -88.5t-160 -31.5q-70 0 -125.5 26.5zM466.5 110.5q63.5 49.5 77.5 133.5
l39 214q3 20 3 37q0 67 -46 105.5t-133 38.5q-100 0 -162 -48.5t-77 -132.5l-38 -214q-4 -19 -4 -40q0 -67 45.5 -105t132.5 -38q99 0 162.5 49.5zM410 794q3 18 13 29.5t28 26.5q16 12 24 22t8 25q0 21 -30 21q-20 0 -31.5 -13t-11.5 -36v-6q-24 0 -38 8t-14 23q0 29 32 52
t74 23q37 0 60 -15.5t23 -44.5q0 -26 -10.5 -40.5t-30.5 -28.5q-16 -12 -24 -21t-11 -23t-14.5 -21.5t-28.5 -7.5q-11 0 -23 3z" />
    <glyph glyph-name="Ohorn" unicode="&#x1a0;" horiz-adv-x="697" 
d="M758.5 609q-37.5 -42 -99.5 -61q6 -22 6 -48q0 -22 -4 -41l-39 -216q-13 -75 -56.5 -132t-113.5 -88.5t-160 -31.5q-70 0 -125.5 26.5t-87 74.5t-31.5 109q0 22 4 42l38 216q13 77 58 133.5t114.5 86.5t156.5 30q77 0 136 -31.5t88 -86.5q32 13 49 31t26.5 45t18.5 77
q28 1 43.5 -10.5t15.5 -33.5q0 -49 -37.5 -91zM586 495q0 67 -46 105.5t-133 38.5q-100 0 -162 -48.5t-77 -132.5l-38 -214q-4 -19 -4 -40q0 -67 45.5 -105t132.5 -38q99 0 162.5 49.5t77.5 133.5l39 214q3 20 3 37z" />
    <glyph glyph-name="uni1EDA" unicode="&#x1eda;" horiz-adv-x="697" 
d="M758.5 609q-37.5 -42 -99.5 -61q6 -22 6 -48q0 -22 -4 -41l-39 -216q-13 -75 -56.5 -132t-113.5 -88.5t-160 -31.5q-70 0 -125.5 26.5t-87 74.5t-31.5 109q0 22 4 42l38 216q13 77 58 133.5t114.5 86.5t156.5 30q77 0 136 -31.5t88 -86.5q32 13 49 31t26.5 45t18.5 77
q28 1 43.5 -10.5t15.5 -33.5q0 -49 -37.5 -91zM586 495q0 67 -46 105.5t-133 38.5q-100 0 -162 -48.5t-77 -132.5l-38 -214q-4 -19 -4 -40q0 -67 45.5 -105t132.5 -38q99 0 162.5 49.5t77.5 133.5l39 214q3 20 3 37zM496 898q22 31 77 31h48l-139 -145q-13 -13 -27 -16.5
t-53 -2.5z" />
    <glyph glyph-name="uni1EE2" unicode="&#x1ee2;" horiz-adv-x="697" 
d="M758.5 609q-37.5 -42 -99.5 -61q6 -22 6 -48q0 -22 -4 -41l-39 -216q-13 -75 -56.5 -132t-113.5 -88.5t-160 -31.5q-70 0 -125.5 26.5t-87 74.5t-31.5 109q0 22 4 42l38 216q13 77 58 133.5t114.5 86.5t156.5 30q77 0 136 -31.5t88 -86.5q32 13 49 31t26.5 45t18.5 77
q28 1 43.5 -10.5t15.5 -33.5q0 -49 -37.5 -91zM586 495q0 67 -46 105.5t-133 38.5q-100 0 -162 -48.5t-77 -132.5l-38 -214q-4 -19 -4 -40q0 -67 45.5 -105t132.5 -38q99 0 162.5 49.5t77.5 133.5l39 214q3 20 3 37zM247 -159q-12 11 -12 29q0 24 18 41.5t43 17.5
q18 0 29.5 -11.5t11.5 -28.5q0 -24 -17.5 -41.5t-41.5 -17.5q-19 0 -31 11z" />
    <glyph glyph-name="uni1EDC" unicode="&#x1edc;" horiz-adv-x="697" 
d="M758.5 609q-37.5 -42 -99.5 -61q6 -22 6 -48q0 -22 -4 -41l-39 -216q-13 -75 -56.5 -132t-113.5 -88.5t-160 -31.5q-70 0 -125.5 26.5t-87 74.5t-31.5 109q0 22 4 42l38 216q13 77 58 133.5t114.5 86.5t156.5 30q77 0 136 -31.5t88 -86.5q32 13 49 31t26.5 45t18.5 77
q28 1 43.5 -10.5t15.5 -33.5q0 -49 -37.5 -91zM586 495q0 67 -46 105.5t-133 38.5q-100 0 -162 -48.5t-77 -132.5l-38 -214q-4 -19 -4 -40q0 -67 45.5 -105t132.5 -38q99 0 162.5 49.5t77.5 133.5l39 214q3 20 3 37zM435 767.5q-13 3.5 -21 16.5l-92 145h48q27 0 43 -7
t22 -23l51 -134q-38 -1 -51 2.5z" />
    <glyph glyph-name="uni1EDE" unicode="&#x1ede;" horiz-adv-x="697" 
d="M758.5 609q-37.5 -42 -99.5 -61q6 -22 6 -48q0 -22 -4 -41l-39 -216q-13 -75 -56.5 -132t-113.5 -88.5t-160 -31.5q-70 0 -125.5 26.5t-87 74.5t-31.5 109q0 22 4 42l38 216q13 77 58 133.5t114.5 86.5t156.5 30q77 0 136 -31.5t88 -86.5q32 13 49 31t26.5 45t18.5 77
q28 1 43.5 -10.5t15.5 -33.5q0 -49 -37.5 -91zM586 495q0 67 -46 105.5t-133 38.5q-100 0 -162 -48.5t-77 -132.5l-38 -214q-4 -19 -4 -40q0 -67 45.5 -105t132.5 -38q99 0 162.5 49.5t77.5 133.5l39 214q3 20 3 37zM423 794q3 18 13 29.5t28 26.5q16 12 24 22t8 25
q0 21 -30 21q-20 0 -31.5 -13t-11.5 -36v-6q-24 0 -38 8t-14 23q0 29 32 52t74 23q37 0 60 -15.5t23 -44.5q0 -26 -10.5 -40.5t-30.5 -28.5q-16 -12 -24 -21t-11 -23t-14.5 -21.5t-28.5 -7.5q-11 0 -23 3z" />
    <glyph glyph-name="uni1EE0" unicode="&#x1ee0;" horiz-adv-x="697" 
d="M758.5 609q-37.5 -42 -99.5 -61q6 -22 6 -48q0 -22 -4 -41l-39 -216q-13 -75 -56.5 -132t-113.5 -88.5t-160 -31.5q-70 0 -125.5 26.5t-87 74.5t-31.5 109q0 22 4 42l38 216q13 77 58 133.5t114.5 86.5t156.5 30q77 0 136 -31.5t88 -86.5q32 13 49 31t26.5 45t18.5 77
q28 1 43.5 -10.5t15.5 -33.5q0 -49 -37.5 -91zM586 495q0 67 -46 105.5t-133 38.5q-100 0 -162 -48.5t-77 -132.5l-38 -214q-4 -19 -4 -40q0 -67 45.5 -105t132.5 -38q99 0 162.5 49.5t77.5 133.5l39 214q3 20 3 37zM309.5 780q-9.5 11 -9.5 28q0 34 27.5 58t66.5 24
q24 0 41 -9.5t37 -27.5q15 -13 24.5 -19t20.5 -6q16 0 26 10t10 29q0 9 -3 19q8 4 20 4q15 0 24 -11.5t9 -28.5q0 -34 -26.5 -57.5t-64.5 -23.5q-22 0 -38.5 9.5t-36.5 27.5q-16 14 -26 20.5t-22 6.5q-18 0 -28.5 -10.5t-10.5 -29.5q0 -12 4 -20q-9 -4 -20 -4
q-15 0 -24.5 11z" />
    <glyph glyph-name="Ohungarumlaut" unicode="&#x150;" horiz-adv-x="677" 
d="M166.5 17.5q-55.5 26.5 -87 74.5t-31.5 109q0 22 4 42l38 216q13 77 58 133.5t114.5 86.5t156.5 30q71 0 127 -27t87.5 -74.5t31.5 -108.5q0 -12 -4 -40l-39 -216q-13 -75 -56.5 -132t-113.5 -88.5t-160 -31.5q-70 0 -125.5 26.5zM466.5 110.5q63.5 49.5 77.5 133.5
l39 214q3 20 3 37q0 67 -46 105.5t-133 38.5q-100 0 -162 -48.5t-77 -132.5l-38 -214q-4 -19 -4 -40q0 -67 45.5 -105t132.5 -38q99 0 162.5 49.5zM395 899q24 30 76 30h46l-143 -145q-12 -13 -26.5 -16.5t-50.5 -2.5zM573 899q21 30 76 30h46l-140 -145
q-11 -13 -25.5 -16.5t-51.5 -2.5z" />
    <glyph glyph-name="Omacron" unicode="&#x14c;" horiz-adv-x="677" 
d="M166.5 17.5q-55.5 26.5 -87 74.5t-31.5 109q0 22 4 42l38 216q13 77 58 133.5t114.5 86.5t156.5 30q71 0 127 -27t87.5 -74.5t31.5 -108.5q0 -12 -4 -40l-39 -216q-13 -75 -56.5 -132t-113.5 -88.5t-160 -31.5q-70 0 -125.5 26.5zM466.5 110.5q63.5 49.5 77.5 133.5
l39 214q3 20 3 37q0 67 -46 105.5t-133 38.5q-100 0 -162 -48.5t-77 -132.5l-38 -214q-4 -19 -4 -40q0 -67 45.5 -105t132.5 -38q99 0 162.5 49.5zM301.5 836q18.5 16 49.5 16h249q-5 -30 -24 -46t-49 -16h-249q5 30 23.5 46z" />
    <glyph glyph-name="Oslash" unicode="&#xd8;" horiz-adv-x="677" 
d="M647 585.5q18 -38.5 18 -83.5q0 -23 -4 -42l-39 -218q-13 -75 -57.5 -132t-114.5 -88.5t-158 -31.5q-69 0 -128 27l-31 -46q-10 -15 -25 -23.5t-30 -8.5q-16 0 -30 9l68 100q-33 29 -50.5 67.5t-17.5 83.5q0 23 4 43l38 218q13 75 59 131.5t116 87.5t154 31q72 0 129 -27
l36 53q10 15 25.5 23t31.5 8t29 -7l-74 -108q33 -28 51 -66.5zM126 204q0 -57 33 -93l347 511q-40 18 -100 18q-97 0 -160.5 -49.5t-77.5 -132.5l-38 -215q-4 -19 -4 -39zM586 495q0 58 -33 94l-347 -511q39 -18 98 -18q99 0 162 50t78 133l39 215q3 20 3 37z" />
    <glyph glyph-name="Oslashacute" unicode="&#x1fe;" horiz-adv-x="677" 
d="M647 585.5q18 -38.5 18 -83.5q0 -23 -4 -42l-39 -218q-13 -75 -57.5 -132t-114.5 -88.5t-158 -31.5q-69 0 -128 27l-31 -46q-10 -15 -25 -23.5t-30 -8.5q-16 0 -30 9l68 100q-33 29 -50.5 67.5t-17.5 83.5q0 23 4 43l38 218q13 75 59 131.5t116 87.5t154 31q72 0 129 -27
l36 53q10 15 25.5 23t31.5 8t29 -7l-74 -108q33 -28 51 -66.5zM126 204q0 -57 33 -93l347 511q-40 18 -100 18q-97 0 -160.5 -49.5t-77.5 -132.5l-38 -215q-4 -19 -4 -39zM586 495q0 58 -33 94l-347 -511q39 -18 98 -18q99 0 162 50t78 133l39 215q3 20 3 37zM483 898
q22 31 77 31h48l-139 -145q-13 -13 -27 -16.5t-53 -2.5z" />
    <glyph glyph-name="Otilde" unicode="&#xd5;" horiz-adv-x="677" 
d="M166.5 17.5q-55.5 26.5 -87 74.5t-31.5 109q0 22 4 42l38 216q13 77 58 133.5t114.5 86.5t156.5 30q71 0 127 -27t87.5 -74.5t31.5 -108.5q0 -12 -4 -40l-39 -216q-13 -75 -56.5 -132t-113.5 -88.5t-160 -31.5q-70 0 -125.5 26.5zM466.5 110.5q63.5 49.5 77.5 133.5
l39 214q3 20 3 37q0 67 -46 105.5t-133 38.5q-100 0 -162 -48.5t-77 -132.5l-38 -214q-4 -19 -4 -40q0 -67 45.5 -105t132.5 -38q99 0 162.5 49.5zM296.5 780q-9.5 11 -9.5 28q0 34 27.5 58t66.5 24q24 0 41 -9.5t37 -27.5q15 -13 24.5 -19t20.5 -6q16 0 26 10t10 29
q0 9 -3 19q8 4 20 4q15 0 24 -11.5t9 -28.5q0 -34 -26.5 -57.5t-64.5 -23.5q-22 0 -38.5 9.5t-36.5 27.5q-16 14 -26 20.5t-22 6.5q-18 0 -28.5 -10.5t-10.5 -29.5q0 -12 4 -20q-9 -4 -20 -4q-15 0 -24.5 11z" />
    <glyph glyph-name="OE" unicode="&#x152;" horiz-adv-x="1095" 
d="M163 15.5q-55 25.5 -85 72t-30 108.5q0 25 4 46l38 218q13 73 58.5 130t116 88.5t154.5 31.5q67 0 118 -24.5t77 -66.5l9 50q2 13 14 22t26 9h443q-7 -35 -25 -52t-50 -17h-341l-43 -244h286q-13 -69 -75 -69h-223l-44 -249h362q52 0 52 -49q0 -6 -2 -20h-463
q-14 0 -22.5 9.5t-6.5 22.5l8 51q-42 -43 -101 -68t-126 -25q-74 0 -129 25.5zM466.5 109.5q63.5 49.5 77.5 133.5l39 216q3 20 3 37q0 67 -46 105.5t-133 38.5q-98 0 -161.5 -49.5t-77.5 -132.5l-38 -215q-4 -28 -4 -39q0 -67 46.5 -105.5t131.5 -38.5q99 0 162.5 49.5z
" />
    <glyph glyph-name="P" unicode="P" horiz-adv-x="677" 
d="M146 662q2 16 15.5 27t31.5 11h294q83 0 134 -46.5t51 -122.5q0 -78 -31.5 -137t-90 -91t-135.5 -32h-258l-37 -210q-6 -34 -29.5 -52t-63.5 -18zM425 342q79 0 122.5 46t43.5 130q0 58 -28 84.5t-87 26.5h-257l-50 -287h256z" />
    <glyph glyph-name="Thorn" unicode="&#xde;" horiz-adv-x="621" 
d="M152 700q69 0 69 -53q0 -5 -2 -17l-12 -71h202q82 0 133 -45.5t51 -118.5q0 -74 -31.5 -131.5t-88 -89t-129.5 -31.5h-210l-14 -82q-6 -34 -29.5 -52t-63.5 -18zM348 213q47 0 84.5 22t58.5 60.5t21 86.5q0 55 -28.5 80.5t-87.5 25.5h-201l-49 -275h202z" />
    <glyph glyph-name="Q" unicode="Q" horiz-adv-x="683" 
d="M474.5 -14.5q-21.5 14.5 -31.5 37.5q-72 -32 -151 -32q-74 0 -129 26.5t-85 73.5t-30 107q0 25 4 45l38 216q21 116 109 183t220 67q75 0 130.5 -26t85.5 -73t30 -107q0 -24 -4 -44l-39 -216q-10 -55 -40.5 -103t-77.5 -81q26 -38 84 -34q-5 -26 -21 -40t-42 -14
q-29 0 -50.5 14.5zM544 244l39 214q4 28 4 41q0 66 -44.5 103t-135.5 37q-98 0 -161.5 -49t-77.5 -132l-35 -195q58 20 106 20q85 0 141 -38.5t91 -124.5q60 46 73 124zM413 80q-29 78 -72.5 109t-115.5 31q-43 0 -98 -20q3 -139 177 -139q58 0 109 19z" />
    <glyph glyph-name="R" unicode="R" horiz-adv-x="664" 
d="M146 662q2 16 15.5 27t31.5 11h279q81 0 128 -43t47 -118q0 -71 -37 -126.5t-103 -84.5v-3q34 -15 52.5 -44.5t18.5 -70.5q0 -18 -3 -36l-19 -113q-6 -34 -29.5 -52t-63.5 -18l32 177q3 18 3 35q0 44 -24 67t-70 23h-244l-41 -232q-6 -34 -29.5 -52t-62.5 -18zM410 363
q43 0 78.5 22t56 60.5t20.5 85.5q0 49 -27 74t-80 25h-239l-47 -267h238z" />
    <glyph glyph-name="Racute" unicode="&#x154;" horiz-adv-x="664" 
d="M146 662q2 16 15.5 27t31.5 11h279q81 0 128 -43t47 -118q0 -71 -37 -126.5t-103 -84.5v-3q34 -15 52.5 -44.5t18.5 -70.5q0 -18 -3 -36l-19 -113q-6 -34 -29.5 -52t-63.5 -18l32 177q3 18 3 35q0 44 -24 67t-70 23h-244l-41 -232q-6 -34 -29.5 -52t-62.5 -18zM410 363
q43 0 78.5 22t56 60.5t20.5 85.5q0 49 -27 74t-80 25h-239l-47 -267h238zM474 898q22 31 77 31h48l-139 -145q-13 -13 -27 -16.5t-53 -2.5z" />
    <glyph glyph-name="Rcaron" unicode="&#x158;" horiz-adv-x="664" 
d="M146 662q2 16 15.5 27t31.5 11h279q81 0 128 -43t47 -118q0 -71 -37 -126.5t-103 -84.5v-3q34 -15 52.5 -44.5t18.5 -70.5q0 -18 -3 -36l-19 -113q-6 -34 -29.5 -52t-63.5 -18l32 177q3 18 3 35q0 44 -24 67t-70 23h-244l-41 -232q-6 -34 -29.5 -52t-62.5 -18zM410 363
q43 0 78.5 22t56 60.5t20.5 85.5q0 49 -27 74t-80 25h-239l-47 -267h238zM527 926q15 15 40 15q29 0 41 -19l-161 -143q-13 -11 -27 -11q-15 0 -23 11l-111 143q19 19 49 19q25 0 35 -15l62 -93z" />
    <glyph glyph-name="uni0156" unicode="&#x156;" horiz-adv-x="664" 
d="M146 662q2 16 15.5 27t31.5 11h279q81 0 128 -43t47 -118q0 -71 -37 -126.5t-103 -84.5v-3q34 -15 52.5 -44.5t18.5 -70.5q0 -18 -3 -36l-19 -113q-6 -34 -29.5 -52t-63.5 -18l32 177q3 18 3 35q0 44 -24 67t-70 23h-244l-41 -232q-6 -34 -29.5 -52t-62.5 -18zM410 363
q43 0 78.5 22t56 60.5t20.5 85.5q0 49 -27 74t-80 25h-239l-47 -267h238zM268 -168q-4 -2 -10 -3.5t-13 -1.5q-23 0 -36 12.5t-13 33.5q0 32 23 55t55 23q26 0 41.5 -15t15.5 -39q0 -51 -31 -101.5t-73 -85.5q-9 -6 -23 -6q-15 0 -19 6q74 64 83 122z" />
    <glyph glyph-name="uni1E5A" unicode="&#x1e5a;" horiz-adv-x="664" 
d="M146 662q2 16 15.5 27t31.5 11h279q81 0 128 -43t47 -118q0 -71 -37 -126.5t-103 -84.5v-3q34 -15 52.5 -44.5t18.5 -70.5q0 -18 -3 -36l-19 -113q-6 -34 -29.5 -52t-63.5 -18l32 177q3 18 3 35q0 44 -24 67t-70 23h-244l-41 -232q-6 -34 -29.5 -52t-62.5 -18zM410 363
q43 0 78.5 22t56 60.5t20.5 85.5q0 49 -27 74t-80 25h-239l-47 -267h238zM225 -159q-12 11 -12 29q0 24 18 41.5t43 17.5q18 0 29.5 -11.5t11.5 -28.5q0 -24 -17.5 -41.5t-41.5 -17.5q-19 0 -31 11z" />
    <glyph glyph-name="uni1E5C" unicode="&#x1e5c;" horiz-adv-x="664" 
d="M146 662q2 16 15.5 27t31.5 11h279q81 0 128 -43t47 -118q0 -71 -37 -126.5t-103 -84.5v-3q34 -15 52.5 -44.5t18.5 -70.5q0 -18 -3 -36l-19 -113q-6 -34 -29.5 -52t-63.5 -18l32 177q3 18 3 35q0 44 -24 67t-70 23h-244l-41 -232q-6 -34 -29.5 -52t-62.5 -18zM410 363
q43 0 78.5 22t56 60.5t20.5 85.5q0 49 -27 74t-80 25h-239l-47 -267h238zM225 -159q-12 11 -12 29q0 24 18 41.5t43 17.5q18 0 29.5 -11.5t11.5 -28.5q0 -24 -17.5 -41.5t-41.5 -17.5q-19 0 -31 11zM292.5 836q18.5 16 49.5 16h249q-5 -30 -24 -46t-49 -16h-249
q5 30 23.5 46z" />
    <glyph glyph-name="uni1E5E" unicode="&#x1e5e;" horiz-adv-x="664" 
d="M146 662q2 16 15.5 27t31.5 11h279q81 0 128 -43t47 -118q0 -71 -37 -126.5t-103 -84.5v-3q34 -15 52.5 -44.5t18.5 -70.5q0 -18 -3 -36l-19 -113q-6 -34 -29.5 -52t-63.5 -18l32 177q3 18 3 35q0 44 -24 67t-70 23h-244l-41 -232q-6 -34 -29.5 -52t-62.5 -18zM410 363
q43 0 78.5 22t56 60.5t20.5 85.5q0 49 -27 74t-80 25h-239l-47 -267h238zM181 -59h249q-5 -29 -24 -45.5t-49 -16.5h-249q11 62 73 62z" />
    <glyph glyph-name="S" unicode="S" horiz-adv-x="642" 
d="M151 11q-55 20 -84.5 55.5t-29.5 80.5q0 44 21.5 68.5t61.5 25.5q-4 -30 -4 -41q0 -68 45 -104t130 -36q102 0 158 37.5t56 106.5q0 43 -41 69.5t-141 49.5q-113 25 -164 65.5t-51 104.5t35.5 113t100 76t148.5 27q66 0 117.5 -18t80 -50.5t28.5 -74.5q0 -40 -20 -61.5
t-58 -22.5q1 8 1 22q0 137 -160 137q-88 0 -139.5 -36.5t-51.5 -98.5q0 -42 36.5 -67.5t123.5 -45.5q126 -28 180.5 -68.5t54.5 -106.5q0 -69 -37.5 -120.5t-106.5 -79t-162 -27.5q-73 0 -128 20z" />
    <glyph glyph-name="Sacute" unicode="&#x15a;" horiz-adv-x="642" 
d="M151 11q-55 20 -84.5 55.5t-29.5 80.5q0 44 21.5 68.5t61.5 25.5q-4 -30 -4 -41q0 -68 45 -104t130 -36q102 0 158 37.5t56 106.5q0 43 -41 69.5t-141 49.5q-113 25 -164 65.5t-51 104.5t35.5 113t100 76t148.5 27q66 0 117.5 -18t80 -50.5t28.5 -74.5q0 -40 -20 -61.5
t-58 -22.5q1 8 1 22q0 137 -160 137q-88 0 -139.5 -36.5t-51.5 -98.5q0 -42 36.5 -67.5t123.5 -45.5q126 -28 180.5 -68.5t54.5 -106.5q0 -69 -37.5 -120.5t-106.5 -79t-162 -27.5q-73 0 -128 20zM457 898q22 31 77 31h48l-139 -145q-13 -13 -27 -16.5t-53 -2.5z" />
    <glyph glyph-name="Scaron" unicode="&#x160;" horiz-adv-x="642" 
d="M151 11q-55 20 -84.5 55.5t-29.5 80.5q0 44 21.5 68.5t61.5 25.5q-4 -30 -4 -41q0 -68 45 -104t130 -36q102 0 158 37.5t56 106.5q0 43 -41 69.5t-141 49.5q-113 25 -164 65.5t-51 104.5t35.5 113t100 76t148.5 27q66 0 117.5 -18t80 -50.5t28.5 -74.5q0 -40 -20 -61.5
t-58 -22.5q1 8 1 22q0 137 -160 137q-88 0 -139.5 -36.5t-51.5 -98.5q0 -42 36.5 -67.5t123.5 -45.5q126 -28 180.5 -68.5t54.5 -106.5q0 -69 -37.5 -120.5t-106.5 -79t-162 -27.5q-73 0 -128 20zM510 926q15 15 40 15q29 0 41 -19l-161 -143q-13 -11 -27 -11q-15 0 -23 11
l-111 143q19 19 49 19q25 0 35 -15l62 -93z" />
    <glyph glyph-name="Scedilla" unicode="&#x15e;" horiz-adv-x="642" 
d="M598 504.5q-20 -21.5 -58 -22.5q1 8 1 22q0 137 -160 137q-88 0 -139.5 -36.5t-51.5 -98.5q0 -42 36.5 -67.5t123.5 -45.5q126 -28 180.5 -68.5t54.5 -106.5q0 -98 -74 -158.5t-200 -67.5l-35 -40q38 0 58 -18t20 -47q0 -45 -34.5 -74.5t-86.5 -29.5q-37 0 -60.5 15
t-23.5 37q0 18 15 32q23 -35 69 -35q26 0 41 13t15 35q0 14 -11 22t-29 8q-21 0 -36 -6q-7 -3 -14 2.5t-7 14.5q0 8 6 16l47 55q-96 7 -152 50t-56 105q0 44 21.5 68.5t61.5 25.5q-4 -30 -4 -41q0 -68 45 -104t130 -36q102 0 158 37.5t56 106.5q0 43 -41 69.5t-141 49.5
q-113 25 -164 65.5t-51 104.5t35.5 113t100 76t148.5 27q66 0 117.5 -18t80 -50.5t28.5 -74.5q0 -40 -20 -61.5z" />
    <glyph glyph-name="Scircumflex" unicode="&#x15c;" horiz-adv-x="642" 
d="M151 11q-55 20 -84.5 55.5t-29.5 80.5q0 44 21.5 68.5t61.5 25.5q-4 -30 -4 -41q0 -68 45 -104t130 -36q102 0 158 37.5t56 106.5q0 43 -41 69.5t-141 49.5q-113 25 -164 65.5t-51 104.5t35.5 113t100 76t148.5 27q66 0 117.5 -18t80 -50.5t28.5 -74.5q0 -40 -20 -61.5
t-58 -22.5q1 8 1 22q0 137 -160 137q-88 0 -139.5 -36.5t-51.5 -98.5q0 -42 36.5 -67.5t123.5 -45.5q126 -28 180.5 -68.5t54.5 -106.5q0 -69 -37.5 -120.5t-106.5 -79t-162 -27.5q-73 0 -128 20zM288 769q-13 0 -24 5t-17 14l161 143q13 11 27 11q13 0 22 -11l112 -143
q-20 -20 -50 -20q-23 0 -34 15l-62 94l-95 -94q-16 -14 -40 -14z" />
    <glyph glyph-name="uni0218" unicode="&#x218;" horiz-adv-x="642" 
d="M151 11q-55 20 -84.5 55.5t-29.5 80.5q0 44 21.5 68.5t61.5 25.5q-4 -30 -4 -41q0 -68 45 -104t130 -36q102 0 158 37.5t56 106.5q0 43 -41 69.5t-141 49.5q-113 25 -164 65.5t-51 104.5t35.5 113t100 76t148.5 27q66 0 117.5 -18t80 -50.5t28.5 -74.5q0 -40 -20 -61.5
t-58 -22.5q1 8 1 22q0 137 -160 137q-88 0 -139.5 -36.5t-51.5 -98.5q0 -42 36.5 -67.5t123.5 -45.5q126 -28 180.5 -68.5t54.5 -106.5q0 -69 -37.5 -120.5t-106.5 -79t-162 -27.5q-73 0 -128 20zM259 -170q-4 -2 -10 -3.5t-13 -1.5q-23 0 -36 12.5t-13 33.5q0 32 23 55
t55 23q26 0 41.5 -15t15.5 -39q0 -51 -31 -101.5t-73 -85.5q-9 -6 -23 -6q-15 0 -19 6q74 64 83 122z" />
    <glyph glyph-name="uni1E60" unicode="&#x1e60;" horiz-adv-x="642" 
d="M151 11q-55 20 -84.5 55.5t-29.5 80.5q0 44 21.5 68.5t61.5 25.5q-4 -30 -4 -41q0 -68 45 -104t130 -36q102 0 158 37.5t56 106.5q0 43 -41 69.5t-141 49.5q-113 25 -164 65.5t-51 104.5t35.5 113t100 76t148.5 27q66 0 117.5 -18t80 -50.5t28.5 -74.5q0 -40 -20 -61.5
t-58 -22.5q1 8 1 22q0 137 -160 137q-88 0 -139.5 -36.5t-51.5 -98.5q0 -42 36.5 -67.5t123.5 -45.5q126 -28 180.5 -68.5t54.5 -106.5q0 -69 -37.5 -120.5t-106.5 -79t-162 -27.5q-73 0 -128 20zM375 791q-12 11 -12 29q0 25 18 42t43 17q19 0 30 -11t11 -29
q0 -24 -17.5 -41.5t-41.5 -17.5q-19 0 -31 11z" />
    <glyph glyph-name="uni1E62" unicode="&#x1e62;" horiz-adv-x="642" 
d="M151 11q-55 20 -84.5 55.5t-29.5 80.5q0 44 21.5 68.5t61.5 25.5q-4 -30 -4 -41q0 -68 45 -104t130 -36q102 0 158 37.5t56 106.5q0 43 -41 69.5t-141 49.5q-113 25 -164 65.5t-51 104.5t35.5 113t100 76t148.5 27q66 0 117.5 -18t80 -50.5t28.5 -74.5q0 -40 -20 -61.5
t-58 -22.5q1 8 1 22q0 137 -160 137q-88 0 -139.5 -36.5t-51.5 -98.5q0 -42 36.5 -67.5t123.5 -45.5q126 -28 180.5 -68.5t54.5 -106.5q0 -69 -37.5 -120.5t-106.5 -79t-162 -27.5q-73 0 -128 20zM216 -161q-12 11 -12 29q0 24 18 41.5t43 17.5q18 0 29.5 -11.5t11.5 -28.5
q0 -24 -17.5 -41.5t-41.5 -17.5q-19 0 -31 11z" />
    <glyph glyph-name="uni1E9E" unicode="&#x1e9e;" horiz-adv-x="601" 
d="M478 542q1 6 1 18q0 41 -31.5 62t-92.5 21q-139 0 -169 -160l-77 -430q-12 -62 -87 -62l89 492q19 109 84.5 167.5t168.5 58.5q88 0 141.5 -41t53.5 -107q0 -18 -2 -28l-156 -135q146 -31 146 -159q0 -72 -31 -128.5t-87 -88t-129 -31.5q-52 0 -84 16.5t-32 42.5
q0 18 13 33q14 -12 43 -19t65 -7q73 0 116.5 49t43.5 129q0 51 -35.5 76.5t-118.5 32.5l10 61z" />
    <glyph glyph-name="uni018F" unicode="&#x18f;" horiz-adv-x="674" 
d="M158.5 18q-54.5 27 -85 75t-30.5 108q0 23 4 43l15 87q3 18 20.5 32t36.5 14h431l15 83q4 20 4 42q0 134 -173 134q-91 0 -153.5 -43t-74.5 -113q-25 0 -39.5 13.5t-14.5 36.5q0 47 40 88.5t107.5 66t144.5 24.5q113 0 178.5 -55t65.5 -148q0 -26 -4 -47l-37 -213
q-13 -76 -58.5 -133.5t-115 -89.5t-152.5 -32q-70 0 -124.5 27zM448 111q63 48 78 128l12 68h-400l-12 -68q-3 -19 -3 -36q0 -66 45.5 -103t127.5 -37q89 0 152 48z" />
    <glyph glyph-name="T" unicode="T" horiz-adv-x="645" 
d="M349 629h-245q6 35 26.5 53t54.5 18h501q-14 -71 -81 -71h-176l-100 -568q-6 -34 -30 -52t-62 -18z" />
    <glyph glyph-name="Tbar" unicode="&#x166;" horiz-adv-x="645" 
d="M686 700q-14 -71 -81 -71h-176l-39 -224h126q-5 -30 -21.5 -46t-41.5 -16h-74l-50 -282q-6 -34 -30 -52t-62 -18l62 352h-128q5 31 21.5 46.5t41.5 15.5h76l39 224h-245q6 35 26.5 53t54.5 18h501z" />
    <glyph glyph-name="Tcaron" unicode="&#x164;" horiz-adv-x="645" 
d="M349 629h-245q6 35 26.5 53t54.5 18h501q-14 -71 -81 -71h-176l-100 -568q-6 -34 -30 -52t-62 -18zM521 926q15 15 40 15q29 0 41 -19l-161 -143q-13 -11 -27 -11q-15 0 -23 11l-111 143q19 19 49 19q25 0 35 -15l62 -93z" />
    <glyph glyph-name="uni0162" unicode="&#x162;" horiz-adv-x="645" 
d="M171.5 -200q-23.5 15 -23.5 37q0 20 14 32q23 -35 69 -35q26 0 41.5 13t15.5 35q0 15 -11 23t-29 8t-36 -6q-8 -3 -14.5 2.5t-6.5 14.5t5 15l42 56l111 634h-244q12 71 80 71h501q-14 -71 -81 -71h-176l-103 -585q-5 -26 -19.5 -49.5t-32.5 -39.5q38 0 58 -18.5t20 -47.5
q0 -44 -34 -74t-86 -30q-37 0 -60.5 15z" />
    <glyph glyph-name="uni021A" unicode="&#x21a;" horiz-adv-x="645" 
d="M349 629h-245q6 35 26.5 53t54.5 18h501q-14 -71 -81 -71h-176l-100 -568q-6 -34 -30 -52t-62 -18zM261 -168q-4 -2 -10 -3.5t-13 -1.5q-23 0 -36 12.5t-13 33.5q0 32 23 55t55 23q26 0 41.5 -15t15.5 -39q0 -51 -31 -101.5t-73 -85.5q-9 -6 -23 -6q-15 0 -19 6
q74 64 83 122z" />
    <glyph glyph-name="uni1E6C" unicode="&#x1e6c;" horiz-adv-x="645" 
d="M349 629h-245q6 35 26.5 53t54.5 18h501q-14 -71 -81 -71h-176l-100 -568q-6 -34 -30 -52t-62 -18zM217 -159q-12 11 -12 29q0 24 18 41.5t43 17.5q18 0 29.5 -11.5t11.5 -28.5q0 -24 -17.5 -41.5t-41.5 -17.5q-19 0 -31 11z" />
    <glyph glyph-name="uni1E6E" unicode="&#x1e6e;" horiz-adv-x="645" 
d="M349 629h-245q6 35 26.5 53t54.5 18h501q-14 -71 -81 -71h-176l-100 -568q-6 -34 -30 -52t-62 -18zM174 -59h249q-5 -29 -24 -45.5t-49 -16.5h-249q11 62 73 62z" />
    <glyph glyph-name="U" unicode="U" horiz-adv-x="685" 
d="M173.5 17q-53.5 26 -83.5 71.5t-30 103.5q0 12 4 40l72 407q6 34 30 52t62 18l-84 -477q-3 -19 -3 -37q0 -63 43.5 -97.5t124.5 -34.5q91 0 150.5 44.5t73.5 124.5l71 407q6 34 30 52t62 18l-84 -477q-12 -72 -56 -126.5t-111 -84.5t-149 -30q-69 0 -122.5 26z" />
    <glyph glyph-name="Uacute" unicode="&#xda;" horiz-adv-x="685" 
d="M173.5 17q-53.5 26 -83.5 71.5t-30 103.5q0 12 4 40l72 407q6 34 30 52t62 18l-84 -477q-3 -19 -3 -37q0 -63 43.5 -97.5t124.5 -34.5q91 0 150.5 44.5t73.5 124.5l71 407q6 34 30 52t62 18l-84 -477q-12 -72 -56 -126.5t-111 -84.5t-149 -30q-69 0 -122.5 26zM490 898
q22 31 77 31h48l-139 -145q-13 -13 -27 -16.5t-53 -2.5z" />
    <glyph glyph-name="Ubreve" unicode="&#x16c;" horiz-adv-x="685" 
d="M173.5 17q-53.5 26 -83.5 71.5t-30 103.5q0 12 4 40l72 407q6 34 30 52t62 18l-84 -477q-3 -19 -3 -37q0 -63 43.5 -97.5t124.5 -34.5q91 0 150.5 44.5t73.5 124.5l71 407q6 34 30 52t62 18l-84 -477q-12 -72 -56 -126.5t-111 -84.5t-149 -30q-69 0 -122.5 26zM339.5 794
q-41.5 29 -41.5 78q0 36 20 55.5t56 19.5q-4 -20 -4 -40q0 -79 77 -79q94 0 115 119q29 0 42.5 -12t13.5 -31q0 -35 -26 -67t-68 -52t-88 -20q-55 0 -96.5 29z" />
    <glyph glyph-name="uni01D3" unicode="&#x1d3;" horiz-adv-x="685" 
d="M173.5 17q-53.5 26 -83.5 71.5t-30 103.5q0 12 4 40l72 407q6 34 30 52t62 18l-84 -477q-3 -19 -3 -37q0 -63 43.5 -97.5t124.5 -34.5q91 0 150.5 44.5t73.5 124.5l71 407q6 34 30 52t62 18l-84 -477q-12 -72 -56 -126.5t-111 -84.5t-149 -30q-69 0 -122.5 26zM543 926
q15 15 40 15q29 0 41 -19l-161 -143q-13 -11 -27 -11q-15 0 -23 11l-111 143q19 19 49 19q25 0 35 -15l62 -93z" />
    <glyph glyph-name="Ucircumflex" unicode="&#xdb;" horiz-adv-x="685" 
d="M173.5 17q-53.5 26 -83.5 71.5t-30 103.5q0 12 4 40l72 407q6 34 30 52t62 18l-84 -477q-3 -19 -3 -37q0 -63 43.5 -97.5t124.5 -34.5q91 0 150.5 44.5t73.5 124.5l71 407q6 34 30 52t62 18l-84 -477q-12 -72 -56 -126.5t-111 -84.5t-149 -30q-69 0 -122.5 26zM321 769
q-13 0 -24 5t-17 14l161 143q13 11 27 11q13 0 22 -11l112 -143q-20 -20 -50 -20q-23 0 -34 15l-62 94l-95 -94q-16 -14 -40 -14z" />
    <glyph glyph-name="Udieresis" unicode="&#xdc;" horiz-adv-x="685" 
d="M173.5 17q-53.5 26 -83.5 71.5t-30 103.5q0 12 4 40l72 407q6 34 30 52t62 18l-84 -477q-3 -19 -3 -37q0 -63 43.5 -97.5t124.5 -34.5q91 0 150.5 44.5t73.5 124.5l71 407q6 34 30 52t62 18l-84 -477q-12 -72 -56 -126.5t-111 -84.5t-149 -30q-69 0 -122.5 26zM314.5 791
q-11.5 11 -11.5 28q0 25 17.5 42.5t42.5 17.5q19 0 30 -11t11 -29q0 -24 -17 -41.5t-42 -17.5q-19 0 -30.5 11zM501.5 791q-11.5 11 -11.5 28q0 25 17.5 42.5t42.5 17.5q19 0 30.5 -11t11.5 -29q0 -24 -17.5 -41.5t-42.5 -17.5q-19 0 -30.5 11z" />
    <glyph glyph-name="uni01D7" unicode="&#x1d7;" horiz-adv-x="685" 
d="M173.5 17q-53.5 26 -83.5 71.5t-30 103.5q0 12 4 40l72 407q6 34 30 52t62 18l-84 -477q-3 -19 -3 -37q0 -63 43.5 -97.5t124.5 -34.5q91 0 150.5 44.5t73.5 124.5l71 407q6 34 30 52t62 18l-84 -477q-12 -72 -56 -126.5t-111 -84.5t-149 -30q-69 0 -122.5 26zM504 1019
q10 15 26.5 21.5t42.5 6.5h35l-106 -114q-11 -12 -23 -15.5t-46 -2.5zM313 791q-12 11 -12 28q0 25 18 42.5t43 17.5q19 0 30 -11t11 -29q0 -24 -17.5 -41.5t-41.5 -17.5q-19 0 -31 11zM500.5 791q-11.5 11 -11.5 28q0 25 17.5 42.5t42.5 17.5q19 0 30 -11t11 -29
q0 -24 -17.5 -41.5t-41.5 -17.5q-19 0 -30.5 11z" />
    <glyph glyph-name="uni01D9" unicode="&#x1d9;" horiz-adv-x="685" 
d="M173.5 17q-53.5 26 -83.5 71.5t-30 103.5q0 12 4 40l72 407q6 34 30 52t62 18l-84 -477q-3 -19 -3 -37q0 -63 43.5 -97.5t124.5 -34.5q91 0 150.5 44.5t73.5 124.5l71 407q6 34 30 52t62 18l-84 -477q-12 -72 -56 -126.5t-111 -84.5t-149 -30q-69 0 -122.5 26zM557 1034
q15 15 39 15q27 0 39 -19l-152 -133q-15 -11 -26 -11t-22 11l-106 133q19 19 46 19q24 0 34 -15l59 -85zM313.5 790.5q-11.5 10.5 -11.5 28.5q0 25 17.5 42.5t43.5 17.5q19 0 30 -11t11 -29q0 -24 -17.5 -41.5t-41.5 -17.5q-20 0 -31.5 10.5zM501.5 791q-11.5 11 -11.5 28
q0 25 17.5 42.5t42.5 17.5q19 0 30 -11t11 -29q0 -24 -17.5 -41.5t-41.5 -17.5q-19 0 -30.5 11z" />
    <glyph glyph-name="uni01DB" unicode="&#x1db;" horiz-adv-x="685" 
d="M173.5 17q-53.5 26 -83.5 71.5t-30 103.5q0 12 4 40l72 407q6 34 30 52t62 18l-84 -477q-3 -19 -3 -37q0 -63 43.5 -97.5t124.5 -34.5q91 0 150.5 44.5t73.5 124.5l71 407q6 34 30 52t62 18l-84 -477q-12 -72 -56 -126.5t-111 -84.5t-149 -30q-69 0 -122.5 26zM446 917.5
q-12 3.5 -19 15.5l-66 114h34q26 0 40 -7t19 -21l35 -104q-31 -1 -43 2.5zM311.5 791q-11.5 11 -11.5 28q0 25 17.5 42.5t42.5 17.5q19 0 30.5 -11t11.5 -29q0 -24 -17.5 -41.5t-42.5 -17.5q-19 0 -30.5 11zM499 791q-11 11 -11 28q0 25 17.5 42.5t41.5 17.5q19 0 30.5 -11
t11.5 -29q0 -24 -17.5 -41.5t-42.5 -17.5q-19 0 -30 11z" />
    <glyph glyph-name="uni01D5" unicode="&#x1d5;" horiz-adv-x="685" 
d="M173.5 17q-53.5 26 -83.5 71.5t-30 103.5q0 12 4 40l72 407q6 34 30 52t62 18l-84 -477q-3 -19 -3 -37q0 -63 43.5 -97.5t124.5 -34.5q91 0 150.5 44.5t73.5 124.5l71 407q6 34 30 52t62 18l-84 -477q-12 -72 -56 -126.5t-111 -84.5t-149 -30q-69 0 -122.5 26zM314.5 791
q-11.5 11 -11.5 28q0 25 17.5 42.5t42.5 17.5q19 0 30 -11t11 -29q0 -24 -17 -41.5t-42 -17.5q-19 0 -30.5 11zM501.5 791q-11.5 11 -11.5 28q0 25 17.5 42.5t42.5 17.5q19 0 30.5 -11t11.5 -29q0 -24 -17.5 -41.5t-42.5 -17.5q-19 0 -30.5 11zM334.5 985q18.5 16 49.5 16
h249q-5 -30 -24 -46t-49 -16h-249q5 30 23.5 46z" />
    <glyph glyph-name="uni1EE4" unicode="&#x1ee4;" horiz-adv-x="685" 
d="M173.5 17q-53.5 26 -83.5 71.5t-30 103.5q0 12 4 40l72 407q6 34 30 52t62 18l-84 -477q-3 -19 -3 -37q0 -63 43.5 -97.5t124.5 -34.5q91 0 150.5 44.5t73.5 124.5l71 407q6 34 30 52t62 18l-84 -477q-12 -72 -56 -126.5t-111 -84.5t-149 -30q-69 0 -122.5 26zM241 -159
q-12 11 -12 29q0 24 18 41.5t43 17.5q18 0 29.5 -11.5t11.5 -28.5q0 -24 -17.5 -41.5t-41.5 -17.5q-19 0 -31 11z" />
    <glyph glyph-name="Ugrave" unicode="&#xd9;" horiz-adv-x="685" 
d="M173.5 17q-53.5 26 -83.5 71.5t-30 103.5q0 12 4 40l72 407q6 34 30 52t62 18l-84 -477q-3 -19 -3 -37q0 -63 43.5 -97.5t124.5 -34.5q91 0 150.5 44.5t73.5 124.5l71 407q6 34 30 52t62 18l-84 -477q-12 -72 -56 -126.5t-111 -84.5t-149 -30q-69 0 -122.5 26zM429 767.5
q-13 3.5 -21 16.5l-92 145h48q27 0 43 -7t22 -23l51 -134q-38 -1 -51 2.5z" />
    <glyph glyph-name="uni1EE6" unicode="&#x1ee6;" horiz-adv-x="685" 
d="M173.5 17q-53.5 26 -83.5 71.5t-30 103.5q0 12 4 40l72 407q6 34 30 52t62 18l-84 -477q-3 -19 -3 -37q0 -63 43.5 -97.5t124.5 -34.5q91 0 150.5 44.5t73.5 124.5l71 407q6 34 30 52t62 18l-84 -477q-12 -72 -56 -126.5t-111 -84.5t-149 -30q-69 0 -122.5 26zM417 794
q3 18 13 29.5t28 26.5q16 12 24 22t8 25q0 21 -30 21q-20 0 -31.5 -13t-11.5 -36v-6q-24 0 -38 8t-14 23q0 29 32 52t74 23q37 0 60 -15.5t23 -44.5q0 -26 -10.5 -40.5t-30.5 -28.5q-16 -12 -24 -21t-11 -23t-14.5 -21.5t-28.5 -7.5q-11 0 -23 3z" />
    <glyph glyph-name="Uhorn" unicode="&#x1af;" horiz-adv-x="735" 
d="M778 635q-40 -42 -106 -61l-60 -342q-12 -72 -56 -126.5t-111 -84.5t-149 -30q-69 0 -122.5 26t-83.5 71.5t-30 103.5q0 12 4 40l72 407q6 34 30 52t62 18l-84 -477q-3 -19 -3 -37q0 -63 43.5 -97.5t124.5 -34.5q91 0 150.5 44.5t73.5 124.5l71 407q6 34 30 52t62 18
l-14 -82q35 19 50 49.5t27 96.5q59 0 59 -45q0 -51 -40 -93z" />
    <glyph glyph-name="uni1EE8" unicode="&#x1ee8;" horiz-adv-x="735" 
d="M778 635q-40 -42 -106 -61l-60 -342q-12 -72 -56 -126.5t-111 -84.5t-149 -30q-69 0 -122.5 26t-83.5 71.5t-30 103.5q0 12 4 40l72 407q6 34 30 52t62 18l-84 -477q-3 -19 -3 -37q0 -63 43.5 -97.5t124.5 -34.5q91 0 150.5 44.5t73.5 124.5l71 407q6 34 30 52t62 18
l-14 -82q35 19 50 49.5t27 96.5q59 0 59 -45q0 -51 -40 -93zM491 898q22 31 77 31h48l-139 -145q-13 -13 -27 -16.5t-53 -2.5z" />
    <glyph glyph-name="uni1EF0" unicode="&#x1ef0;" horiz-adv-x="735" 
d="M778 635q-40 -42 -106 -61l-60 -342q-12 -72 -56 -126.5t-111 -84.5t-149 -30q-69 0 -122.5 26t-83.5 71.5t-30 103.5q0 12 4 40l72 407q6 34 30 52t62 18l-84 -477q-3 -19 -3 -37q0 -63 43.5 -97.5t124.5 -34.5q91 0 150.5 44.5t73.5 124.5l71 407q6 34 30 52t62 18
l-14 -82q35 19 50 49.5t27 96.5q59 0 59 -45q0 -51 -40 -93zM242 -159q-12 11 -12 29q0 24 18 41.5t43 17.5q18 0 29.5 -11.5t11.5 -28.5q0 -24 -17.5 -41.5t-41.5 -17.5q-19 0 -31 11z" />
    <glyph glyph-name="uni1EEA" unicode="&#x1eea;" horiz-adv-x="735" 
d="M778 635q-40 -42 -106 -61l-60 -342q-12 -72 -56 -126.5t-111 -84.5t-149 -30q-69 0 -122.5 26t-83.5 71.5t-30 103.5q0 12 4 40l72 407q6 34 30 52t62 18l-84 -477q-3 -19 -3 -37q0 -63 43.5 -97.5t124.5 -34.5q91 0 150.5 44.5t73.5 124.5l71 407q6 34 30 52t62 18
l-14 -82q35 19 50 49.5t27 96.5q59 0 59 -45q0 -51 -40 -93zM430 767.5q-13 3.5 -21 16.5l-92 145h48q27 0 43 -7t22 -23l51 -134q-38 -1 -51 2.5z" />
    <glyph glyph-name="uni1EEC" unicode="&#x1eec;" horiz-adv-x="735" 
d="M778 635q-40 -42 -106 -61l-60 -342q-12 -72 -56 -126.5t-111 -84.5t-149 -30q-69 0 -122.5 26t-83.5 71.5t-30 103.5q0 12 4 40l72 407q6 34 30 52t62 18l-84 -477q-3 -19 -3 -37q0 -63 43.5 -97.5t124.5 -34.5q91 0 150.5 44.5t73.5 124.5l71 407q6 34 30 52t62 18
l-14 -82q35 19 50 49.5t27 96.5q59 0 59 -45q0 -51 -40 -93zM417 794q3 18 13 29.5t28 26.5q16 12 24 22t8 25q0 21 -30 21q-20 0 -31.5 -13t-11.5 -36v-6q-24 0 -38 8t-14 23q0 29 32 52t74 23q37 0 60 -15.5t23 -44.5q0 -26 -10.5 -40.5t-30.5 -28.5q-16 -12 -24 -21
t-11 -23t-14.5 -21.5t-28.5 -7.5q-11 0 -23 3z" />
    <glyph glyph-name="uni1EEE" unicode="&#x1eee;" horiz-adv-x="735" 
d="M778 635q-40 -42 -106 -61l-60 -342q-12 -72 -56 -126.5t-111 -84.5t-149 -30q-69 0 -122.5 26t-83.5 71.5t-30 103.5q0 12 4 40l72 407q6 34 30 52t62 18l-84 -477q-3 -19 -3 -37q0 -63 43.5 -97.5t124.5 -34.5q91 0 150.5 44.5t73.5 124.5l71 407q6 34 30 52t62 18
l-14 -82q35 19 50 49.5t27 96.5q59 0 59 -45q0 -51 -40 -93zM304.5 780q-9.5 11 -9.5 28q0 34 27.5 58t66.5 24q24 0 41 -9.5t37 -27.5q15 -13 24.5 -19t20.5 -6q16 0 26 10t10 29q0 9 -3 19q8 4 20 4q15 0 24 -11.5t9 -28.5q0 -34 -26.5 -57.5t-64.5 -23.5q-22 0 -38.5 9.5
t-36.5 27.5q-16 14 -26 20.5t-22 6.5q-18 0 -28.5 -10.5t-10.5 -29.5q0 -12 4 -20q-9 -4 -20 -4q-15 0 -24.5 11z" />
    <glyph glyph-name="Uhungarumlaut" unicode="&#x170;" horiz-adv-x="685" 
d="M173.5 17q-53.5 26 -83.5 71.5t-30 103.5q0 12 4 40l72 407q6 34 30 52t62 18l-84 -477q-3 -19 -3 -37q0 -63 43.5 -97.5t124.5 -34.5q91 0 150.5 44.5t73.5 124.5l71 407q6 34 30 52t62 18l-84 -477q-12 -72 -56 -126.5t-111 -84.5t-149 -30q-69 0 -122.5 26zM402 899
q24 30 76 30h46l-143 -145q-12 -13 -26.5 -16.5t-50.5 -2.5zM580 899q21 30 76 30h46l-140 -145q-11 -13 -25.5 -16.5t-51.5 -2.5z" />
    <glyph glyph-name="Umacron" unicode="&#x16a;" horiz-adv-x="685" 
d="M173.5 17q-53.5 26 -83.5 71.5t-30 103.5q0 12 4 40l72 407q6 34 30 52t62 18l-84 -477q-3 -19 -3 -37q0 -63 43.5 -97.5t124.5 -34.5q91 0 150.5 44.5t73.5 124.5l71 407q6 34 30 52t62 18l-84 -477q-12 -72 -56 -126.5t-111 -84.5t-149 -30q-69 0 -122.5 26zM308.5 836
q18.5 16 49.5 16h249q-5 -30 -24 -46t-49 -16h-249q5 30 23.5 46z" />
    <glyph glyph-name="Uogonek" unicode="&#x172;" horiz-adv-x="685" 
d="M634 691q24 18 62 18l-84 -477q-16 -97 -87.5 -160.5t-177.5 -77.5q-36 -26 -57.5 -57t-21.5 -60q0 -15 9 -24t25 -9q24 0 42 19q2 -9 1 -14q-1 -20 -23.5 -35.5t-53.5 -15.5q-33 0 -52 17.5t-19 46.5q0 33 29.5 69.5t74.5 59.5h-5q-69 0 -122.5 26t-83.5 71.5t-30 103.5
q0 12 4 40l72 407q6 34 30 52t62 18l-84 -477q-3 -19 -3 -37q0 -63 43.5 -97.5t124.5 -34.5q91 0 150.5 44.5t73.5 124.5l71 407q6 34 30 52z" />
    <glyph glyph-name="Uring" unicode="&#x16e;" horiz-adv-x="685" 
d="M173.5 17q-53.5 26 -83.5 71.5t-30 103.5q0 12 4 40l72 407q6 34 30 52t62 18l-84 -477q-3 -19 -3 -37q0 -63 43.5 -97.5t124.5 -34.5q91 0 150.5 44.5t73.5 124.5l71 407q6 34 30 52t62 18l-84 -477q-12 -72 -56 -126.5t-111 -84.5t-149 -30q-69 0 -122.5 26z
M366.5 767.5q-24.5 21.5 -24.5 57.5q0 49 36.5 82.5t88.5 33.5q40 0 64 -21.5t24 -57.5q0 -49 -36 -82.5t-87 -33.5q-41 0 -65.5 21.5zM485 810.5q18 18.5 18 43.5q0 19 -12.5 30.5t-31.5 11.5q-26 0 -44 -18.5t-18 -45.5q0 -19 12 -29.5t32 -10.5q26 0 44 18.5z" />
    <glyph glyph-name="Utilde" unicode="&#x168;" horiz-adv-x="685" 
d="M173.5 17q-53.5 26 -83.5 71.5t-30 103.5q0 12 4 40l72 407q6 34 30 52t62 18l-84 -477q-3 -19 -3 -37q0 -63 43.5 -97.5t124.5 -34.5q91 0 150.5 44.5t73.5 124.5l71 407q6 34 30 52t62 18l-84 -477q-12 -72 -56 -126.5t-111 -84.5t-149 -30q-69 0 -122.5 26zM303.5 780
q-9.5 11 -9.5 28q0 34 27.5 58t66.5 24q24 0 41 -9.5t37 -27.5q15 -13 24.5 -19t20.5 -6q16 0 26 10t10 29q0 9 -3 19q8 4 20 4q15 0 24 -11.5t9 -28.5q0 -34 -26.5 -57.5t-64.5 -23.5q-22 0 -38.5 9.5t-36.5 27.5q-16 14 -26 20.5t-22 6.5q-18 0 -28.5 -10.5t-10.5 -29.5
q0 -12 4 -20q-9 -4 -20 -4q-15 0 -24.5 11z" />
    <glyph glyph-name="V" unicode="V" horiz-adv-x="691" 
d="M265 16l-137 686q18 7 30 7q23 0 38.5 -12.5t19.5 -33.5l99 -540l-25 -47l7 -2l316 589q11 22 31.5 34t44.5 12q19 0 33 -7l-380 -686q-15 -25 -43 -25t-34 25z" />
    <glyph glyph-name="W" unicode="W" horiz-adv-x="923" 
d="M200.5 7q-18.5 16 -20.5 44l-52 651q11 7 30 7q26 0 42.5 -13.5t17.5 -35.5l27 -509l-23 -52l5 -2l274 586q5 12 16 19t25 7q13 0 21.5 -7t9.5 -19l57 -534l-22 -54l6 -2l235 567q10 22 30.5 35.5t44.5 13.5q19 0 30 -7l-282 -651q-25 -60 -86 -60l-68 623l-6 -1l5 -43
l-267 -579q-31 0 -49.5 16z" />
    <glyph glyph-name="Wacute" unicode="&#x1e82;" horiz-adv-x="923" 
d="M200.5 7q-18.5 16 -20.5 44l-52 651q11 7 30 7q26 0 42.5 -13.5t17.5 -35.5l27 -509l-23 -52l5 -2l274 586q5 12 16 19t25 7q13 0 21.5 -7t9.5 -19l57 -534l-22 -54l6 -2l235 567q10 22 30.5 35.5t44.5 13.5q19 0 30 -7l-282 -651q-25 -60 -86 -60l-68 623l-6 -1l5 -43
l-267 -579q-31 0 -49.5 16zM607 898q22 31 77 31h48l-139 -145q-13 -13 -27 -16.5t-53 -2.5z" />
    <glyph glyph-name="Wcircumflex" unicode="&#x174;" horiz-adv-x="923" 
d="M200.5 7q-18.5 16 -20.5 44l-52 651q11 7 30 7q26 0 42.5 -13.5t17.5 -35.5l27 -509l-23 -52l5 -2l274 586q5 12 16 19t25 7q13 0 21.5 -7t9.5 -19l57 -534l-22 -54l6 -2l235 567q10 22 30.5 35.5t44.5 13.5q19 0 30 -7l-282 -651q-25 -60 -86 -60l-68 623l-6 -1l5 -43
l-267 -579q-31 0 -49.5 16zM438 769q-13 0 -24 5t-17 14l161 143q13 11 27 11q13 0 22 -11l112 -143q-20 -20 -50 -20q-23 0 -34 15l-62 94l-95 -94q-16 -14 -40 -14z" />
    <glyph glyph-name="Wdieresis" unicode="&#x1e84;" horiz-adv-x="923" 
d="M200.5 7q-18.5 16 -20.5 44l-52 651q11 7 30 7q26 0 42.5 -13.5t17.5 -35.5l27 -509l-23 -52l5 -2l274 586q5 12 16 19t25 7q13 0 21.5 -7t9.5 -19l57 -534l-22 -54l6 -2l235 567q10 22 30.5 35.5t44.5 13.5q19 0 30 -7l-282 -651q-25 -60 -86 -60l-68 623l-6 -1l5 -43
l-267 -579q-31 0 -49.5 16zM431.5 791q-11.5 11 -11.5 28q0 25 17.5 42.5t42.5 17.5q19 0 30 -11t11 -29q0 -24 -17 -41.5t-42 -17.5q-19 0 -30.5 11zM618.5 791q-11.5 11 -11.5 28q0 25 17.5 42.5t42.5 17.5q19 0 30.5 -11t11.5 -29q0 -24 -17.5 -41.5t-42.5 -17.5
q-19 0 -30.5 11z" />
    <glyph glyph-name="Wgrave" unicode="&#x1e80;" horiz-adv-x="923" 
d="M200.5 7q-18.5 16 -20.5 44l-52 651q11 7 30 7q26 0 42.5 -13.5t17.5 -35.5l27 -509l-23 -52l5 -2l274 586q5 12 16 19t25 7q13 0 21.5 -7t9.5 -19l57 -534l-22 -54l6 -2l235 567q10 22 30.5 35.5t44.5 13.5q19 0 30 -7l-282 -651q-25 -60 -86 -60l-68 623l-6 -1l5 -43
l-267 -579q-31 0 -49.5 16zM546 767.5q-13 3.5 -21 16.5l-92 145h48q27 0 43 -7t22 -23l51 -134q-38 -1 -51 2.5z" />
    <glyph glyph-name="X" unicode="X" horiz-adv-x="689" 
d="M5 7l315 354l-181 334q23 14 41 14q17 0 32 -7.5t22 -20.5l134 -254l-27 -29l5 -4l254 287q25 28 63 28q11 0 23 -4t19 -10l-297 -334l189 -354q-22 -16 -43 -16q-16 0 -29 8t-20 22l-149 281l-248 -281q-28 -30 -60 -30q-27 0 -43 16z" />
    <glyph glyph-name="Y" unicode="Y" horiz-adv-x="676" 
d="M298 255l-172 443q19 11 40 11q41 0 55 -36l124 -343l-26 -37l6 -4l271 384q25 36 68 36q12 0 23.5 -3t17.5 -8l-328 -443l-34 -194q-6 -34 -30 -52t-62 -18z" />
    <glyph glyph-name="Yacute" unicode="&#xdd;" horiz-adv-x="676" 
d="M298 255l-172 443q19 11 40 11q41 0 55 -36l124 -343l-26 -37l6 -4l271 384q25 36 68 36q12 0 23.5 -3t17.5 -8l-328 -443l-34 -194q-6 -34 -30 -52t-62 -18zM484 898q22 31 77 31h48l-139 -145q-13 -13 -27 -16.5t-53 -2.5z" />
    <glyph glyph-name="Ycircumflex" unicode="&#x176;" horiz-adv-x="676" 
d="M298 255l-172 443q19 11 40 11q41 0 55 -36l124 -343l-26 -37l6 -4l271 384q25 36 68 36q12 0 23.5 -3t17.5 -8l-328 -443l-34 -194q-6 -34 -30 -52t-62 -18zM315 769q-13 0 -24 5t-17 14l161 143q13 11 27 11q13 0 22 -11l112 -143q-20 -20 -50 -20q-23 0 -34 15l-62 94
l-95 -94q-16 -14 -40 -14z" />
    <glyph glyph-name="Ydieresis" unicode="&#x178;" horiz-adv-x="676" 
d="M298 255l-172 443q19 11 40 11q41 0 55 -36l124 -343l-26 -37l6 -4l271 384q25 36 68 36q12 0 23.5 -3t17.5 -8l-328 -443l-34 -194q-6 -34 -30 -52t-62 -18zM308.5 791q-11.5 11 -11.5 28q0 25 17.5 42.5t42.5 17.5q19 0 30 -11t11 -29q0 -24 -17 -41.5t-42 -17.5
q-19 0 -30.5 11zM495.5 791q-11.5 11 -11.5 28q0 25 17.5 42.5t42.5 17.5q19 0 30.5 -11t11.5 -29q0 -24 -17.5 -41.5t-42.5 -17.5q-19 0 -30.5 11z" />
    <glyph glyph-name="uni1E8E" unicode="&#x1e8e;" horiz-adv-x="676" 
d="M298 255l-172 443q19 11 40 11q41 0 55 -36l124 -343l-26 -37l6 -4l271 384q25 36 68 36q12 0 23.5 -3t17.5 -8l-328 -443l-34 -194q-6 -34 -30 -52t-62 -18zM402 791q-12 11 -12 29q0 25 18 42t43 17q19 0 30 -11t11 -29q0 -24 -17.5 -41.5t-41.5 -17.5q-19 0 -31 11z
" />
    <glyph glyph-name="uni1EF4" unicode="&#x1ef4;" horiz-adv-x="676" 
d="M298 255l-172 443q19 11 40 11q41 0 55 -36l124 -343l-26 -37l6 -4l271 384q25 36 68 36q12 0 23.5 -3t17.5 -8l-328 -443l-34 -194q-6 -34 -30 -52t-62 -18zM234 -159q-12 11 -12 29q0 24 18 41.5t43 17.5q18 0 29.5 -11.5t11.5 -28.5q0 -24 -17.5 -41.5t-41.5 -17.5
q-19 0 -31 11z" />
    <glyph glyph-name="Ygrave" unicode="&#x1ef2;" horiz-adv-x="676" 
d="M298 255l-172 443q19 11 40 11q41 0 55 -36l124 -343l-26 -37l6 -4l271 384q25 36 68 36q12 0 23.5 -3t17.5 -8l-328 -443l-34 -194q-6 -34 -30 -52t-62 -18zM423 767.5q-13 3.5 -21 16.5l-92 145h48q27 0 43 -7t22 -23l51 -134q-38 -1 -51 2.5z" />
    <glyph glyph-name="uni1EF6" unicode="&#x1ef6;" horiz-adv-x="676" 
d="M298 255l-172 443q19 11 40 11q41 0 55 -36l124 -343l-26 -37l6 -4l271 384q25 36 68 36q12 0 23.5 -3t17.5 -8l-328 -443l-34 -194q-6 -34 -30 -52t-62 -18zM410 794q3 18 13 29.5t28 26.5q16 12 24 22t8 25q0 21 -30 21q-20 0 -31.5 -13t-11.5 -36v-6q-24 0 -38 8
t-14 23q0 29 32 52t74 23q37 0 60 -15.5t23 -44.5q0 -26 -10.5 -40.5t-30.5 -28.5q-16 -12 -24 -21t-11 -23t-14.5 -21.5t-28.5 -7.5q-11 0 -23 3z" />
    <glyph glyph-name="uni1EF8" unicode="&#x1ef8;" horiz-adv-x="676" 
d="M298 255l-172 443q19 11 40 11q41 0 55 -36l124 -343l-26 -37l6 -4l271 384q25 36 68 36q12 0 23.5 -3t17.5 -8l-328 -443l-34 -194q-6 -34 -30 -52t-62 -18zM297.5 780q-9.5 11 -9.5 28q0 34 27.5 58t66.5 24q24 0 41 -9.5t37 -27.5q15 -13 24.5 -19t20.5 -6q16 0 26 10
t10 29q0 9 -3 19q8 4 20 4q15 0 24 -11.5t9 -28.5q0 -34 -26.5 -57.5t-64.5 -23.5q-22 0 -38.5 9.5t-36.5 27.5q-16 14 -26 20.5t-22 6.5q-18 0 -28.5 -10.5t-10.5 -29.5q0 -12 4 -20q-9 -4 -20 -4q-15 0 -24.5 11z" />
    <glyph glyph-name="Z" unicode="Z" horiz-adv-x="678" 
d="M17.5 7.5q-8.5 7.5 -8.5 20.5q0 18 12 30l584 598l-5 4l-28 -29h-371q-55 0 -55 50q0 5 2 19h518q31 0 31 -26q0 -9 -3.5 -18t-8.5 -14l-583 -598l5 -4l29 29h397q26 0 40 -13t14 -37q0 -5 -2 -19h-545q-14 0 -22.5 7.5z" />
    <glyph glyph-name="Zacute" unicode="&#x179;" horiz-adv-x="678" 
d="M17.5 7.5q-8.5 7.5 -8.5 20.5q0 18 12 30l584 598l-5 4l-28 -29h-371q-55 0 -55 50q0 5 2 19h518q31 0 31 -26q0 -9 -3.5 -18t-8.5 -14l-583 -598l5 -4l29 29h397q26 0 40 -13t14 -37q0 -5 -2 -19h-545q-14 0 -22.5 7.5zM488 898q22 31 77 31h48l-139 -145
q-13 -13 -27 -16.5t-53 -2.5z" />
    <glyph glyph-name="Zcaron" unicode="&#x17d;" horiz-adv-x="678" 
d="M17.5 7.5q-8.5 7.5 -8.5 20.5q0 18 12 30l584 598l-5 4l-28 -29h-371q-55 0 -55 50q0 5 2 19h518q31 0 31 -26q0 -9 -3.5 -18t-8.5 -14l-583 -598l5 -4l29 29h397q26 0 40 -13t14 -37q0 -5 -2 -19h-545q-14 0 -22.5 7.5zM541 926q15 15 40 15q29 0 41 -19l-161 -143
q-13 -11 -27 -11q-15 0 -23 11l-111 143q19 19 49 19q25 0 35 -15l62 -93z" />
    <glyph glyph-name="Zdotaccent" unicode="&#x17b;" horiz-adv-x="678" 
d="M17.5 7.5q-8.5 7.5 -8.5 20.5q0 18 12 30l584 598l-5 4l-28 -29h-371q-55 0 -55 50q0 5 2 19h518q31 0 31 -26q0 -9 -3.5 -18t-8.5 -14l-583 -598l5 -4l29 29h397q26 0 40 -13t14 -37q0 -5 -2 -19h-545q-14 0 -22.5 7.5zM406 791q-12 11 -12 29q0 25 18 42t43 17
q19 0 30 -11t11 -29q0 -24 -17.5 -41.5t-41.5 -17.5q-19 0 -31 11z" />
    <glyph glyph-name="uni1E92" unicode="&#x1e92;" horiz-adv-x="678" 
d="M17.5 7.5q-8.5 7.5 -8.5 20.5q0 18 12 30l584 598l-5 4l-28 -29h-371q-55 0 -55 50q0 5 2 19h518q31 0 31 -26q0 -9 -3.5 -18t-8.5 -14l-583 -598l5 -4l29 29h397q26 0 40 -13t14 -37q0 -5 -2 -19h-545q-14 0 -22.5 7.5zM238 -159q-12 11 -12 29q0 24 18 41.5t43 17.5
q18 0 29.5 -11.5t11.5 -28.5q0 -24 -17.5 -41.5t-41.5 -17.5q-19 0 -31 11z" />
    <glyph glyph-name="a" unicode="a" horiz-adv-x="530" 
d="M75 28.5q-46 37.5 -46 97.5q0 58 29 104t81.5 71.5t120.5 25.5q97 0 148 -72l4 3q-6 10 -18 25l9 50q2 10 2 28q0 85 -110 85q-108 0 -170 -88q-11 7 -17.5 18t-6.5 22q0 29 30.5 54.5t79 41t98.5 15.5q79 0 124.5 -37.5t45.5 -102.5q0 -17 -3 -35l-51 -282
q-10 -61 -81 -61l9 49q10 9 27 26l-3 4q-81 -79 -183 -79q-73 0 -119 37.5zM331 87q45 35 45 91q0 41 -31.5 64.5t-90.5 23.5q-68 0 -109.5 -36t-41.5 -94q0 -84 111 -84q72 0 117 35z" />
    <glyph glyph-name="aacute" unicode="&#xe1;" horiz-adv-x="530" 
d="M75 28.5q-46 37.5 -46 97.5q0 58 29 104t81.5 71.5t120.5 25.5q97 0 148 -72l4 3q-6 10 -18 25l9 50q2 10 2 28q0 85 -110 85q-108 0 -170 -88q-11 7 -17.5 18t-6.5 22q0 29 30.5 54.5t79 41t98.5 15.5q79 0 124.5 -37.5t45.5 -102.5q0 -17 -3 -35l-51 -282
q-10 -61 -81 -61l9 49q10 9 27 26l-3 4q-81 -79 -183 -79q-73 0 -119 37.5zM331 87q45 35 45 91q0 41 -31.5 64.5t-90.5 23.5q-68 0 -109.5 -36t-41.5 -94q0 -84 111 -84q72 0 117 35zM374 698q22 31 77 31h48l-139 -145q-13 -13 -27 -16.5t-53 -2.5z" />
    <glyph glyph-name="abreve" unicode="&#x103;" horiz-adv-x="530" 
d="M75 28.5q-46 37.5 -46 97.5q0 58 29 104t81.5 71.5t120.5 25.5q97 0 148 -72l4 3q-6 10 -18 25l9 50q2 10 2 28q0 85 -110 85q-108 0 -170 -88q-11 7 -17.5 18t-6.5 22q0 29 30.5 54.5t79 41t98.5 15.5q79 0 124.5 -37.5t45.5 -102.5q0 -17 -3 -35l-51 -282
q-10 -61 -81 -61l9 49q10 9 27 26l-3 4q-81 -79 -183 -79q-73 0 -119 37.5zM331 87q45 35 45 91q0 41 -31.5 64.5t-90.5 23.5q-68 0 -109.5 -36t-41.5 -94q0 -84 111 -84q72 0 117 35zM223.5 594q-41.5 29 -41.5 78q0 36 20 55.5t56 19.5q-4 -20 -4 -40q0 -79 77 -79
q94 0 115 119q29 0 42.5 -12t13.5 -31q0 -35 -26 -67t-68 -52t-88 -20q-55 0 -96.5 29z" />
    <glyph glyph-name="uni1EAF" unicode="&#x1eaf;" horiz-adv-x="530" 
d="M75 28.5q-46 37.5 -46 97.5q0 58 29 104t81.5 71.5t120.5 25.5q97 0 148 -72l4 3q-6 10 -18 25l9 50q2 10 2 28q0 85 -110 85q-108 0 -170 -88q-11 7 -17.5 18t-6.5 22q0 29 30.5 54.5t79 41t98.5 15.5q79 0 124.5 -37.5t45.5 -102.5q0 -17 -3 -35l-51 -282
q-10 -61 -81 -61l9 49q10 9 27 26l-3 4q-81 -79 -183 -79q-73 0 -119 37.5zM331 87q45 35 45 91q0 41 -31.5 64.5t-90.5 23.5q-68 0 -109.5 -36t-41.5 -94q0 -84 111 -84q72 0 117 35zM378 818q11 15 27.5 22t42.5 7h34l-100 -111q-12 -12 -25 -15.5t-45 -2.5zM227.5 589
q-39.5 27 -39.5 72q0 34 18 51.5t51 17.5q-3 -18 -3 -34q0 -75 75 -75q47 0 73.5 27t36.5 82q51 0 51 -38q0 -33 -24 -63t-63.5 -48.5t-83.5 -18.5q-52 0 -91.5 27z" />
    <glyph glyph-name="uni1EB7" unicode="&#x1eb7;" horiz-adv-x="530" 
d="M75 28.5q-46 37.5 -46 97.5q0 58 29 104t81.5 71.5t120.5 25.5q97 0 148 -72l4 3q-6 10 -18 25l9 50q2 10 2 28q0 85 -110 85q-108 0 -170 -88q-11 7 -17.5 18t-6.5 22q0 29 30.5 54.5t79 41t98.5 15.5q79 0 124.5 -37.5t45.5 -102.5q0 -17 -3 -35l-51 -282
q-10 -61 -81 -61l9 49q10 9 27 26l-3 4q-81 -79 -183 -79q-73 0 -119 37.5zM331 87q45 35 45 91q0 41 -31.5 64.5t-90.5 23.5q-68 0 -109.5 -36t-41.5 -94q0 -84 111 -84q72 0 117 35zM165 -159q-12 11 -12 29q0 24 18 41.5t43 17.5q18 0 29.5 -11.5t11.5 -28.5
q0 -24 -17.5 -41.5t-41.5 -17.5q-19 0 -31 11zM223.5 594q-41.5 29 -41.5 78q0 36 20 55.5t56 19.5q-4 -20 -4 -40q0 -79 77 -79q94 0 115 119q29 0 42.5 -12t13.5 -31q0 -35 -26 -67t-68 -52t-88 -20q-55 0 -96.5 29z" />
    <glyph glyph-name="uni1EB1" unicode="&#x1eb1;" horiz-adv-x="530" 
d="M75 28.5q-46 37.5 -46 97.5q0 58 29 104t81.5 71.5t120.5 25.5q97 0 148 -72l4 3q-6 10 -18 25l9 50q2 10 2 28q0 85 -110 85q-108 0 -170 -88q-11 7 -17.5 18t-6.5 22q0 29 30.5 54.5t79 41t98.5 15.5q79 0 124.5 -37.5t45.5 -102.5q0 -17 -3 -35l-51 -282
q-10 -61 -81 -61l9 49q10 9 27 26l-3 4q-81 -79 -183 -79q-73 0 -119 37.5zM331 87q45 35 45 91q0 41 -31.5 64.5t-90.5 23.5q-68 0 -109.5 -36t-41.5 -94q0 -84 111 -84q72 0 117 35zM335 720.5q-11 3.5 -18 15.5l-66 111h35q49 0 59 -29l34 -100q-33 -1 -44 2.5z
M227.5 589q-39.5 27 -39.5 72q0 34 18 51.5t51 17.5q-3 -18 -3 -34q0 -75 75 -75q47 0 73.5 27t36.5 82q51 0 51 -38q0 -33 -24 -63t-63.5 -48.5t-83.5 -18.5q-52 0 -91.5 27z" />
    <glyph glyph-name="uni1EB3" unicode="&#x1eb3;" horiz-adv-x="530" 
d="M75 28.5q-46 37.5 -46 97.5q0 58 29 104t81.5 71.5t120.5 25.5q97 0 148 -72l4 3q-6 10 -18 25l9 50q2 10 2 28q0 85 -110 85q-108 0 -170 -88q-11 7 -17.5 18t-6.5 22q0 29 30.5 54.5t79 41t98.5 15.5q79 0 124.5 -37.5t45.5 -102.5q0 -17 -3 -35l-51 -282
q-10 -61 -81 -61l9 49q10 9 27 26l-3 4q-81 -79 -183 -79q-73 0 -119 37.5zM331 87q45 35 45 91q0 41 -31.5 64.5t-90.5 23.5q-68 0 -109.5 -36t-41.5 -94q0 -84 111 -84q72 0 117 35zM318 718q3 16 11.5 26t24.5 23q15 12 21 20t6 19q0 9 -8 13.5t-21 4.5q-17 0 -28 -10.5
t-11 -28.5q0 -5 1 -7q-45 0 -45 27q0 26 28 45t65 19q32 0 53 -13.5t21 -38.5q0 -22 -9 -34.5t-27 -27.5q-13 -11 -19 -17.5t-8 -17.5q-2 -12 -13 -18.5t-27 -6.5q-12 0 -18 2zM227.5 589q-39.5 27 -39.5 72q0 34 18 51.5t51 17.5q-3 -19 -3 -34q0 -75 75 -75q90 0 110 109
q51 0 51 -39q0 -33 -24 -63t-63.5 -48t-83.5 -18q-52 0 -91.5 27z" />
    <glyph glyph-name="uni1EB5" unicode="&#x1eb5;" horiz-adv-x="530" 
d="M75 28.5q-46 37.5 -46 97.5q0 58 29 104t81.5 71.5t120.5 25.5q97 0 148 -72l4 3q-6 10 -18 25l9 50q2 10 2 28q0 85 -110 85q-108 0 -170 -88q-11 7 -17.5 18t-6.5 22q0 29 30.5 54.5t79 41t98.5 15.5q79 0 124.5 -37.5t45.5 -102.5q0 -17 -3 -35l-51 -282
q-10 -61 -81 -61l9 49q10 9 27 26l-3 4q-81 -79 -183 -79q-73 0 -119 37.5zM331 87q45 35 45 91q0 41 -31.5 64.5t-90.5 23.5q-68 0 -109.5 -36t-41.5 -94q0 -84 111 -84q72 0 117 35zM230 769q-9 10 -9 26q0 31 25 52.5t60 21.5q22 0 37.5 -8.5t33.5 -24.5
q14 -12 22.5 -17.5t18.5 -5.5q14 0 23 9t9 24q0 9 -3 19q8 4 18 4q14 0 22.5 -11t8.5 -26q0 -30 -24.5 -51.5t-58.5 -21.5q-20 0 -34 8t-34 25q-14 13 -23.5 19t-20.5 6q-15 0 -24.5 -10.5t-9.5 -28.5q0 -4 3 -16q-3 -1 -7 -2t-10 -1q-14 0 -23 10zM227.5 589
q-39.5 27 -39.5 72q0 34 18 51.5t51 17.5q-3 -18 -3 -34q0 -75 75 -75q47 0 73.5 27t36.5 82q51 0 51 -38q0 -33 -24 -63t-63.5 -48.5t-83.5 -18.5q-52 0 -91.5 27z" />
    <glyph glyph-name="uni01CE" unicode="&#x1ce;" horiz-adv-x="530" 
d="M75 28.5q-46 37.5 -46 97.5q0 58 29 104t81.5 71.5t120.5 25.5q97 0 148 -72l4 3q-6 10 -18 25l9 50q2 10 2 28q0 85 -110 85q-108 0 -170 -88q-11 7 -17.5 18t-6.5 22q0 29 30.5 54.5t79 41t98.5 15.5q79 0 124.5 -37.5t45.5 -102.5q0 -17 -3 -35l-51 -282
q-10 -61 -81 -61l9 49q10 9 27 26l-3 4q-81 -79 -183 -79q-73 0 -119 37.5zM331 87q45 35 45 91q0 41 -31.5 64.5t-90.5 23.5q-68 0 -109.5 -36t-41.5 -94q0 -84 111 -84q72 0 117 35zM427 726q15 15 40 15q29 0 41 -19l-161 -143q-13 -11 -27 -11q-15 0 -23 11l-111 143
q19 19 49 19q25 0 35 -15l62 -93z" />
    <glyph glyph-name="acircumflex" unicode="&#xe2;" horiz-adv-x="530" 
d="M75 28.5q-46 37.5 -46 97.5q0 58 29 104t81.5 71.5t120.5 25.5q97 0 148 -72l4 3q-6 10 -18 25l9 50q2 10 2 28q0 85 -110 85q-108 0 -170 -88q-11 7 -17.5 18t-6.5 22q0 29 30.5 54.5t79 41t98.5 15.5q79 0 124.5 -37.5t45.5 -102.5q0 -17 -3 -35l-51 -282
q-10 -61 -81 -61l9 49q10 9 27 26l-3 4q-81 -79 -183 -79q-73 0 -119 37.5zM331 87q45 35 45 91q0 41 -31.5 64.5t-90.5 23.5q-68 0 -109.5 -36t-41.5 -94q0 -84 111 -84q72 0 117 35zM205 569q-13 0 -24 5t-17 14l161 143q13 11 27 11q13 0 22 -11l112 -143
q-20 -20 -50 -20q-23 0 -34 15l-62 94l-95 -94q-16 -14 -40 -14z" />
    <glyph glyph-name="uni1EA5" unicode="&#x1ea5;" horiz-adv-x="530" 
d="M75 28.5q-46 37.5 -46 97.5q0 58 29 104t81.5 71.5t120.5 25.5q97 0 148 -72l4 3q-6 10 -18 25l9 50q2 10 2 28q0 85 -110 85q-108 0 -170 -88q-11 7 -17.5 18t-6.5 22q0 29 30.5 54.5t79 41t98.5 15.5q79 0 124.5 -37.5t45.5 -102.5q0 -17 -3 -35l-51 -282
q-10 -61 -81 -61l9 49q10 9 27 26l-3 4q-81 -79 -183 -79q-73 0 -119 37.5zM331 87q45 35 45 91q0 41 -31.5 64.5t-90.5 23.5q-68 0 -109.5 -36t-41.5 -94q0 -84 111 -84q72 0 117 35zM496 819q10 15 26.5 21.5t43.5 6.5h34l-106 -114q-11 -12 -25 -15.5t-44 -2.5zM242 583
q-16 -15 -39 -15q-14 0 -25 5t-17 15l162 143q13 11 26 11q14 0 23 -11l111 -143q-9 -10 -22 -15t-27 -5q-24 0 -34 15l-62 94z" />
    <glyph glyph-name="uni1EAD" unicode="&#x1ead;" horiz-adv-x="530" 
d="M75 28.5q-46 37.5 -46 97.5q0 58 29 104t81.5 71.5t120.5 25.5q97 0 148 -72l4 3q-6 10 -18 25l9 50q2 10 2 28q0 85 -110 85q-108 0 -170 -88q-11 7 -17.5 18t-6.5 22q0 29 30.5 54.5t79 41t98.5 15.5q79 0 124.5 -37.5t45.5 -102.5q0 -17 -3 -35l-51 -282
q-10 -61 -81 -61l9 49q10 9 27 26l-3 4q-81 -79 -183 -79q-73 0 -119 37.5zM331 87q45 35 45 91q0 41 -31.5 64.5t-90.5 23.5q-68 0 -109.5 -36t-41.5 -94q0 -84 111 -84q72 0 117 35zM165 -159q-12 11 -12 29q0 24 18 41.5t43 17.5q18 0 29.5 -11.5t11.5 -28.5
q0 -24 -17.5 -41.5t-41.5 -17.5q-19 0 -31 11zM205 569q-13 0 -24 5t-17 14l161 143q13 11 27 11q13 0 22 -11l112 -143q-20 -20 -50 -20q-23 0 -34 15l-62 94l-95 -94q-16 -14 -40 -14z" />
    <glyph glyph-name="uni1EA7" unicode="&#x1ea7;" horiz-adv-x="530" 
d="M75 28.5q-46 37.5 -46 97.5q0 58 29 104t81.5 71.5t120.5 25.5q97 0 148 -72l4 3q-6 10 -18 25l9 50q2 10 2 28q0 85 -110 85q-108 0 -170 -88q-11 7 -17.5 18t-6.5 22q0 29 30.5 54.5t79 41t98.5 15.5q79 0 124.5 -37.5t45.5 -102.5q0 -17 -3 -35l-51 -282
q-10 -61 -81 -61l9 49q10 9 27 26l-3 4q-81 -79 -183 -79q-73 0 -119 37.5zM331 87q45 35 45 91q0 41 -31.5 64.5t-90.5 23.5q-68 0 -109.5 -36t-41.5 -94q0 -84 111 -84q72 0 117 35zM465.5 717.5q-11.5 3.5 -18.5 15.5l-69 114h35q25 0 39.5 -6.5t20.5 -21.5l37 -104
q-33 -1 -44.5 2.5zM243 583q-16 -15 -39 -15q-14 0 -25 5t-17 15l162 143q13 11 26 11q14 0 23 -11l111 -143q-10 -10 -23 -15t-26 -5q-25 0 -34 15l-62 94z" />
    <glyph glyph-name="uni1EA9" unicode="&#x1ea9;" horiz-adv-x="530" 
d="M75 28.5q-46 37.5 -46 97.5q0 58 29 104t81.5 71.5t120.5 25.5q97 0 148 -72l4 3q-6 10 -18 25l9 50q2 10 2 28q0 85 -110 85q-108 0 -170 -88q-11 7 -17.5 18t-6.5 22q0 29 30.5 54.5t79 41t98.5 15.5q79 0 124.5 -37.5t45.5 -102.5q0 -17 -3 -35l-51 -282
q-10 -61 -81 -61l9 49q10 9 27 26l-3 4q-81 -79 -183 -79q-73 0 -119 37.5zM331 87q45 35 45 91q0 41 -31.5 64.5t-90.5 23.5q-68 0 -109.5 -36t-41.5 -94q0 -84 111 -84q72 0 117 35zM445 711q3 16 11.5 26.5t23.5 22.5q13 10 19.5 18.5t6.5 19.5q0 8 -7.5 13t-20.5 5
q-18 0 -28.5 -10.5t-10.5 -29.5q0 -3 1 -5q-21 0 -33.5 6.5t-12.5 20.5q0 24 28.5 43.5t65.5 19.5q33 0 53.5 -13.5t20.5 -38.5q0 -22 -9 -34.5t-26 -25.5q-14 -11 -20.5 -18t-8.5 -19t-12.5 -18.5t-26.5 -6.5q-6 0 -18 2zM243 583q-16 -15 -39 -15q-14 0 -25 5t-17 15
l162 143q13 11 26 11q14 0 23 -11l111 -143q-10 -10 -23 -15t-26 -5q-25 0 -34 15l-62 94z" />
    <glyph glyph-name="uni1EAB" unicode="&#x1eab;" horiz-adv-x="530" 
d="M75 28.5q-46 37.5 -46 97.5q0 58 29 104t81.5 71.5t120.5 25.5q97 0 148 -72l4 3q-6 10 -18 25l9 50q2 10 2 28q0 85 -110 85q-108 0 -170 -88q-11 7 -17.5 18t-6.5 22q0 29 30.5 54.5t79 41t98.5 15.5q79 0 124.5 -37.5t45.5 -102.5q0 -17 -3 -35l-51 -282
q-10 -61 -81 -61l9 49q10 9 27 26l-3 4q-81 -79 -183 -79q-73 0 -119 37.5zM331 87q45 35 45 91q0 41 -31.5 64.5t-90.5 23.5q-68 0 -109.5 -36t-41.5 -94q0 -84 111 -84q72 0 117 35zM239 768q-9 10 -9 26q0 31 25 53t60 22q22 0 37.5 -8.5t33.5 -24.5q13 -11 22 -16.5
t19 -5.5q16 0 24.5 8.5t8.5 23.5q0 7 -4 19q12 4 18 4q14 0 23 -10.5t9 -25.5q0 -31 -24 -51.5t-59 -20.5q-20 0 -34.5 8t-33.5 24q-14 12 -23.5 18t-20.5 6q-16 0 -25 -11t-9 -29q0 -11 2 -16q-15 -3 -17 -3q-14 0 -23 10zM204 568q-14 0 -25 5t-17 15l162 143q13 11 26 11
q14 0 23 -11l111 -143q-10 -10 -23 -15t-26 -5q-25 0 -34 15l-62 94l-96 -94q-16 -15 -39 -15z" />
    <glyph glyph-name="adieresis" unicode="&#xe4;" horiz-adv-x="530" 
d="M75 28.5q-46 37.5 -46 97.5q0 58 29 104t81.5 71.5t120.5 25.5q97 0 148 -72l4 3q-6 10 -18 25l9 50q2 10 2 28q0 85 -110 85q-108 0 -170 -88q-11 7 -17.5 18t-6.5 22q0 29 30.5 54.5t79 41t98.5 15.5q79 0 124.5 -37.5t45.5 -102.5q0 -17 -3 -35l-51 -282
q-10 -61 -81 -61l9 49q10 9 27 26l-3 4q-81 -79 -183 -79q-73 0 -119 37.5zM331 87q45 35 45 91q0 41 -31.5 64.5t-90.5 23.5q-68 0 -109.5 -36t-41.5 -94q0 -84 111 -84q72 0 117 35zM198.5 591q-11.5 11 -11.5 28q0 25 17.5 42.5t42.5 17.5q19 0 30 -11t11 -29
q0 -24 -17 -41.5t-42 -17.5q-19 0 -30.5 11zM385.5 591q-11.5 11 -11.5 28q0 25 17.5 42.5t42.5 17.5q19 0 30.5 -11t11.5 -29q0 -24 -17.5 -41.5t-42.5 -17.5q-19 0 -30.5 11z" />
    <glyph glyph-name="uni1EA1" unicode="&#x1ea1;" horiz-adv-x="530" 
d="M75 28.5q-46 37.5 -46 97.5q0 58 29 104t81.5 71.5t120.5 25.5q97 0 148 -72l4 3q-6 10 -18 25l9 50q2 10 2 28q0 85 -110 85q-108 0 -170 -88q-11 7 -17.5 18t-6.5 22q0 29 30.5 54.5t79 41t98.5 15.5q79 0 124.5 -37.5t45.5 -102.5q0 -17 -3 -35l-51 -282
q-10 -61 -81 -61l9 49q10 9 27 26l-3 4q-81 -79 -183 -79q-73 0 -119 37.5zM331 87q45 35 45 91q0 41 -31.5 64.5t-90.5 23.5q-68 0 -109.5 -36t-41.5 -94q0 -84 111 -84q72 0 117 35zM165 -159q-12 11 -12 29q0 24 18 41.5t43 17.5q18 0 29.5 -11.5t11.5 -28.5
q0 -24 -17.5 -41.5t-41.5 -17.5q-19 0 -31 11z" />
    <glyph glyph-name="agrave" unicode="&#xe0;" horiz-adv-x="530" 
d="M75 28.5q-46 37.5 -46 97.5q0 58 29 104t81.5 71.5t120.5 25.5q97 0 148 -72l4 3q-6 10 -18 25l9 50q2 10 2 28q0 85 -110 85q-108 0 -170 -88q-11 7 -17.5 18t-6.5 22q0 29 30.5 54.5t79 41t98.5 15.5q79 0 124.5 -37.5t45.5 -102.5q0 -17 -3 -35l-51 -282
q-10 -61 -81 -61l9 49q10 9 27 26l-3 4q-81 -79 -183 -79q-73 0 -119 37.5zM331 87q45 35 45 91q0 41 -31.5 64.5t-90.5 23.5q-68 0 -109.5 -36t-41.5 -94q0 -84 111 -84q72 0 117 35zM313 567.5q-13 3.5 -21 16.5l-92 145h48q27 0 43 -7t22 -23l51 -134q-38 -1 -51 2.5z
" />
    <glyph glyph-name="uni1EA3" unicode="&#x1ea3;" horiz-adv-x="530" 
d="M75 28.5q-46 37.5 -46 97.5q0 58 29 104t81.5 71.5t120.5 25.5q97 0 148 -72l4 3q-6 10 -18 25l9 50q2 10 2 28q0 85 -110 85q-108 0 -170 -88q-11 7 -17.5 18t-6.5 22q0 29 30.5 54.5t79 41t98.5 15.5q79 0 124.5 -37.5t45.5 -102.5q0 -17 -3 -35l-51 -282
q-10 -61 -81 -61l9 49q10 9 27 26l-3 4q-81 -79 -183 -79q-73 0 -119 37.5zM331 87q45 35 45 91q0 41 -31.5 64.5t-90.5 23.5q-68 0 -109.5 -36t-41.5 -94q0 -84 111 -84q72 0 117 35zM301 594q3 18 13 29.5t28 26.5q16 12 24 22t8 25q0 21 -30 21q-20 0 -31.5 -13
t-11.5 -36v-6q-24 0 -38 8t-14 23q0 29 32 52t74 23q37 0 60 -15.5t23 -44.5q0 -26 -10.5 -40.5t-30.5 -28.5q-16 -12 -24 -21t-11 -23t-14.5 -21.5t-28.5 -7.5q-11 0 -23 3z" />
    <glyph glyph-name="uni0251" unicode="&#x251;" horiz-adv-x="550" 
d="M90 28.5q-46 37.5 -46 101.5q0 17 3 33l31 175q14 79 76 125t150 46q55 0 89 -22.5t59 -62.5l4 5q-4 7 -8.5 13.5t-8.5 13.5l2 11q8 42 81 42l-80 -452q-12 -66 -83 -66l10 57l25 25l-3 4q-38 -39 -82 -62.5t-99 -23.5q-74 0 -120 37.5zM335.5 86.5q44.5 30.5 51.5 73.5
l30 176q2 12 2 18q0 40 -31 65t-86 25q-66 0 -104 -28.5t-47 -79.5l-30 -171q-3 -15 -3 -27q0 -82 117 -82q56 0 100.5 30.5z" />
    <glyph glyph-name="amacron" unicode="&#x101;" horiz-adv-x="530" 
d="M75 28.5q-46 37.5 -46 97.5q0 58 29 104t81.5 71.5t120.5 25.5q97 0 148 -72l4 3q-6 10 -18 25l9 50q2 10 2 28q0 85 -110 85q-108 0 -170 -88q-11 7 -17.5 18t-6.5 22q0 29 30.5 54.5t79 41t98.5 15.5q79 0 124.5 -37.5t45.5 -102.5q0 -17 -3 -35l-51 -282
q-10 -61 -81 -61l9 49q10 9 27 26l-3 4q-81 -79 -183 -79q-73 0 -119 37.5zM331 87q45 35 45 91q0 41 -31.5 64.5t-90.5 23.5q-68 0 -109.5 -36t-41.5 -94q0 -84 111 -84q72 0 117 35zM192.5 636q18.5 16 49.5 16h249q-5 -30 -24 -46t-49 -16h-249q5 30 23.5 46z" />
    <glyph glyph-name="aogonek" unicode="&#x105;" horiz-adv-x="530" 
d="M433.5 471.5q45.5 -37.5 45.5 -102.5q0 -17 -3 -35l-51 -282q-8 -44 -45 -56q-33 -26 -51.5 -55t-18.5 -56q0 -15 9 -23.5t25 -8.5q25 0 43 18l1 -14q-2 -20 -25 -35.5t-53 -15.5q-33 0 -52 17.5t-19 46.5q0 34 30 71t77 60l7 39q10 9 27 26l-3 4q-81 -79 -183 -79
q-73 0 -119 37.5t-46 97.5q0 58 29 104t81.5 71.5t120.5 25.5q97 0 148 -72l4 3q-6 10 -18 25l9 50q2 10 2 28q0 85 -110 85q-108 0 -170 -88q-11 7 -17.5 18t-6.5 22q0 29 30.5 54.5t79 41t98.5 15.5q79 0 124.5 -37.5zM331 87q45 35 45 91q0 41 -31.5 64.5t-90.5 23.5
q-68 0 -109.5 -36t-41.5 -94q0 -84 111 -84q72 0 117 35z" />
    <glyph glyph-name="aring" unicode="&#xe5;" horiz-adv-x="530" 
d="M75 28.5q-46 37.5 -46 97.5q0 58 29 104t81.5 71.5t120.5 25.5q97 0 148 -72l4 3q-6 10 -18 25l9 50q2 10 2 28q0 85 -110 85q-108 0 -170 -88q-11 7 -17.5 18t-6.5 22q0 29 30.5 54.5t79 41t98.5 15.5q79 0 124.5 -37.5t45.5 -102.5q0 -17 -3 -35l-51 -282
q-10 -61 -81 -61l9 49q10 9 27 26l-3 4q-81 -79 -183 -79q-73 0 -119 37.5zM331 87q45 35 45 91q0 41 -31.5 64.5t-90.5 23.5q-68 0 -109.5 -36t-41.5 -94q0 -84 111 -84q72 0 117 35zM250.5 567.5q-24.5 21.5 -24.5 57.5q0 49 36.5 82.5t88.5 33.5q40 0 64 -21.5t24 -57.5
q0 -49 -36 -82.5t-87 -33.5q-41 0 -65.5 21.5zM369 610.5q18 18.5 18 43.5q0 19 -12.5 30.5t-31.5 11.5q-26 0 -44 -18.5t-18 -45.5q0 -19 12 -29.5t32 -10.5q26 0 44 18.5z" />
    <glyph glyph-name="aringacute" unicode="&#x1fb;" horiz-adv-x="530" 
d="M398 868q19 25 61 25h39l-111 -117q-10 -10 -21.5 -12.5t-42.5 -1.5zM250.5 567.5q-24.5 21.5 -24.5 57.5q0 49 36.5 82.5t88.5 33.5q40 0 64 -21.5t24 -57.5q0 -49 -36 -82.5t-87 -33.5q-41 0 -65.5 21.5zM369 610.5q18 18.5 18 43.5q0 19 -12.5 30.5t-31.5 11.5
q-26 0 -44 -18.5t-18 -45.5q0 -19 12 -29.5t32 -10.5q26 0 44 18.5zM75 28.5q-46 37.5 -46 97.5q0 58 29 104t81.5 71.5t120.5 25.5q97 0 148 -72l4 3q-6 10 -18 25l9 50q2 10 2 28q0 85 -110 85q-108 0 -170 -88q-11 7 -17.5 18t-6.5 22q0 29 30.5 54.5t79 41t98.5 15.5
q79 0 124.5 -37.5t45.5 -102.5q0 -17 -3 -35l-51 -282q-10 -61 -81 -61l9 49q10 9 27 26l-3 4q-81 -79 -183 -79q-73 0 -119 37.5zM331 87q45 35 45 91q0 41 -31.5 64.5t-90.5 23.5q-68 0 -109.5 -36t-41.5 -94q0 -84 111 -84q72 0 117 35z" />
    <glyph glyph-name="atilde" unicode="&#xe3;" horiz-adv-x="530" 
d="M75 28.5q-46 37.5 -46 97.5q0 58 29 104t81.5 71.5t120.5 25.5q97 0 148 -72l4 3q-6 10 -18 25l9 50q2 10 2 28q0 85 -110 85q-108 0 -170 -88q-11 7 -17.5 18t-6.5 22q0 29 30.5 54.5t79 41t98.5 15.5q79 0 124.5 -37.5t45.5 -102.5q0 -17 -3 -35l-51 -282
q-10 -61 -81 -61l9 49q10 9 27 26l-3 4q-81 -79 -183 -79q-73 0 -119 37.5zM331 87q45 35 45 91q0 41 -31.5 64.5t-90.5 23.5q-68 0 -109.5 -36t-41.5 -94q0 -84 111 -84q72 0 117 35zM187.5 580q-9.5 11 -9.5 28q0 34 27.5 58t66.5 24q24 0 41 -9.5t37 -27.5
q15 -13 24.5 -19t20.5 -6q16 0 26 10t10 29q0 9 -3 19q8 4 20 4q15 0 24 -11.5t9 -28.5q0 -34 -26.5 -57.5t-64.5 -23.5q-22 0 -38.5 9.5t-36.5 27.5q-16 14 -26 20.5t-22 6.5q-18 0 -28.5 -10.5t-10.5 -29.5q0 -12 4 -20q-9 -4 -20 -4q-15 0 -24.5 11z" />
    <glyph glyph-name="ae" unicode="&#xe6;" horiz-adv-x="848" 
d="M76 29q-47 38 -47 98q0 59 29 104.5t82 70.5t121 25q97 0 148 -72l4 3q-8 14 -18 25l9 50q2 18 2 24q0 43 -28.5 66t-82.5 23q-110 0 -169 -88q-11 8 -18 18.5t-7 21.5q0 27 30 53t78.5 42t100.5 16q55 0 92.5 -21t54.5 -61q35 40 82 61t100 21q52 0 91.5 -20t61.5 -55
t22 -79q0 -19 -2 -29l-12 -66q-2 -13 -14.5 -23t-26.5 -10h-302l-9 -54q-3 -13 -3 -26q0 -44 30.5 -68.5t85.5 -24.5q63 0 103.5 28.5t48.5 79.5q22 1 37 -10t15 -29q0 -32 -31.5 -62.5t-81.5 -50t-101 -19.5q-54 0 -92.5 21t-57.5 60q-36 -39 -88.5 -60t-114.5 -21
q-75 0 -122 38zM736 287l7 39q2 9 2 25q0 45 -30 70t-84 25q-60 0 -103 -33t-53 -87l-7 -39h268zM333.5 87.5q43.5 35.5 43.5 97.5q0 39 -31.5 60t-91.5 21q-67 0 -108.5 -36t-41.5 -94q0 -41 28 -62.5t83 -21.5q75 0 118.5 35.5z" />
    <glyph glyph-name="aeacute" unicode="&#x1fd;" horiz-adv-x="848" 
d="M76 29q-47 38 -47 98q0 59 29 104.5t82 70.5t121 25q97 0 148 -72l4 3q-8 14 -18 25l9 50q2 18 2 24q0 43 -28.5 66t-82.5 23q-110 0 -169 -88q-11 8 -18 18.5t-7 21.5q0 27 30 53t78.5 42t100.5 16q55 0 92.5 -21t54.5 -61q35 40 82 61t100 21q52 0 91.5 -20t61.5 -55
t22 -79q0 -19 -2 -29l-12 -66q-2 -13 -14.5 -23t-26.5 -10h-302l-9 -54q-3 -13 -3 -26q0 -44 30.5 -68.5t85.5 -24.5q63 0 103.5 28.5t48.5 79.5q22 1 37 -10t15 -29q0 -32 -31.5 -62.5t-81.5 -50t-101 -19.5q-54 0 -92.5 21t-57.5 60q-36 -39 -88.5 -60t-114.5 -21
q-75 0 -122 38zM736 287l7 39q2 9 2 25q0 45 -30 70t-84 25q-60 0 -103 -33t-53 -87l-7 -39h268zM333.5 87.5q43.5 35.5 43.5 97.5q0 39 -31.5 60t-91.5 21q-67 0 -108.5 -36t-41.5 -94q0 -41 28 -62.5t83 -21.5q75 0 118.5 35.5zM541 701q22 31 77 31h48l-139 -145
q-13 -13 -27 -16.5t-53 -2.5z" />
    <glyph glyph-name="b" unicode="b" horiz-adv-x="550" 
d="M143 647q12 62 85 62l-44 -248q-19 -17 -24 -23l1 -5q37 34 84 55t93 21q74 0 120 -38.5t46 -101.5q0 -14 -3 -31l-31 -175q-14 -81 -72 -126.5t-149 -45.5q-51 0 -89.5 23t-63.5 63l-3 -4l15 -25q-9 -57 -81 -57zM349.5 84.5q38.5 28.5 48.5 80.5l30 171q3 14 3 25
q0 40 -29.5 61.5t-86.5 21.5q-55 0 -100.5 -30.5t-52.5 -72.5l-31 -181q-1 -5 -1 -16q0 -38 32.5 -63t83.5 -25q65 0 103.5 28.5z" />
    <glyph glyph-name="c" unicode="c" horiz-adv-x="511" 
d="M92.5 30q-48.5 39 -48.5 103q0 15 3 30l30 170q9 51 42 91t83.5 62.5t109.5 22.5q76 0 123.5 -32t47.5 -83q0 -28 -19 -45.5t-50 -17.5q2 14 2 22q0 41 -31 66t-83 25q-59 0 -101.5 -31t-50.5 -81l-29 -167q-2 -12 -2 -18q0 -41 32 -66t84 -25q59 0 102 31t52 81
q23 0 37 -11t14 -30q0 -39 -27.5 -70t-77 -48.5t-112.5 -17.5q-82 0 -130.5 39z" />
    <glyph glyph-name="cacute" unicode="&#x107;" horiz-adv-x="511" 
d="M92.5 30q-48.5 39 -48.5 103q0 15 3 30l30 170q9 51 42 91t83.5 62.5t109.5 22.5q76 0 123.5 -32t47.5 -83q0 -28 -19 -45.5t-50 -17.5q2 14 2 22q0 41 -31 66t-83 25q-59 0 -101.5 -31t-50.5 -81l-29 -167q-2 -12 -2 -18q0 -41 32 -66t84 -25q59 0 102 31t52 81
q23 0 37 -11t14 -30q0 -39 -27.5 -70t-77 -48.5t-112.5 -17.5q-82 0 -130.5 39zM376 698q22 31 77 31h48l-139 -145q-13 -13 -27 -16.5t-53 -2.5z" />
    <glyph glyph-name="ccaron" unicode="&#x10d;" horiz-adv-x="511" 
d="M92.5 30q-48.5 39 -48.5 103q0 15 3 30l30 170q9 51 42 91t83.5 62.5t109.5 22.5q76 0 123.5 -32t47.5 -83q0 -28 -19 -45.5t-50 -17.5q2 14 2 22q0 41 -31 66t-83 25q-59 0 -101.5 -31t-50.5 -81l-29 -167q-2 -12 -2 -18q0 -41 32 -66t84 -25q59 0 102 31t52 81
q23 0 37 -11t14 -30q0 -39 -27.5 -70t-77 -48.5t-112.5 -17.5q-82 0 -130.5 39zM429 726q15 15 40 15q29 0 41 -19l-161 -143q-13 -11 -27 -11q-15 0 -23 11l-111 143q19 19 49 19q25 0 35 -15l62 -93z" />
    <glyph glyph-name="ccedilla" unicode="&#xe7;" horiz-adv-x="511" 
d="M464 348.5q-19 -17.5 -50 -17.5q2 14 2 22q0 41 -31 66t-83 25q-59 0 -101.5 -31t-50.5 -81l-29 -167q-2 -12 -2 -18q0 -41 32 -66t84 -25q59 0 102 31t52 81q23 0 37 -11t14 -30q0 -54 -51 -91t-133 -44l-33 -37q38 0 58.5 -18.5t20.5 -47.5q0 -44 -35 -74t-86 -30
q-37 0 -61 15t-24 37q0 19 16 32q22 -35 68 -35q26 0 41 13t15 35q0 15 -11 23t-29 8q-16 0 -36 -6q-7 -3 -14 2.5t-7 13.5q0 9 7 16l45 54q-68 7 -107.5 45t-39.5 95q0 15 3 30l30 170q9 51 42 91t83.5 62.5t109.5 22.5q76 0 123.5 -32t47.5 -83q0 -28 -19 -45.5z" />
    <glyph glyph-name="ccircumflex" unicode="&#x109;" horiz-adv-x="511" 
d="M92.5 30q-48.5 39 -48.5 103q0 15 3 30l30 170q9 51 42 91t83.5 62.5t109.5 22.5q76 0 123.5 -32t47.5 -83q0 -28 -19 -45.5t-50 -17.5q2 14 2 22q0 41 -31 66t-83 25q-59 0 -101.5 -31t-50.5 -81l-29 -167q-2 -12 -2 -18q0 -41 32 -66t84 -25q59 0 102 31t52 81
q23 0 37 -11t14 -30q0 -39 -27.5 -70t-77 -48.5t-112.5 -17.5q-82 0 -130.5 39zM207 569q-13 0 -24 5t-17 14l161 143q13 11 27 11q13 0 22 -11l112 -143q-20 -20 -50 -20q-23 0 -34 15l-62 94l-95 -94q-16 -14 -40 -14z" />
    <glyph glyph-name="cdotaccent" unicode="&#x10b;" horiz-adv-x="511" 
d="M92.5 30q-48.5 39 -48.5 103q0 15 3 30l30 170q9 51 42 91t83.5 62.5t109.5 22.5q76 0 123.5 -32t47.5 -83q0 -28 -19 -45.5t-50 -17.5q2 14 2 22q0 41 -31 66t-83 25q-59 0 -101.5 -31t-50.5 -81l-29 -167q-2 -12 -2 -18q0 -41 32 -66t84 -25q59 0 102 31t52 81
q23 0 37 -11t14 -30q0 -39 -27.5 -70t-77 -48.5t-112.5 -17.5q-82 0 -130.5 39zM294 591q-12 11 -12 29q0 25 18 42t43 17q19 0 30 -11t11 -29q0 -24 -17.5 -41.5t-41.5 -17.5q-19 0 -31 11z" />
    <glyph glyph-name="d" unicode="d" horiz-adv-x="550" 
d="M89.5 29.5q-45.5 38.5 -45.5 102.5q0 15 3 31l31 175q14 79 75.5 125t150.5 46q93 0 148 -76l4 5q-10 14 -17 23l33 186q11 62 85 62l-115 -652q-13 -66 -83 -66l10 57l25 25l-3 4q-84 -86 -181 -86q-75 0 -120.5 38.5zM335.5 86.5q44.5 30.5 51.5 73.5l31 181q2 12 2 17
q0 38 -31.5 62t-86.5 24q-64 0 -103 -28.5t-48 -79.5l-30 -171q-2 -9 -2 -25q0 -41 29.5 -62.5t86.5 -21.5q56 0 100.5 30.5z" />
    <glyph glyph-name="eth" unicode="&#xf0;" horiz-adv-x="615" 
d="M148 17.5q-49 26.5 -76.5 73.5t-27.5 106q0 86 39.5 158t108 114t153.5 42q52 0 96.5 -24t73.5 -68l4 4q-14 30 -28 44q-20 45 -47.5 80t-67.5 62l-164 -70q-2 6 -2 16q0 16 9.5 29t26.5 21l79 34q-35 21 -70 34q-11 4 -16.5 13t-5.5 22q0 26 18 42q88 -28 158 -75
l140 60q3 -9 3 -18q0 -33 -37 -48l-64 -27q126 -111 126 -284q0 -117 -44.5 -200t-117 -125t-156.5 -42q-62 0 -111 26.5zM382.5 89q51.5 33 81.5 90t30 126t-39.5 107t-110.5 38q-63 0 -115 -32t-81.5 -87.5t-29.5 -121.5q0 -72 40.5 -112.5t109.5 -40.5q63 0 114.5 33z
" />
    <glyph glyph-name="dcaron" unicode="&#x10f;" horiz-adv-x="665" 
d="M675 588.5q22 31.5 27 60.5q-12 -4 -23 -4q-23 0 -36 12t-13 34q0 32 22.5 54.5t54.5 22.5q26 0 41.5 -15t15.5 -39q0 -51 -30.5 -101.5t-73.5 -84.5q-7 -6 -22 -6q-13 0 -20 5q35 30 57 61.5zM89.5 29.5q-45.5 38.5 -45.5 102.5q0 15 3 31l31 175q14 79 75.5 125
t150.5 46q93 0 148 -76l4 5q-10 14 -17 23l33 186q11 62 85 62l-115 -652q-13 -66 -83 -66l10 57l25 25l-3 4q-84 -86 -181 -86q-75 0 -120.5 38.5zM335.5 86.5q44.5 30.5 51.5 73.5l31 181q2 12 2 17q0 38 -31.5 62t-86.5 24q-64 0 -103 -28.5t-48 -79.5l-30 -171
q-2 -9 -2 -25q0 -41 29.5 -62.5t86.5 -21.5q56 0 100.5 30.5z" />
    <glyph glyph-name="dcroat" unicode="&#x111;" horiz-adv-x="571" 
d="M620 615q-10 -55 -63 -55h-26l-89 -503q-13 -66 -83 -66l10 57l25 25l-3 4q-84 -86 -181 -86q-75 0 -120.5 38.5t-45.5 102.5q0 15 3 31l31 175q14 79 75.5 125t150.5 46q93 0 148 -76l4 5q-10 14 -17 23l18 99h-142q10 55 63 55h88l6 32q11 62 85 62l-17 -94h80z
M420 358q0 38 -31.5 62t-86.5 24q-64 0 -103 -28.5t-48 -79.5l-30 -171q-2 -9 -2 -25q0 -41 29.5 -62.5t86.5 -21.5q56 0 100.5 30.5t51.5 73.5l31 181q2 12 2 17z" />
    <glyph glyph-name="uni1E0D" unicode="&#x1e0d;" horiz-adv-x="550" 
d="M89.5 29.5q-45.5 38.5 -45.5 102.5q0 15 3 31l31 175q14 79 75.5 125t150.5 46q93 0 148 -76l4 5q-10 14 -17 23l33 186q11 62 85 62l-115 -652q-13 -66 -83 -66l10 57l25 25l-3 4q-84 -86 -181 -86q-75 0 -120.5 38.5zM335.5 86.5q44.5 30.5 51.5 73.5l31 181q2 12 2 17
q0 38 -31.5 62t-86.5 24q-64 0 -103 -28.5t-48 -79.5l-30 -171q-2 -9 -2 -25q0 -41 29.5 -62.5t86.5 -21.5q56 0 100.5 30.5zM166 -159q-12 11 -12 29q0 24 18 41.5t43 17.5q18 0 29.5 -11.5t11.5 -28.5q0 -24 -17.5 -41.5t-41.5 -17.5q-19 0 -31 11z" />
    <glyph glyph-name="uni1E0F" unicode="&#x1e0f;" horiz-adv-x="550" 
d="M89.5 29.5q-45.5 38.5 -45.5 102.5q0 15 3 31l31 175q14 79 75.5 125t150.5 46q93 0 148 -76l4 5q-10 14 -17 23l33 186q11 62 85 62l-115 -652q-13 -66 -83 -66l10 57l25 25l-3 4q-84 -86 -181 -86q-75 0 -120.5 38.5zM335.5 86.5q44.5 30.5 51.5 73.5l31 181q2 12 2 17
q0 38 -31.5 62t-86.5 24q-64 0 -103 -28.5t-48 -79.5l-30 -171q-2 -9 -2 -25q0 -41 29.5 -62.5t86.5 -21.5q56 0 100.5 30.5zM122 -59h249q-5 -29 -24 -45.5t-49 -16.5h-249q11 62 73 62z" />
    <glyph glyph-name="e" unicode="e" horiz-adv-x="521" 
d="M94.5 32q-48.5 41 -48.5 107q0 16 3 32l27 154q9 54 42.5 96t84.5 65t111 23q77 0 125.5 -42.5t48.5 -108.5q0 -15 -3 -32l-11 -66q-3 -13 -15 -23t-26 -10h-302l-9 -54q-3 -15 -3 -29q0 -44 29.5 -67t86.5 -23q62 0 102.5 28.5t49.5 79.5q22 1 37 -10.5t15 -28.5
q0 -33 -31 -63.5t-81 -49.5t-104 -19q-80 0 -128.5 41zM410 287l7 39q2 9 2 26q0 45 -30 69.5t-85 24.5q-61 0 -103 -33t-52 -87l-7 -39h268z" />
    <glyph glyph-name="eacute" unicode="&#xe9;" horiz-adv-x="521" 
d="M94.5 32q-48.5 41 -48.5 107q0 16 3 32l27 154q9 54 42.5 96t84.5 65t111 23q77 0 125.5 -42.5t48.5 -108.5q0 -15 -3 -32l-11 -66q-3 -13 -15 -23t-26 -10h-302l-9 -54q-3 -15 -3 -29q0 -44 29.5 -67t86.5 -23q62 0 102.5 28.5t49.5 79.5q22 1 37 -10.5t15 -28.5
q0 -33 -31 -63.5t-81 -49.5t-104 -19q-80 0 -128.5 41zM410 287l7 39q2 9 2 26q0 45 -30 69.5t-85 24.5q-61 0 -103 -33t-52 -87l-7 -39h268zM379 698q22 31 77 31h48l-139 -145q-13 -13 -27 -16.5t-53 -2.5z" />
    <glyph glyph-name="ebreve" unicode="&#x115;" horiz-adv-x="521" 
d="M94.5 32q-48.5 41 -48.5 107q0 16 3 32l27 154q9 54 42.5 96t84.5 65t111 23q77 0 125.5 -42.5t48.5 -108.5q0 -15 -3 -32l-11 -66q-3 -13 -15 -23t-26 -10h-302l-9 -54q-3 -15 -3 -29q0 -44 29.5 -67t86.5 -23q62 0 102.5 28.5t49.5 79.5q22 1 37 -10.5t15 -28.5
q0 -33 -31 -63.5t-81 -49.5t-104 -19q-80 0 -128.5 41zM410 287l7 39q2 9 2 26q0 45 -30 69.5t-85 24.5q-61 0 -103 -33t-52 -87l-7 -39h268zM229.5 594q-41.5 29 -41.5 78q0 36 20 55.5t56 19.5q-4 -20 -4 -40q0 -79 77 -79q94 0 115 119q29 0 42.5 -12t13.5 -31
q0 -35 -26 -67t-68 -52t-88 -20q-55 0 -96.5 29z" />
    <glyph glyph-name="ecaron" unicode="&#x11b;" horiz-adv-x="521" 
d="M94.5 32q-48.5 41 -48.5 107q0 16 3 32l27 154q9 54 42.5 96t84.5 65t111 23q77 0 125.5 -42.5t48.5 -108.5q0 -15 -3 -32l-11 -66q-3 -13 -15 -23t-26 -10h-302l-9 -54q-3 -15 -3 -29q0 -44 29.5 -67t86.5 -23q62 0 102.5 28.5t49.5 79.5q22 1 37 -10.5t15 -28.5
q0 -33 -31 -63.5t-81 -49.5t-104 -19q-80 0 -128.5 41zM410 287l7 39q2 9 2 26q0 45 -30 69.5t-85 24.5q-61 0 -103 -33t-52 -87l-7 -39h268zM433 726q15 15 40 15q29 0 41 -19l-161 -143q-13 -11 -27 -11q-15 0 -23 11l-111 143q19 19 49 19q25 0 35 -15l62 -93z" />
    <glyph glyph-name="ecircumflex" unicode="&#xea;" horiz-adv-x="521" 
d="M94.5 32q-48.5 41 -48.5 107q0 16 3 32l27 154q9 54 42.5 96t84.5 65t111 23q77 0 125.5 -42.5t48.5 -108.5q0 -15 -3 -32l-11 -66q-3 -13 -15 -23t-26 -10h-302l-9 -54q-3 -15 -3 -29q0 -44 29.5 -67t86.5 -23q62 0 102.5 28.5t49.5 79.5q22 1 37 -10.5t15 -28.5
q0 -33 -31 -63.5t-81 -49.5t-104 -19q-80 0 -128.5 41zM410 287l7 39q2 9 2 26q0 45 -30 69.5t-85 24.5q-61 0 -103 -33t-52 -87l-7 -39h268zM211 569q-13 0 -24 5t-17 14l161 143q13 11 27 11q13 0 22 -11l112 -143q-20 -20 -50 -20q-23 0 -34 15l-62 94l-95 -94
q-16 -14 -40 -14z" />
    <glyph glyph-name="uni1EBF" unicode="&#x1ebf;" horiz-adv-x="521" 
d="M94.5 32q-48.5 41 -48.5 107q0 16 3 32l27 154q9 54 42.5 96t84.5 65t111 23q77 0 125.5 -42.5t48.5 -108.5q0 -15 -3 -32l-11 -66q-3 -13 -15 -23t-26 -10h-302l-9 -54q-3 -15 -3 -29q0 -44 29.5 -67t86.5 -23q62 0 102.5 28.5t49.5 79.5q22 1 37 -10.5t15 -28.5
q0 -33 -31 -63.5t-81 -49.5t-104 -19q-80 0 -128.5 41zM410 287l7 39q2 9 2 26q0 45 -30 69.5t-85 24.5q-61 0 -103 -33t-52 -87l-7 -39h268zM502 819q10 15 26.5 21.5t43.5 6.5h34l-106 -114q-11 -12 -25 -15.5t-44 -2.5zM248 583q-16 -15 -39 -15q-14 0 -25 5t-17 15
l162 143q13 11 26 11q14 0 23 -11l111 -143q-9 -10 -22 -15t-27 -5q-24 0 -34 15l-62 94z" />
    <glyph glyph-name="uni1EC7" unicode="&#x1ec7;" horiz-adv-x="521" 
d="M94.5 32q-48.5 41 -48.5 107q0 16 3 32l27 154q9 54 42.5 96t84.5 65t111 23q77 0 125.5 -42.5t48.5 -108.5q0 -15 -3 -32l-11 -66q-3 -13 -15 -23t-26 -10h-302l-9 -54q-3 -15 -3 -29q0 -44 29.5 -67t86.5 -23q62 0 102.5 28.5t49.5 79.5q22 1 37 -10.5t15 -28.5
q0 -33 -31 -63.5t-81 -49.5t-104 -19q-80 0 -128.5 41zM410 287l7 39q2 9 2 26q0 45 -30 69.5t-85 24.5q-61 0 -103 -33t-52 -87l-7 -39h268zM165 -160q-12 11 -12 29q0 24 18 41.5t43 17.5q18 0 29.5 -11.5t11.5 -28.5q0 -24 -17.5 -41.5t-41.5 -17.5q-19 0 -31 11z
M211 569q-13 0 -24 5t-17 14l161 143q13 11 27 11q13 0 22 -11l112 -143q-20 -20 -50 -20q-23 0 -34 15l-62 94l-95 -94q-16 -14 -40 -14z" />
    <glyph glyph-name="uni1EC1" unicode="&#x1ec1;" horiz-adv-x="521" 
d="M94.5 32q-48.5 41 -48.5 107q0 16 3 32l27 154q9 54 42.5 96t84.5 65t111 23q77 0 125.5 -42.5t48.5 -108.5q0 -15 -3 -32l-11 -66q-3 -13 -15 -23t-26 -10h-302l-9 -54q-3 -15 -3 -29q0 -44 29.5 -67t86.5 -23q62 0 102.5 28.5t49.5 79.5q22 1 37 -10.5t15 -28.5
q0 -33 -31 -63.5t-81 -49.5t-104 -19q-80 0 -128.5 41zM410 287l7 39q2 9 2 26q0 45 -30 69.5t-85 24.5q-61 0 -103 -33t-52 -87l-7 -39h268zM471.5 717.5q-11.5 3.5 -18.5 15.5l-69 114h35q25 0 39.5 -6.5t20.5 -21.5l37 -104q-33 -1 -44.5 2.5zM249 583q-16 -15 -39 -15
q-14 0 -25 5t-17 15l162 143q13 11 26 11q14 0 23 -11l111 -143q-10 -10 -23 -15t-26 -5q-25 0 -34 15l-62 94z" />
    <glyph glyph-name="uni1EC3" unicode="&#x1ec3;" horiz-adv-x="521" 
d="M94.5 32q-48.5 41 -48.5 107q0 16 3 32l27 154q9 54 42.5 96t84.5 65t111 23q77 0 125.5 -42.5t48.5 -108.5q0 -15 -3 -32l-11 -66q-3 -13 -15 -23t-26 -10h-302l-9 -54q-3 -15 -3 -29q0 -44 29.5 -67t86.5 -23q62 0 102.5 28.5t49.5 79.5q22 1 37 -10.5t15 -28.5
q0 -33 -31 -63.5t-81 -49.5t-104 -19q-80 0 -128.5 41zM410 287l7 39q2 9 2 26q0 45 -30 69.5t-85 24.5q-61 0 -103 -33t-52 -87l-7 -39h268zM451 711q3 16 11.5 26.5t23.5 22.5q13 10 19.5 18.5t6.5 19.5q0 8 -7.5 13t-20.5 5q-18 0 -28.5 -10.5t-10.5 -29.5q0 -3 1 -5
q-21 0 -33.5 6.5t-12.5 20.5q0 24 28.5 43.5t65.5 19.5q33 0 53.5 -13.5t20.5 -38.5q0 -22 -9 -34.5t-26 -25.5q-14 -11 -20.5 -18t-8.5 -19t-12.5 -18.5t-26.5 -6.5q-6 0 -18 2zM249 583q-16 -15 -39 -15q-14 0 -25 5t-17 15l162 143q13 11 26 11q14 0 23 -11l111 -143
q-10 -10 -23 -15t-26 -5q-25 0 -34 15l-62 94z" />
    <glyph glyph-name="uni1EC5" unicode="&#x1ec5;" horiz-adv-x="521" 
d="M94.5 32q-48.5 41 -48.5 107q0 16 3 32l27 154q9 54 42.5 96t84.5 65t111 23q77 0 125.5 -42.5t48.5 -108.5q0 -15 -3 -32l-11 -66q-3 -13 -15 -23t-26 -10h-302l-9 -54q-3 -15 -3 -29q0 -44 29.5 -67t86.5 -23q62 0 102.5 28.5t49.5 79.5q22 1 37 -10.5t15 -28.5
q0 -33 -31 -63.5t-81 -49.5t-104 -19q-80 0 -128.5 41zM410 287l7 39q2 9 2 26q0 45 -30 69.5t-85 24.5q-61 0 -103 -33t-52 -87l-7 -39h268zM245 768q-9 10 -9 26q0 31 25 53t60 22q22 0 37.5 -8.5t33.5 -24.5q13 -11 22 -16.5t19 -5.5q16 0 24.5 8.5t8.5 23.5q0 7 -4 19
q12 4 18 4q14 0 23 -10.5t9 -25.5q0 -31 -24 -51.5t-59 -20.5q-20 0 -34.5 8t-33.5 24q-14 12 -23.5 18t-20.5 6q-16 0 -25 -11t-9 -29q0 -11 2 -16q-15 -3 -17 -3q-14 0 -23 10zM210 568q-14 0 -25 5t-17 15l162 143q13 11 26 11q14 0 23 -11l111 -143q-10 -10 -23 -15
t-26 -5q-25 0 -34 15l-62 94l-96 -94q-16 -15 -39 -15z" />
    <glyph glyph-name="edieresis" unicode="&#xeb;" horiz-adv-x="521" 
d="M94.5 32q-48.5 41 -48.5 107q0 16 3 32l27 154q9 54 42.5 96t84.5 65t111 23q77 0 125.5 -42.5t48.5 -108.5q0 -15 -3 -32l-11 -66q-3 -13 -15 -23t-26 -10h-302l-9 -54q-3 -15 -3 -29q0 -44 29.5 -67t86.5 -23q62 0 102.5 28.5t49.5 79.5q22 1 37 -10.5t15 -28.5
q0 -33 -31 -63.5t-81 -49.5t-104 -19q-80 0 -128.5 41zM410 287l7 39q2 9 2 26q0 45 -30 69.5t-85 24.5q-61 0 -103 -33t-52 -87l-7 -39h268zM204.5 591q-11.5 11 -11.5 28q0 25 17.5 42.5t42.5 17.5q19 0 30 -11t11 -29q0 -24 -17 -41.5t-42 -17.5q-19 0 -30.5 11z
M391.5 591q-11.5 11 -11.5 28q0 25 17.5 42.5t42.5 17.5q19 0 30.5 -11t11.5 -29q0 -24 -17.5 -41.5t-42.5 -17.5q-19 0 -30.5 11z" />
    <glyph glyph-name="edotaccent" unicode="&#x117;" horiz-adv-x="521" 
d="M94.5 32q-48.5 41 -48.5 107q0 16 3 32l27 154q9 54 42.5 96t84.5 65t111 23q77 0 125.5 -42.5t48.5 -108.5q0 -15 -3 -32l-11 -66q-3 -13 -15 -23t-26 -10h-302l-9 -54q-3 -15 -3 -29q0 -44 29.5 -67t86.5 -23q62 0 102.5 28.5t49.5 79.5q22 1 37 -10.5t15 -28.5
q0 -33 -31 -63.5t-81 -49.5t-104 -19q-80 0 -128.5 41zM410 287l7 39q2 9 2 26q0 45 -30 69.5t-85 24.5q-61 0 -103 -33t-52 -87l-7 -39h268zM298 591q-12 11 -12 29q0 25 18 42t43 17q19 0 30 -11t11 -29q0 -24 -17.5 -41.5t-41.5 -17.5q-19 0 -31 11z" />
    <glyph glyph-name="uni1EB9" unicode="&#x1eb9;" horiz-adv-x="521" 
d="M94.5 32q-48.5 41 -48.5 107q0 16 3 32l27 154q9 54 42.5 96t84.5 65t111 23q77 0 125.5 -42.5t48.5 -108.5q0 -15 -3 -32l-11 -66q-3 -13 -15 -23t-26 -10h-302l-9 -54q-3 -15 -3 -29q0 -44 29.5 -67t86.5 -23q62 0 102.5 28.5t49.5 79.5q22 1 37 -10.5t15 -28.5
q0 -33 -31 -63.5t-81 -49.5t-104 -19q-80 0 -128.5 41zM410 287l7 39q2 9 2 26q0 45 -30 69.5t-85 24.5q-61 0 -103 -33t-52 -87l-7 -39h268zM165 -160q-12 11 -12 29q0 24 18 41.5t43 17.5q18 0 29.5 -11.5t11.5 -28.5q0 -24 -17.5 -41.5t-41.5 -17.5q-19 0 -31 11z" />
    <glyph glyph-name="egrave" unicode="&#xe8;" horiz-adv-x="521" 
d="M94.5 32q-48.5 41 -48.5 107q0 16 3 32l27 154q9 54 42.5 96t84.5 65t111 23q77 0 125.5 -42.5t48.5 -108.5q0 -15 -3 -32l-11 -66q-3 -13 -15 -23t-26 -10h-302l-9 -54q-3 -15 -3 -29q0 -44 29.5 -67t86.5 -23q62 0 102.5 28.5t49.5 79.5q22 1 37 -10.5t15 -28.5
q0 -33 -31 -63.5t-81 -49.5t-104 -19q-80 0 -128.5 41zM410 287l7 39q2 9 2 26q0 45 -30 69.5t-85 24.5q-61 0 -103 -33t-52 -87l-7 -39h268zM319 567.5q-13 3.5 -21 16.5l-92 145h48q27 0 43 -7t22 -23l51 -134q-38 -1 -51 2.5z" />
    <glyph glyph-name="uni1EBB" unicode="&#x1ebb;" horiz-adv-x="521" 
d="M94.5 32q-48.5 41 -48.5 107q0 16 3 32l27 154q9 54 42.5 96t84.5 65t111 23q77 0 125.5 -42.5t48.5 -108.5q0 -15 -3 -32l-11 -66q-3 -13 -15 -23t-26 -10h-302l-9 -54q-3 -15 -3 -29q0 -44 29.5 -67t86.5 -23q62 0 102.5 28.5t49.5 79.5q22 1 37 -10.5t15 -28.5
q0 -33 -31 -63.5t-81 -49.5t-104 -19q-80 0 -128.5 41zM410 287l7 39q2 9 2 26q0 45 -30 69.5t-85 24.5q-61 0 -103 -33t-52 -87l-7 -39h268zM306 594q3 18 13 29.5t28 26.5q16 12 24 22t8 25q0 21 -30 21q-20 0 -31.5 -13t-11.5 -36v-6q-24 0 -38 8t-14 23q0 29 32 52
t74 23q37 0 60 -15.5t23 -44.5q0 -26 -10.5 -40.5t-30.5 -28.5q-16 -12 -24 -21t-11 -23t-14.5 -21.5t-28.5 -7.5q-11 0 -23 3z" />
    <glyph glyph-name="emacron" unicode="&#x113;" horiz-adv-x="521" 
d="M94.5 32q-48.5 41 -48.5 107q0 16 3 32l27 154q9 54 42.5 96t84.5 65t111 23q77 0 125.5 -42.5t48.5 -108.5q0 -15 -3 -32l-11 -66q-3 -13 -15 -23t-26 -10h-302l-9 -54q-3 -15 -3 -29q0 -44 29.5 -67t86.5 -23q62 0 102.5 28.5t49.5 79.5q22 1 37 -10.5t15 -28.5
q0 -33 -31 -63.5t-81 -49.5t-104 -19q-80 0 -128.5 41zM410 287l7 39q2 9 2 26q0 45 -30 69.5t-85 24.5q-61 0 -103 -33t-52 -87l-7 -39h268zM198.5 636q18.5 16 49.5 16h249q-5 -30 -24 -46t-49 -16h-249q5 30 23.5 46z" />
    <glyph glyph-name="eogonek" unicode="&#x119;" horiz-adv-x="521" 
d="M439.5 466.5q48.5 -42.5 48.5 -108.5q0 -15 -3 -32l-11 -66q-3 -13 -15 -23t-26 -10h-302l-9 -54q-3 -15 -3 -29q0 -44 29.5 -67t86.5 -23q62 0 102.5 28.5t49.5 79.5q22 1 37 -10.5t15 -28.5q0 -40 -43.5 -75.5t-107.5 -49.5q-38 -26 -61.5 -59t-23.5 -62q0 -15 9 -24
t25 -9q24 0 42 19q2 -9 1 -14q-1 -20 -23.5 -35.5t-53.5 -15.5q-33 0 -52 17.5t-19 46.5q0 34 29.5 70t75.5 59h-14q-80 0 -128.5 41t-48.5 107q0 16 3 32l27 154q9 54 42.5 96t84.5 65t111 23q77 0 125.5 -42.5zM419 352q0 45 -30 69.5t-85 24.5q-61 0 -103 -33t-52 -87
l-7 -39h268l7 39q2 9 2 26z" />
    <glyph glyph-name="uni1EBD" unicode="&#x1ebd;" horiz-adv-x="521" 
d="M94.5 32q-48.5 41 -48.5 107q0 16 3 32l27 154q9 54 42.5 96t84.5 65t111 23q77 0 125.5 -42.5t48.5 -108.5q0 -15 -3 -32l-11 -66q-3 -13 -15 -23t-26 -10h-302l-9 -54q-3 -15 -3 -29q0 -44 29.5 -67t86.5 -23q62 0 102.5 28.5t49.5 79.5q22 1 37 -10.5t15 -28.5
q0 -33 -31 -63.5t-81 -49.5t-104 -19q-80 0 -128.5 41zM410 287l7 39q2 9 2 26q0 45 -30 69.5t-85 24.5q-61 0 -103 -33t-52 -87l-7 -39h268zM193.5 580q-9.5 11 -9.5 28q0 34 27.5 58t66.5 24q24 0 41 -9.5t37 -27.5q15 -13 24.5 -19t20.5 -6q16 0 26 10t10 29q0 9 -3 19
q8 4 20 4q15 0 24 -11.5t9 -28.5q0 -34 -26.5 -57.5t-64.5 -23.5q-22 0 -38.5 9.5t-36.5 27.5q-16 14 -26 20.5t-22 6.5q-18 0 -28.5 -10.5t-10.5 -29.5q0 -12 4 -20q-9 -4 -20 -4q-15 0 -24.5 11z" />
    <glyph glyph-name="uni0259" unicode="&#x259;" horiz-adv-x="515" 
d="M112.5 11q-40.5 20 -64.5 55.5t-24 79.5q0 13 3 28l12 66q2 14 14.5 23.5t27.5 9.5h302l9 54q3 15 3 29q0 42 -28.5 66t-87.5 24q-64 0 -104 -29t-49 -79q-21 -2 -36.5 9.5t-15.5 29.5q0 32 29.5 63t79 50t104.5 19q82 0 131.5 -41.5t49.5 -108.5q0 -15 -3 -30l-27 -154
q-9 -53 -42.5 -95t-84.5 -65.5t-112 -23.5q-46 0 -86.5 20zM313 87.5q43 33.5 52 86.5l7 39h-268l-7 -39q-2 -16 -2 -23q0 -44 31 -70.5t84 -26.5q60 0 103 33.5z" />
    <glyph glyph-name="f" unicode="f" horiz-adv-x="380" 
d="M154 439h-83q11 61 61 61h33l12 68q13 70 54 105.5t108 35.5q32 0 53 -13.5t21 -34.5q0 -9 -4.5 -19t-11.5 -16q-13 8 -29.5 13t-32.5 5q-72 0 -85 -80l-11 -64h123q-11 -61 -67 -61h-67l-68 -389q-6 -30 -26.5 -44.5t-57.5 -14.5z" />
    <glyph glyph-name="g" unicode="g" horiz-adv-x="551" 
d="M101.5 -194q-39.5 15 -62.5 40.5t-23 55.5q0 28 17.5 43.5t48.5 15.5q-2 -12 -2 -19q0 -41 32 -65t86 -24q67 0 107 33t51 97l11 66q17 14 25 23l-2 5q-38 -35 -85.5 -55.5t-90.5 -20.5q-49 0 -87 19t-59 52t-21 74q0 8 2 26l29 165q14 83 72.5 127.5t153.5 44.5t149 -86
l3 4l-15 25q9 57 81 57l-92 -521q-17 -95 -80 -146t-163 -51q-46 0 -85.5 15zM336.5 96.5q45.5 30.5 52.5 72.5l29 171q1 5 1 15q0 38 -32 63.5t-82 25.5q-134 0 -154 -109l-28 -161q-2 -9 -2 -25q0 -83 115 -83q55 0 100.5 30.5z" />
    <glyph glyph-name="gbreve" unicode="&#x11f;" horiz-adv-x="551" 
d="M101.5 -194q-39.5 15 -62.5 40.5t-23 55.5q0 28 17.5 43.5t48.5 15.5q-2 -12 -2 -19q0 -41 32 -65t86 -24q67 0 107 33t51 97l11 66q17 14 25 23l-2 5q-38 -35 -85.5 -55.5t-90.5 -20.5q-49 0 -87 19t-59 52t-21 74q0 8 2 26l29 165q14 83 72.5 127.5t153.5 44.5t149 -86
l3 4l-15 25q9 57 81 57l-92 -521q-17 -95 -80 -146t-163 -51q-46 0 -85.5 15zM336.5 96.5q45.5 30.5 52.5 72.5l29 171q1 5 1 15q0 38 -32 63.5t-82 25.5q-134 0 -154 -109l-28 -161q-2 -9 -2 -25q0 -83 115 -83q55 0 100.5 30.5zM230.5 594q-41.5 29 -41.5 78q0 36 20 55.5
t56 19.5q-4 -20 -4 -40q0 -79 77 -79q94 0 115 119q29 0 42.5 -12t13.5 -31q0 -35 -26 -67t-68 -52t-88 -20q-55 0 -96.5 29z" />
    <glyph glyph-name="gcaron" unicode="&#x1e7;" horiz-adv-x="551" 
d="M101.5 -194q-39.5 15 -62.5 40.5t-23 55.5q0 28 17.5 43.5t48.5 15.5q-2 -12 -2 -19q0 -41 32 -65t86 -24q67 0 107 33t51 97l11 66q17 14 25 23l-2 5q-38 -35 -85.5 -55.5t-90.5 -20.5q-49 0 -87 19t-59 52t-21 74q0 8 2 26l29 165q14 83 72.5 127.5t153.5 44.5t149 -86
l3 4l-15 25q9 57 81 57l-92 -521q-17 -95 -80 -146t-163 -51q-46 0 -85.5 15zM336.5 96.5q45.5 30.5 52.5 72.5l29 171q1 5 1 15q0 38 -32 63.5t-82 25.5q-134 0 -154 -109l-28 -161q-2 -9 -2 -25q0 -83 115 -83q55 0 100.5 30.5zM434 726q15 15 40 15q29 0 41 -19
l-161 -143q-13 -11 -27 -11q-15 0 -23 11l-111 143q19 19 49 19q25 0 35 -15l62 -93z" />
    <glyph glyph-name="gcircumflex" unicode="&#x11d;" horiz-adv-x="551" 
d="M101.5 -194q-39.5 15 -62.5 40.5t-23 55.5q0 28 17.5 43.5t48.5 15.5q-2 -12 -2 -19q0 -41 32 -65t86 -24q67 0 107 33t51 97l11 66q17 14 25 23l-2 5q-38 -35 -85.5 -55.5t-90.5 -20.5q-49 0 -87 19t-59 52t-21 74q0 8 2 26l29 165q14 83 72.5 127.5t153.5 44.5t149 -86
l3 4l-15 25q9 57 81 57l-92 -521q-17 -95 -80 -146t-163 -51q-46 0 -85.5 15zM336.5 96.5q45.5 30.5 52.5 72.5l29 171q1 5 1 15q0 38 -32 63.5t-82 25.5q-134 0 -154 -109l-28 -161q-2 -9 -2 -25q0 -83 115 -83q55 0 100.5 30.5zM212 569q-13 0 -24 5t-17 14l161 143
q13 11 27 11q13 0 22 -11l112 -143q-20 -20 -50 -20q-23 0 -34 15l-62 94l-95 -94q-16 -14 -40 -14z" />
    <glyph glyph-name="uni0123" unicode="&#x123;" horiz-adv-x="551" 
d="M101.5 -194q-39.5 15 -62.5 40.5t-23 55.5q0 28 17.5 43.5t48.5 15.5q-2 -12 -2 -19q0 -41 32 -65t86 -24q67 0 107 33t51 97l11 66q17 14 25 23l-2 5q-38 -35 -85.5 -55.5t-90.5 -20.5q-49 0 -87 19t-59 52t-21 74q0 8 2 26l29 165q14 83 72.5 127.5t153.5 44.5t149 -86
l3 4l-15 25q9 57 81 57l-92 -521q-17 -95 -80 -146t-163 -51q-46 0 -85.5 15zM336.5 96.5q45.5 30.5 52.5 72.5l29 171q1 5 1 15q0 38 -32 63.5t-82 25.5q-134 0 -154 -109l-28 -161q-2 -9 -2 -25q0 -83 115 -83q55 0 100.5 30.5zM334 670q4 2 10 3.5t12 1.5q24 0 37 -12.5
t13 -33.5q0 -32 -22.5 -55t-54.5 -23q-26 0 -41.5 15.5t-15.5 38.5q0 51 30.5 102t72.5 85q9 6 23 6q15 0 20 -6q-73 -63 -84 -122z" />
    <glyph glyph-name="gdotaccent" unicode="&#x121;" horiz-adv-x="551" 
d="M101.5 -194q-39.5 15 -62.5 40.5t-23 55.5q0 28 17.5 43.5t48.5 15.5q-2 -12 -2 -19q0 -41 32 -65t86 -24q67 0 107 33t51 97l11 66q17 14 25 23l-2 5q-38 -35 -85.5 -55.5t-90.5 -20.5q-49 0 -87 19t-59 52t-21 74q0 8 2 26l29 165q14 83 72.5 127.5t153.5 44.5t149 -86
l3 4l-15 25q9 57 81 57l-92 -521q-17 -95 -80 -146t-163 -51q-46 0 -85.5 15zM336.5 96.5q45.5 30.5 52.5 72.5l29 171q1 5 1 15q0 38 -32 63.5t-82 25.5q-134 0 -154 -109l-28 -161q-2 -9 -2 -25q0 -83 115 -83q55 0 100.5 30.5zM299 591q-12 11 -12 29q0 25 18 42t43 17
q19 0 30 -11t11 -29q0 -24 -17.5 -41.5t-41.5 -17.5q-19 0 -31 11z" />
    <glyph glyph-name="uni1E21" unicode="&#x1e21;" horiz-adv-x="551" 
d="M101.5 -194q-39.5 15 -62.5 40.5t-23 55.5q0 28 17.5 43.5t48.5 15.5q-2 -12 -2 -19q0 -41 32 -65t86 -24q67 0 107 33t51 97l11 66q17 14 25 23l-2 5q-38 -35 -85.5 -55.5t-90.5 -20.5q-49 0 -87 19t-59 52t-21 74q0 8 2 26l29 165q14 83 72.5 127.5t153.5 44.5t149 -86
l3 4l-15 25q9 57 81 57l-92 -521q-17 -95 -80 -146t-163 -51q-46 0 -85.5 15zM336.5 96.5q45.5 30.5 52.5 72.5l29 171q1 5 1 15q0 38 -32 63.5t-82 25.5q-134 0 -154 -109l-28 -161q-2 -9 -2 -25q0 -83 115 -83q55 0 100.5 30.5zM199.5 636q18.5 16 49.5 16h249
q-5 -30 -24 -46t-49 -16h-249q5 30 23.5 46z" />
    <glyph glyph-name="h" unicode="h" horiz-adv-x="550" 
d="M143 643q12 66 85 66l-47 -264l-26 -26l3 -5q40 44 93 69.5t104 25.5q69 0 109.5 -37.5t40.5 -100.5q0 -15 -3 -33l-51 -288q-12 -59 -84 -59l60 342q3 17 3 30q0 81 -100 81q-38 0 -76 -16.5t-64 -44t-31 -57.5l-48 -276q-10 -59 -84 -59z" />
    <glyph glyph-name="hbar" unicode="&#x127;" horiz-adv-x="582" 
d="M493.5 471.5q40.5 -37.5 40.5 -100.5q0 -15 -3 -33l-51 -288q-12 -59 -84 -59l60 342q3 17 3 30q0 81 -100 81q-38 0 -76 -16.5t-64 -44t-31 -57.5l-48 -276q-10 -59 -84 -59l101 565h-69q10 55 63 55h15l6 32q12 66 85 66l-17 -98h153q-11 -55 -63 -55h-100l-20 -111
l-26 -26l3 -5q40 44 93 69.5t104 25.5q69 0 109.5 -37.5z" />
    <glyph glyph-name="uni1E2B" unicode="&#x1e2b;" horiz-adv-x="550" 
d="M143 643q12 66 85 66l-47 -264l-26 -26l3 -5q40 44 93 69.5t104 25.5q69 0 109.5 -37.5t40.5 -100.5q0 -15 -3 -33l-51 -288q-12 -59 -84 -59l60 342q3 17 3 30q0 81 -100 81q-38 0 -76 -16.5t-64 -44t-31 -57.5l-48 -276q-10 -59 -84 -59zM96 -184.5q-42 25.5 -42 73.5
q0 35 19.5 53t56.5 18q-4 -28 -4 -36q0 -38 19.5 -54.5t59.5 -16.5q50 0 76.5 25.5t36.5 81.5q57 0 57 -40q0 -34 -25 -64t-66.5 -48t-89.5 -18q-56 0 -98 25.5z" />
    <glyph glyph-name="hcircumflex" unicode="&#x125;" horiz-adv-x="550" 
d="M143 643q12 66 85 66l-47 -264l-26 -26l3 -5q40 44 93 69.5t104 25.5q69 0 109.5 -37.5t40.5 -100.5q0 -15 -3 -33l-51 -288q-12 -59 -84 -59l60 342q3 17 3 30q0 81 -100 81q-38 0 -76 -16.5t-64 -44t-31 -57.5l-48 -276q-10 -59 -84 -59zM215 769q-13 0 -24 5t-17 14
l161 143q13 11 27 11q13 0 22 -11l112 -143q-20 -20 -50 -20q-23 0 -34 15l-62 94l-95 -94q-16 -14 -40 -14z" />
    <glyph glyph-name="uni1E25" unicode="&#x1e25;" horiz-adv-x="550" 
d="M143 643q12 66 85 66l-47 -264l-26 -26l3 -5q40 44 93 69.5t104 25.5q69 0 109.5 -37.5t40.5 -100.5q0 -15 -3 -33l-51 -288q-12 -59 -84 -59l60 342q3 17 3 30q0 81 -100 81q-38 0 -76 -16.5t-64 -44t-31 -57.5l-48 -276q-10 -59 -84 -59zM170 -159q-12 11 -12 29
q0 24 18 41.5t43 17.5q18 0 29.5 -11.5t11.5 -28.5q0 -24 -17.5 -41.5t-41.5 -17.5q-19 0 -31 11z" />
    <glyph glyph-name="i" unicode="i" horiz-adv-x="265" 
d="M156.5 608q-14.5 14 -14.5 34q0 26 21.5 46.5t49.5 20.5q22 0 36 -13t14 -34q0 -26 -21.5 -47t-48.5 -21q-22 0 -36.5 14zM130 449q11 60 84 60l-81 -459q-10 -59 -84 -59z" />
    <glyph glyph-name="dotlessi" unicode="&#x131;" horiz-adv-x="220" 
d="M108 449q10 60 83 60l-80 -459q-6 -29 -25.5 -44t-58.5 -15z" />
    <glyph glyph-name="iacute" unicode="&#xed;" horiz-adv-x="220" 
d="M108 449q10 60 83 60l-80 -459q-6 -29 -25.5 -44t-58.5 -15zM222 707q22 31 77 31h48l-139 -145q-13 -13 -27 -16.5t-53 -2.5z" />
    <glyph glyph-name="ibreve" unicode="&#x12d;" horiz-adv-x="220" 
d="M108 449q10 60 83 60l-80 -459q-6 -29 -25.5 -44t-58.5 -15zM71.5 603q-41.5 29 -41.5 78q0 36 20 55.5t56 19.5q-4 -20 -4 -40q0 -79 77 -79q94 0 115 119q29 0 42.5 -12t13.5 -31q0 -35 -26 -67t-68 -52t-88 -20q-55 0 -96.5 29z" />
    <glyph glyph-name="uni01D0" unicode="&#x1d0;" horiz-adv-x="220" 
d="M108 449q10 60 83 60l-80 -459q-6 -29 -25.5 -44t-58.5 -15zM275 735q15 15 40 15q29 0 41 -19l-161 -143q-13 -11 -27 -11q-15 0 -23 11l-111 143q19 19 49 19q25 0 35 -15l62 -93z" />
    <glyph glyph-name="icircumflex" unicode="&#xee;" horiz-adv-x="220" 
d="M108 449q10 60 83 60l-80 -459q-6 -29 -25.5 -44t-58.5 -15zM53 578q-13 0 -24 5t-17 14l161 143q13 11 27 11q13 0 22 -11l112 -143q-20 -20 -50 -20q-23 0 -34 15l-62 94l-95 -94q-16 -14 -40 -14z" />
    <glyph glyph-name="idieresis" unicode="&#xef;" horiz-adv-x="220" 
d="M108 449q10 60 83 60l-80 -459q-6 -29 -25.5 -44t-58.5 -15zM46.5 600q-11.5 11 -11.5 28q0 25 17.5 42.5t42.5 17.5q19 0 30 -11t11 -29q0 -24 -17 -41.5t-42 -17.5q-19 0 -30.5 11zM233.5 600q-11.5 11 -11.5 28q0 25 17.5 42.5t42.5 17.5q19 0 30.5 -11t11.5 -29
q0 -24 -17.5 -41.5t-42.5 -17.5q-19 0 -30.5 11z" />
    <glyph glyph-name="uni1ECB" unicode="&#x1ecb;" horiz-adv-x="265" 
d="M156.5 608q-14.5 14 -14.5 34q0 26 21.5 46.5t49.5 20.5q22 0 36 -13t14 -34q0 -26 -21.5 -47t-48.5 -21q-22 0 -36.5 14zM130 449q11 60 84 60l-81 -459q-10 -59 -84 -59zM25 -159q-12 11 -12 29q0 24 18 41.5t43 17.5q18 0 29.5 -11.5t11.5 -28.5q0 -24 -17.5 -41.5
t-41.5 -17.5q-19 0 -31 11z" />
    <glyph glyph-name="igrave" unicode="&#xec;" horiz-adv-x="220" 
d="M108 449q10 60 83 60l-80 -459q-6 -29 -25.5 -44t-58.5 -15zM161 576.5q-13 3.5 -21 16.5l-92 145h48q27 0 43 -7t22 -23l51 -134q-38 -1 -51 2.5z" />
    <glyph glyph-name="uni1EC9" unicode="&#x1ec9;" horiz-adv-x="220" 
d="M108 449q10 60 83 60l-80 -459q-6 -29 -25.5 -44t-58.5 -15zM148 603q3 18 13 29.5t28 26.5q16 12 24 22t8 25q0 21 -30 21q-20 0 -31.5 -13t-11.5 -36v-6q-24 0 -38 8t-14 23q0 29 32 52t74 23q37 0 60 -15.5t23 -44.5q0 -26 -10.5 -40.5t-30.5 -28.5q-16 -12 -24 -21
t-11 -23t-14.5 -21.5t-28.5 -7.5q-11 0 -23 3z" />
    <glyph glyph-name="ij" unicode="&#x133;" horiz-adv-x="506" 
d="M156 608q-14 14 -14 34q0 26 21.5 46.5t49.5 20.5q22 0 35.5 -13.5t13.5 -33.5q0 -26 -21 -47t-49 -21q-22 0 -36 14zM397.5 608q-14.5 14 -14.5 34q0 26 21.5 46.5t49.5 20.5q22 0 35.5 -13.5t13.5 -33.5q0 -26 -21 -47t-48 -21q-22 0 -36.5 14zM129 449q12 60 84 60
l-80 -459q-12 -59 -84 -59zM130.5 -193.5q-19.5 15.5 -19.5 36.5q0 19 17 36q11 -10 28 -16.5t36 -6.5q40 0 61 21.5t27 61.5l91 510q10 60 83 60l-100 -574q-12 -65 -52.5 -104.5t-117.5 -39.5q-34 0 -53.5 15.5z" />
    <glyph glyph-name="imacron" unicode="&#x12b;" horiz-adv-x="220" 
d="M108 449q10 60 83 60l-80 -459q-6 -29 -25.5 -44t-58.5 -15zM40.5 645q18.5 16 49.5 16h249q-5 -30 -24 -46t-49 -16h-249q5 30 23.5 46z" />
    <glyph glyph-name="iogonek" unicode="&#x12f;" horiz-adv-x="265" 
d="M249 696q14 -13 14 -34q0 -26 -21.5 -47t-48.5 -21q-22 0 -36.5 14t-14.5 34q0 26 21.5 46.5t49.5 20.5q22 0 36 -13zM214 509l-81 -459q-6 -36 -34 -49q-36 -27 -57.5 -58t-21.5 -60q0 -32 34 -32q25 0 42 18l1 -14q-2 -20 -24.5 -35.5t-52.5 -15.5q-33 0 -52.5 17.5
t-19.5 46.5q0 33 28.5 68.5t73.5 59.5l80 453q11 60 84 60z" />
    <glyph glyph-name="itilde" unicode="&#x129;" horiz-adv-x="220" 
d="M108 449q10 60 83 60l-80 -459q-6 -29 -25.5 -44t-58.5 -15zM35.5 589q-9.5 11 -9.5 28q0 34 27.5 58t66.5 24q24 0 41 -9.5t37 -27.5q15 -13 24.5 -19t20.5 -6q16 0 26 10t10 29q0 9 -3 19q8 4 20 4q15 0 24 -11.5t9 -28.5q0 -34 -26.5 -57.5t-64.5 -23.5
q-22 0 -38.5 9.5t-36.5 27.5q-16 14 -26 20.5t-22 6.5q-18 0 -28.5 -10.5t-10.5 -29.5q0 -12 4 -20q-9 -4 -20 -4q-15 0 -24.5 11z" />
    <glyph glyph-name="j" unicode="j" horiz-adv-x="361" 
d="M253 607.5q-14 13.5 -14 34.5q0 26 21 46.5t49 20.5q22 0 36 -13.5t14 -33.5q0 -26 -21 -47t-49 -21q-22 0 -36 13.5zM-12 -194.5q-21 14.5 -21 36.5t18 37q10 -10 27 -16.5t36 -6.5q37 0 58.5 20.5t29.5 62.5l91 510q11 60 84 60l-101 -574q-13 -71 -55.5 -107.5
t-113.5 -36.5q-32 0 -53 14.5z" />
    <glyph glyph-name="uni0237" unicode="&#x237;" horiz-adv-x="339" 
d="M-11 -193.5q-22 15.5 -22 35.5q0 21 18 37q9 -10 26.5 -16.5t36.5 -6.5q41 0 61 21.5t27 61.5l90 510q10 60 84 60l-101 -574q-11 -65 -51 -104.5t-113 -39.5q-34 0 -56 15.5z" />
    <glyph glyph-name="jcircumflex" unicode="&#x135;" horiz-adv-x="339" 
d="M-11 -193.5q-22 15.5 -22 35.5q0 21 18 37q9 -10 26.5 -16.5t36.5 -6.5q41 0 61 21.5t27 61.5l90 510q10 60 84 60l-101 -574q-11 -65 -51 -104.5t-113 -39.5q-34 0 -56 15.5zM163 550q-13 0 -24 5t-17 14l161 143q13 11 27 11q13 0 22 -11l112 -143q-20 -20 -50 -20
q-23 0 -34 15l-62 94l-95 -94q-16 -14 -40 -14z" />
    <glyph glyph-name="k" unicode="k" horiz-adv-x="531" 
d="M453.5 450.5q-7.5 -8.5 -29.5 -26.5l-137 -108l151 -308q-8 -8 -19.5 -12.5t-23.5 -4.5q-15 0 -25 5.5t-16 19.5l-121 257l-97 -77l-25 -146q-12 -59 -83 -59l115 654q5 31 27 47.5t58 16.5l-78 -435l293 234q18 -21 18 -35t-7.5 -22.5z" />
    <glyph glyph-name="uni0137" unicode="&#x137;" horiz-adv-x="531" 
d="M453.5 450.5q-7.5 -8.5 -29.5 -26.5l-137 -108l151 -308q-8 -8 -19.5 -12.5t-23.5 -4.5q-15 0 -25 5.5t-16 19.5l-121 257l-97 -77l-25 -146q-12 -59 -83 -59l115 654q5 31 27 47.5t58 16.5l-78 -435l293 234q18 -21 18 -35t-7.5 -22.5zM193 -168q-4 -2 -10 -3.5
t-13 -1.5q-23 0 -36 12.5t-13 33.5q0 32 23 55t55 23q26 0 41.5 -15t15.5 -39q0 -51 -31 -101.5t-73 -85.5q-9 -6 -23 -6q-15 0 -19 6q74 64 83 122z" />
    <glyph glyph-name="kgreenlandic" unicode="&#x138;" horiz-adv-x="537" 
d="M108 444q11 64 84 64l-43 -245l345 245q10 -17 10 -33t-9 -26t-30 -26l-204 -145l185 -270q-19 -17 -42 -17q-29 0 -46 25l-153 222l-70 -50l-25 -138q-10 -59 -82 -59z" />
    <glyph glyph-name="l" unicode="l" horiz-adv-x="332" 
d="M79.5 19.5q-30.5 28.5 -30.5 78.5q0 16 3 32l91 520q10 59 84 59l-101 -576q-3 -15 -3 -27q0 -26 14.5 -38t46.5 -12q34 0 68 18q5 -7 5 -20q0 -27 -26.5 -45t-66.5 -18q-54 0 -84.5 28.5z" />
    <glyph glyph-name="lacute" unicode="&#x13a;" horiz-adv-x="332" 
d="M79.5 19.5q-30.5 28.5 -30.5 78.5q0 16 3 32l91 520q10 59 84 59l-101 -576q-3 -15 -3 -27q0 -26 14.5 -38t46.5 -12q34 0 68 18q5 -7 5 -20q0 -27 -26.5 -45t-66.5 -18q-54 0 -84.5 28.5zM260 898q22 31 77 31h48l-139 -145q-13 -13 -27 -16.5t-53 -2.5z" />
    <glyph glyph-name="lcaron" unicode="&#x13e;" horiz-adv-x="427" 
d="M79.5 19.5q-30.5 28.5 -30.5 78.5q0 16 3 32l91 520q10 59 84 59l-101 -576q-3 -15 -3 -27q0 -26 14.5 -38t46.5 -12q34 0 68 18q5 -7 5 -20q0 -27 -26.5 -45t-66.5 -18q-54 0 -84.5 28.5zM390 589q22 32 27 60q-16 -4 -23 -4q-24 0 -37 12t-13 34q0 32 23 54.5t55 22.5
q26 0 41 -15t15 -39q0 -51 -30.5 -102t-72.5 -84q-7 -6 -23 -6q-14 0 -19 5q35 30 57 62z" />
    <glyph glyph-name="uni013C" unicode="&#x13c;" horiz-adv-x="332" 
d="M79.5 19.5q-30.5 28.5 -30.5 78.5q0 16 3 32l91 520q10 59 84 59l-101 -576q-3 -15 -3 -27q0 -26 14.5 -38t46.5 -12q34 0 68 18q5 -7 5 -20q0 -27 -26.5 -45t-66.5 -18q-54 0 -84.5 28.5zM130 -168q-4 -2 -10 -3.5t-13 -1.5q-23 0 -36 12.5t-13 33.5q0 32 23 55t55 23
q26 0 41.5 -15t15.5 -39q0 -51 -31 -101.5t-73 -85.5q-9 -6 -23 -6q-15 0 -19 6q74 64 83 122z" />
    <glyph glyph-name="ldot" unicode="&#x140;" horiz-adv-x="416" 
d="M79.5 19.5q-30.5 28.5 -30.5 78.5q0 16 3 32l91 520q10 59 84 59l-101 -576q-3 -15 -3 -27q0 -26 14.5 -38t46.5 -12q34 0 68 18q5 -7 5 -20q0 -27 -26.5 -45t-66.5 -18q-54 0 -84.5 28.5zM255.5 245q-14.5 14 -14.5 36q0 29 22.5 51t51.5 22q22 0 37 -15t15 -37
q0 -27 -22.5 -49t-51.5 -22q-23 0 -37.5 14z" />
    <glyph glyph-name="uni1E37" unicode="&#x1e37;" horiz-adv-x="332" 
d="M79.5 19.5q-30.5 28.5 -30.5 78.5q0 16 3 32l91 520q10 59 84 59l-101 -576q-3 -15 -3 -27q0 -26 14.5 -38t46.5 -12q34 0 68 18q5 -7 5 -20q0 -27 -26.5 -45t-66.5 -18q-54 0 -84.5 28.5zM87 -159q-12 11 -12 29q0 24 18 41.5t43 17.5q18 0 29.5 -11.5t11.5 -28.5
q0 -24 -17.5 -41.5t-41.5 -17.5q-19 0 -31 11z" />
    <glyph glyph-name="uni1E39" unicode="&#x1e39;" horiz-adv-x="332" 
d="M79.5 19.5q-30.5 28.5 -30.5 78.5q0 16 3 32l91 520q10 59 84 59l-101 -576q-3 -15 -3 -27q0 -26 14.5 -38t46.5 -12q34 0 68 18q5 -7 5 -20q0 -27 -26.5 -45t-66.5 -18q-54 0 -84.5 28.5zM87 -159q-12 11 -12 29q0 24 18 41.5t43 17.5q18 0 29.5 -11.5t11.5 -28.5
q0 -24 -17.5 -41.5t-41.5 -17.5q-19 0 -31 11zM78.5 836q18.5 16 49.5 16h249q-5 -30 -24 -46t-49 -16h-249q5 30 23.5 46z" />
    <glyph glyph-name="uni1E3B" unicode="&#x1e3b;" horiz-adv-x="332" 
d="M79.5 19.5q-30.5 28.5 -30.5 78.5q0 16 3 32l91 520q10 59 84 59l-101 -576q-3 -15 -3 -27q0 -26 14.5 -38t46.5 -12q34 0 68 18q5 -7 5 -20q0 -27 -26.5 -45t-66.5 -18q-54 0 -84.5 28.5zM43 -59h249q-5 -29 -24 -45.5t-49 -16.5h-249q11 62 73 62z" />
    <glyph glyph-name="lslash" unicode="&#x142;" horiz-adv-x="384" 
d="M175 133q-3 -15 -3 -27q0 -26 14.5 -38t46.5 -12q34 0 68 18q5 -7 5 -20q0 -27 -26.5 -45t-66.5 -18q-54 0 -84.5 28.5t-30.5 78.5q0 16 3 32l28 158l-78 -44q-5 11 -5 26q0 33 32 51l63 36l51 293q10 59 84 59l-54 -306l101 57q7 -13 7 -28t-8.5 -28t-23.5 -21l-88 -49z
" />
    <glyph glyph-name="m" unicode="m" horiz-adv-x="769" 
d="M107 443q12 66 82 66l-12 -66q-13 -12 -24 -24l3 -5q83 95 167 95q41 0 68.5 -23t37.5 -64q35 42 79 64.5t91 22.5q59 0 92 -34t33 -93q0 -24 -4 -44l-51 -288q-5 -30 -25.5 -44.5t-57.5 -14.5l61 344q3 20 3 35q0 75 -72 75q-49 0 -90 -34t-49 -82l-49 -279
q-5 -30 -25 -44.5t-57 -14.5l61 344q3 18 3 33q0 38 -18.5 57.5t-54.5 19.5q-31 0 -61.5 -16.5t-51.5 -43.5t-26 -57l-49 -278q-6 -30 -26.5 -44.5t-57.5 -14.5z" />
    <glyph glyph-name="uni1E43" unicode="&#x1e43;" horiz-adv-x="769" 
d="M107 443q12 66 82 66l-12 -66q-13 -12 -24 -24l3 -5q83 95 167 95q41 0 68.5 -23t37.5 -64q35 42 79 64.5t91 22.5q59 0 92 -34t33 -93q0 -24 -4 -44l-51 -288q-5 -30 -25.5 -44.5t-57.5 -14.5l61 344q3 20 3 35q0 75 -72 75q-49 0 -90 -34t-49 -82l-49 -279
q-5 -30 -25 -44.5t-57 -14.5l61 344q3 18 3 33q0 38 -18.5 57.5t-54.5 19.5q-31 0 -61.5 -16.5t-51.5 -43.5t-26 -57l-49 -278q-6 -30 -26.5 -44.5t-57.5 -14.5zM265 -159q-12 11 -12 29q0 24 18 41.5t43 17.5q18 0 29.5 -11.5t11.5 -28.5q0 -24 -17.5 -41.5t-41.5 -17.5
q-19 0 -31 11z" />
    <glyph glyph-name="n" unicode="n" horiz-adv-x="550" 
d="M107 443q11 66 82 66l-11 -66q-15 -13 -24 -24l3 -5q38 43 92 69t106 26q69 0 109.5 -37.5t40.5 -99.5q0 -16 -3 -34l-51 -288q-12 -59 -84 -59l60 342q3 15 3 29q0 82 -100 82q-38 0 -76 -16.5t-64 -44t-31 -57.5l-48 -276q-10 -59 -84 -59z" />
    <glyph glyph-name="nacute" unicode="&#x144;" horiz-adv-x="550" 
d="M107 443q11 66 82 66l-11 -66q-15 -13 -24 -24l3 -5q38 43 92 69t106 26q69 0 109.5 -37.5t40.5 -99.5q0 -16 -3 -34l-51 -288q-12 -59 -84 -59l60 342q3 15 3 29q0 82 -100 82q-38 0 -76 -16.5t-64 -44t-31 -57.5l-48 -276q-10 -59 -84 -59zM386 698q22 31 77 31h48
l-139 -145q-13 -13 -27 -16.5t-53 -2.5z" />
    <glyph glyph-name="napostrophe" unicode="&#x149;" horiz-adv-x="605" 
d="M162 443q11 66 82 66l-11 -66q-15 -13 -24 -24l3 -5q38 43 92 69t106 26q69 0 109.5 -37.5t40.5 -99.5q0 -16 -3 -34l-51 -288q-12 -59 -84 -59l60 342q3 15 3 29q0 82 -100 82q-38 0 -76 -16.5t-64 -44t-31 -57.5l-48 -276q-10 -59 -84 -59zM97 506q22 32 27 60
q-16 -4 -23 -4q-24 0 -37 12t-13 34q0 32 23 54.5t55 22.5q26 0 41 -15t15 -39q0 -51 -30.5 -102t-72.5 -84q-7 -6 -23 -6q-14 0 -19 5q35 30 57 62z" />
    <glyph glyph-name="ncaron" unicode="&#x148;" horiz-adv-x="550" 
d="M107 443q11 66 82 66l-11 -66q-15 -13 -24 -24l3 -5q38 43 92 69t106 26q69 0 109.5 -37.5t40.5 -99.5q0 -16 -3 -34l-51 -288q-12 -59 -84 -59l60 342q3 15 3 29q0 82 -100 82q-38 0 -76 -16.5t-64 -44t-31 -57.5l-48 -276q-10 -59 -84 -59zM439 726q15 15 40 15
q29 0 41 -19l-161 -143q-13 -11 -27 -11q-15 0 -23 11l-111 143q19 19 49 19q25 0 35 -15l62 -93z" />
    <glyph glyph-name="uni0146" unicode="&#x146;" horiz-adv-x="550" 
d="M107 443q11 66 82 66l-11 -66q-15 -13 -24 -24l3 -5q38 43 92 69t106 26q69 0 109.5 -37.5t40.5 -99.5q0 -16 -3 -34l-51 -288q-12 -59 -84 -59l60 342q3 15 3 29q0 82 -100 82q-38 0 -76 -16.5t-64 -44t-31 -57.5l-48 -276q-10 -59 -84 -59zM216 -168q-4 -2 -10 -3.5
t-13 -1.5q-23 0 -36 12.5t-13 33.5q0 32 23 55t55 23q26 0 41.5 -15t15.5 -39q0 -51 -31 -101.5t-73 -85.5q-9 -6 -23 -6q-15 0 -19 6q74 64 83 122z" />
    <glyph glyph-name="uni1E45" unicode="&#x1e45;" horiz-adv-x="550" 
d="M107 443q11 66 82 66l-11 -66q-15 -13 -24 -24l3 -5q38 43 92 69t106 26q69 0 109.5 -37.5t40.5 -99.5q0 -16 -3 -34l-51 -288q-12 -59 -84 -59l60 342q3 15 3 29q0 82 -100 82q-38 0 -76 -16.5t-64 -44t-31 -57.5l-48 -276q-10 -59 -84 -59zM304 591q-12 11 -12 29
q0 25 18 42t43 17q19 0 30 -11t11 -29q0 -24 -17.5 -41.5t-41.5 -17.5q-19 0 -31 11z" />
    <glyph glyph-name="uni1E47" unicode="&#x1e47;" horiz-adv-x="550" 
d="M107 443q11 66 82 66l-11 -66q-15 -13 -24 -24l3 -5q38 43 92 69t106 26q69 0 109.5 -37.5t40.5 -99.5q0 -16 -3 -34l-51 -288q-12 -59 -84 -59l60 342q3 15 3 29q0 82 -100 82q-38 0 -76 -16.5t-64 -44t-31 -57.5l-48 -276q-10 -59 -84 -59zM172 -159q-12 11 -12 29
q0 24 18 41.5t43 17.5q18 0 29.5 -11.5t11.5 -28.5q0 -24 -17.5 -41.5t-41.5 -17.5q-19 0 -31 11z" />
    <glyph glyph-name="eng" unicode="&#x14b;" horiz-adv-x="549" 
d="M107 443q11 66 82 66l-11 -66q-16 -14 -24 -24l3 -5q38 43 92 69t106 26q68 0 108.5 -38.5t40.5 -100.5q0 -15 -3 -32l-71 -403q-12 -68 -55.5 -106t-108.5 -38q-32 0 -55 15t-23 37q0 9 4.5 19t12.5 17q10 -10 27.5 -16.5t35.5 -6.5q39 0 60 19.5t29 63.5l69 394
q3 15 3 28q0 41 -25 62t-74 21q-38 0 -76 -16.5t-64 -44t-31 -57.5l-48 -276q-10 -59 -84 -59z" />
    <glyph glyph-name="uni1E49" unicode="&#x1e49;" horiz-adv-x="550" 
d="M107 443q11 66 82 66l-11 -66q-15 -13 -24 -24l3 -5q38 43 92 69t106 26q69 0 109.5 -37.5t40.5 -99.5q0 -16 -3 -34l-51 -288q-12 -59 -84 -59l60 342q3 15 3 29q0 82 -100 82q-38 0 -76 -16.5t-64 -44t-31 -57.5l-48 -276q-10 -59 -84 -59zM128 -59h249
q-5 -29 -24 -45.5t-49 -16.5h-249q11 62 73 62z" />
    <glyph glyph-name="ntilde" unicode="&#xf1;" horiz-adv-x="550" 
d="M107 443q11 66 82 66l-11 -66q-15 -13 -24 -24l3 -5q38 43 92 69t106 26q69 0 109.5 -37.5t40.5 -99.5q0 -16 -3 -34l-51 -288q-12 -59 -84 -59l60 342q3 15 3 29q0 82 -100 82q-38 0 -76 -16.5t-64 -44t-31 -57.5l-48 -276q-10 -59 -84 -59zM199.5 580q-9.5 11 -9.5 28
q0 34 27.5 58t66.5 24q24 0 41 -9.5t37 -27.5q15 -13 24.5 -19t20.5 -6q16 0 26 10t10 29q0 9 -3 19q8 4 20 4q15 0 24 -11.5t9 -28.5q0 -34 -26.5 -57.5t-64.5 -23.5q-22 0 -38.5 9.5t-36.5 27.5q-16 14 -26 20.5t-22 6.5q-18 0 -28.5 -10.5t-10.5 -29.5q0 -12 4 -20
q-9 -4 -20 -4q-15 0 -24.5 11z" />
    <glyph glyph-name="o" unicode="o" horiz-adv-x="527" 
d="M125 9.5q-41 18.5 -65 51.5t-24 75q0 17 2 26l30 172q14 80 80.5 127.5t160.5 47.5q54 0 95.5 -20t64 -54.5t22.5 -75.5q0 -7 -2 -25l-31 -172q-13 -75 -78 -123t-163 -48q-51 0 -92 18.5zM335.5 85q43.5 30 51.5 79l29 168q2 16 2 23q0 41 -30.5 65.5t-90.5 24.5
q-63 0 -106.5 -31.5t-52.5 -81.5l-29 -168q-2 -14 -2 -19q0 -41 30.5 -65.5t91.5 -24.5q63 0 106.5 30z" />
    <glyph glyph-name="oacute" unicode="&#xf3;" horiz-adv-x="527" 
d="M125 9.5q-41 18.5 -65 51.5t-24 75q0 17 2 26l30 172q14 80 80.5 127.5t160.5 47.5q54 0 95.5 -20t64 -54.5t22.5 -75.5q0 -7 -2 -25l-31 -172q-13 -75 -78 -123t-163 -48q-51 0 -92 18.5zM335.5 85q43.5 30 51.5 79l29 168q2 16 2 23q0 41 -30.5 65.5t-90.5 24.5
q-63 0 -106.5 -31.5t-52.5 -81.5l-29 -168q-2 -14 -2 -19q0 -41 30.5 -65.5t91.5 -24.5q63 0 106.5 30zM370 698q22 31 77 31h48l-139 -145q-13 -13 -27 -16.5t-53 -2.5z" />
    <glyph glyph-name="obreve" unicode="&#x14f;" horiz-adv-x="527" 
d="M125 9.5q-41 18.5 -65 51.5t-24 75q0 17 2 26l30 172q14 80 80.5 127.5t160.5 47.5q54 0 95.5 -20t64 -54.5t22.5 -75.5q0 -7 -2 -25l-31 -172q-13 -75 -78 -123t-163 -48q-51 0 -92 18.5zM335.5 85q43.5 30 51.5 79l29 168q2 16 2 23q0 41 -30.5 65.5t-90.5 24.5
q-63 0 -106.5 -31.5t-52.5 -81.5l-29 -168q-2 -14 -2 -19q0 -41 30.5 -65.5t91.5 -24.5q63 0 106.5 30zM219.5 594q-41.5 29 -41.5 78q0 36 20 55.5t56 19.5q-4 -20 -4 -40q0 -79 77 -79q94 0 115 119q29 0 42.5 -12t13.5 -31q0 -35 -26 -67t-68 -52t-88 -20q-55 0 -96.5 29
z" />
    <glyph glyph-name="uni01D2" unicode="&#x1d2;" horiz-adv-x="527" 
d="M125 9.5q-41 18.5 -65 51.5t-24 75q0 17 2 26l30 172q14 80 80.5 127.5t160.5 47.5q54 0 95.5 -20t64 -54.5t22.5 -75.5q0 -7 -2 -25l-31 -172q-13 -75 -78 -123t-163 -48q-51 0 -92 18.5zM335.5 85q43.5 30 51.5 79l29 168q2 16 2 23q0 41 -30.5 65.5t-90.5 24.5
q-63 0 -106.5 -31.5t-52.5 -81.5l-29 -168q-2 -14 -2 -19q0 -41 30.5 -65.5t91.5 -24.5q63 0 106.5 30zM423 726q15 15 40 15q29 0 41 -19l-161 -143q-13 -11 -27 -11q-15 0 -23 11l-111 143q19 19 49 19q25 0 35 -15l62 -93z" />
    <glyph glyph-name="ocircumflex" unicode="&#xf4;" horiz-adv-x="527" 
d="M125 9.5q-41 18.5 -65 51.5t-24 75q0 17 2 26l30 172q14 80 80.5 127.5t160.5 47.5q54 0 95.5 -20t64 -54.5t22.5 -75.5q0 -7 -2 -25l-31 -172q-13 -75 -78 -123t-163 -48q-51 0 -92 18.5zM335.5 85q43.5 30 51.5 79l29 168q2 16 2 23q0 41 -30.5 65.5t-90.5 24.5
q-63 0 -106.5 -31.5t-52.5 -81.5l-29 -168q-2 -14 -2 -19q0 -41 30.5 -65.5t91.5 -24.5q63 0 106.5 30zM201 569q-13 0 -24 5t-17 14l161 143q13 11 27 11q13 0 22 -11l112 -143q-20 -20 -50 -20q-23 0 -34 15l-62 94l-95 -94q-16 -14 -40 -14z" />
    <glyph glyph-name="uni1ED1" unicode="&#x1ed1;" horiz-adv-x="527" 
d="M125 9.5q-41 18.5 -65 51.5t-24 75q0 17 2 26l30 172q14 80 80.5 127.5t160.5 47.5q54 0 95.5 -20t64 -54.5t22.5 -75.5q0 -7 -2 -25l-31 -172q-13 -75 -78 -123t-163 -48q-51 0 -92 18.5zM335.5 85q43.5 30 51.5 79l29 168q2 16 2 23q0 41 -30.5 65.5t-90.5 24.5
q-63 0 -106.5 -31.5t-52.5 -81.5l-29 -168q-2 -14 -2 -19q0 -41 30.5 -65.5t91.5 -24.5q63 0 106.5 30zM492 819q10 15 26.5 21.5t43.5 6.5h34l-106 -114q-11 -12 -25 -15.5t-44 -2.5zM238 583q-16 -15 -39 -15q-14 0 -25 5t-17 15l162 143q13 11 26 11q14 0 23 -11
l111 -143q-9 -10 -22 -15t-27 -5q-24 0 -34 15l-62 94z" />
    <glyph glyph-name="uni1ED9" unicode="&#x1ed9;" horiz-adv-x="527" 
d="M125 9.5q-41 18.5 -65 51.5t-24 75q0 17 2 26l30 172q14 80 80.5 127.5t160.5 47.5q54 0 95.5 -20t64 -54.5t22.5 -75.5q0 -7 -2 -25l-31 -172q-13 -75 -78 -123t-163 -48q-51 0 -92 18.5zM335.5 85q43.5 30 51.5 79l29 168q2 16 2 23q0 41 -30.5 65.5t-90.5 24.5
q-63 0 -106.5 -31.5t-52.5 -81.5l-29 -168q-2 -14 -2 -19q0 -41 30.5 -65.5t91.5 -24.5q63 0 106.5 30zM162 -159q-12 11 -12 29q0 24 18 41.5t43 17.5q18 0 29.5 -11.5t11.5 -28.5q0 -24 -17.5 -41.5t-41.5 -17.5q-19 0 -31 11zM201 569q-13 0 -24 5t-17 14l161 143
q13 11 27 11q13 0 22 -11l112 -143q-20 -20 -50 -20q-23 0 -34 15l-62 94l-95 -94q-16 -14 -40 -14z" />
    <glyph glyph-name="uni1ED3" unicode="&#x1ed3;" horiz-adv-x="527" 
d="M125 9.5q-41 18.5 -65 51.5t-24 75q0 17 2 26l30 172q14 80 80.5 127.5t160.5 47.5q54 0 95.5 -20t64 -54.5t22.5 -75.5q0 -7 -2 -25l-31 -172q-13 -75 -78 -123t-163 -48q-51 0 -92 18.5zM335.5 85q43.5 30 51.5 79l29 168q2 16 2 23q0 41 -30.5 65.5t-90.5 24.5
q-63 0 -106.5 -31.5t-52.5 -81.5l-29 -168q-2 -14 -2 -19q0 -41 30.5 -65.5t91.5 -24.5q63 0 106.5 30zM461.5 717.5q-11.5 3.5 -18.5 15.5l-69 114h35q25 0 39.5 -6.5t20.5 -21.5l37 -104q-33 -1 -44.5 2.5zM239 583q-16 -15 -39 -15q-14 0 -25 5t-17 15l162 143
q13 11 26 11q14 0 23 -11l111 -143q-10 -10 -23 -15t-26 -5q-25 0 -34 15l-62 94z" />
    <glyph glyph-name="uni1ED5" unicode="&#x1ed5;" horiz-adv-x="527" 
d="M125 9.5q-41 18.5 -65 51.5t-24 75q0 17 2 26l30 172q14 80 80.5 127.5t160.5 47.5q54 0 95.5 -20t64 -54.5t22.5 -75.5q0 -7 -2 -25l-31 -172q-13 -75 -78 -123t-163 -48q-51 0 -92 18.5zM335.5 85q43.5 30 51.5 79l29 168q2 16 2 23q0 41 -30.5 65.5t-90.5 24.5
q-63 0 -106.5 -31.5t-52.5 -81.5l-29 -168q-2 -14 -2 -19q0 -41 30.5 -65.5t91.5 -24.5q63 0 106.5 30zM441 711q3 16 11.5 26.5t23.5 22.5q13 10 19.5 18.5t6.5 19.5q0 8 -7.5 13t-20.5 5q-18 0 -28.5 -10.5t-10.5 -29.5q0 -3 1 -5q-21 0 -33.5 6.5t-12.5 20.5
q0 24 28.5 43.5t65.5 19.5q33 0 53.5 -13.5t20.5 -38.5q0 -22 -9 -34.5t-26 -25.5q-14 -11 -20.5 -18t-8.5 -19t-12.5 -18.5t-26.5 -6.5q-6 0 -18 2zM239 583q-16 -15 -39 -15q-14 0 -25 5t-17 15l162 143q13 11 26 11q14 0 23 -11l111 -143q-10 -10 -23 -15t-26 -5
q-25 0 -34 15l-62 94z" />
    <glyph glyph-name="uni1ED7" unicode="&#x1ed7;" horiz-adv-x="527" 
d="M125 9.5q-41 18.5 -65 51.5t-24 75q0 17 2 26l30 172q14 80 80.5 127.5t160.5 47.5q54 0 95.5 -20t64 -54.5t22.5 -75.5q0 -7 -2 -25l-31 -172q-13 -75 -78 -123t-163 -48q-51 0 -92 18.5zM335.5 85q43.5 30 51.5 79l29 168q2 16 2 23q0 41 -30.5 65.5t-90.5 24.5
q-63 0 -106.5 -31.5t-52.5 -81.5l-29 -168q-2 -14 -2 -19q0 -41 30.5 -65.5t91.5 -24.5q63 0 106.5 30zM235 768q-9 10 -9 26q0 31 25 53t60 22q22 0 37.5 -8.5t33.5 -24.5q13 -11 22 -16.5t19 -5.5q16 0 24.5 8.5t8.5 23.5q0 7 -4 19q12 4 18 4q14 0 23 -10.5t9 -25.5
q0 -31 -24 -51.5t-59 -20.5q-20 0 -34.5 8t-33.5 24q-14 12 -23.5 18t-20.5 6q-16 0 -25 -11t-9 -29q0 -11 2 -16q-15 -3 -17 -3q-14 0 -23 10zM200 568q-14 0 -25 5t-17 15l162 143q13 11 26 11q14 0 23 -11l111 -143q-10 -10 -23 -15t-26 -5q-25 0 -34 15l-62 94l-96 -94
q-16 -15 -39 -15z" />
    <glyph glyph-name="odieresis" unicode="&#xf6;" horiz-adv-x="527" 
d="M125 9.5q-41 18.5 -65 51.5t-24 75q0 17 2 26l30 172q14 80 80.5 127.5t160.5 47.5q54 0 95.5 -20t64 -54.5t22.5 -75.5q0 -7 -2 -25l-31 -172q-13 -75 -78 -123t-163 -48q-51 0 -92 18.5zM335.5 85q43.5 30 51.5 79l29 168q2 16 2 23q0 41 -30.5 65.5t-90.5 24.5
q-63 0 -106.5 -31.5t-52.5 -81.5l-29 -168q-2 -14 -2 -19q0 -41 30.5 -65.5t91.5 -24.5q63 0 106.5 30zM194.5 591q-11.5 11 -11.5 28q0 25 17.5 42.5t42.5 17.5q19 0 30 -11t11 -29q0 -24 -17 -41.5t-42 -17.5q-19 0 -30.5 11zM381.5 591q-11.5 11 -11.5 28q0 25 17.5 42.5
t42.5 17.5q19 0 30.5 -11t11.5 -29q0 -24 -17.5 -41.5t-42.5 -17.5q-19 0 -30.5 11z" />
    <glyph glyph-name="uni1ECD" unicode="&#x1ecd;" horiz-adv-x="527" 
d="M125 9.5q-41 18.5 -65 51.5t-24 75q0 17 2 26l30 172q14 80 80.5 127.5t160.5 47.5q54 0 95.5 -20t64 -54.5t22.5 -75.5q0 -7 -2 -25l-31 -172q-13 -75 -78 -123t-163 -48q-51 0 -92 18.5zM335.5 85q43.5 30 51.5 79l29 168q2 16 2 23q0 41 -30.5 65.5t-90.5 24.5
q-63 0 -106.5 -31.5t-52.5 -81.5l-29 -168q-2 -14 -2 -19q0 -41 30.5 -65.5t91.5 -24.5q63 0 106.5 30zM162 -159q-12 11 -12 29q0 24 18 41.5t43 17.5q18 0 29.5 -11.5t11.5 -28.5q0 -24 -17.5 -41.5t-41.5 -17.5q-19 0 -31 11z" />
    <glyph glyph-name="ograve" unicode="&#xf2;" horiz-adv-x="527" 
d="M125 9.5q-41 18.5 -65 51.5t-24 75q0 17 2 26l30 172q14 80 80.5 127.5t160.5 47.5q54 0 95.5 -20t64 -54.5t22.5 -75.5q0 -7 -2 -25l-31 -172q-13 -75 -78 -123t-163 -48q-51 0 -92 18.5zM335.5 85q43.5 30 51.5 79l29 168q2 16 2 23q0 41 -30.5 65.5t-90.5 24.5
q-63 0 -106.5 -31.5t-52.5 -81.5l-29 -168q-2 -14 -2 -19q0 -41 30.5 -65.5t91.5 -24.5q63 0 106.5 30zM309 567.5q-13 3.5 -21 16.5l-92 145h48q27 0 43 -7t22 -23l51 -134q-38 -1 -51 2.5z" />
    <glyph glyph-name="uni1ECF" unicode="&#x1ecf;" horiz-adv-x="527" 
d="M125 9.5q-41 18.5 -65 51.5t-24 75q0 17 2 26l30 172q14 80 80.5 127.5t160.5 47.5q54 0 95.5 -20t64 -54.5t22.5 -75.5q0 -7 -2 -25l-31 -172q-13 -75 -78 -123t-163 -48q-51 0 -92 18.5zM335.5 85q43.5 30 51.5 79l29 168q2 16 2 23q0 41 -30.5 65.5t-90.5 24.5
q-63 0 -106.5 -31.5t-52.5 -81.5l-29 -168q-2 -14 -2 -19q0 -41 30.5 -65.5t91.5 -24.5q63 0 106.5 30zM297 594q3 18 13 29.5t28 26.5q16 12 24 22t8 25q0 21 -30 21q-20 0 -31.5 -13t-11.5 -36v-6q-24 0 -38 8t-14 23q0 29 32 52t74 23q37 0 60 -15.5t23 -44.5
q0 -26 -10.5 -40.5t-30.5 -28.5q-16 -12 -24 -21t-11 -23t-14.5 -21.5t-28.5 -7.5q-11 0 -23 3z" />
    <glyph glyph-name="ohorn" unicode="&#x1a1;" horiz-adv-x="554" 
d="M589 416.5q-37 -41.5 -98 -60.5q0 -8 -2 -22l-31 -172q-13 -75 -78 -123t-163 -48q-51 0 -92 18.5t-65 51.5t-24 75q0 17 2 26l30 172q14 80 80.5 127.5t160.5 47.5q66 0 113 -29.5t62 -76.5q38 19 54 49.5t29 98.5q59 0 59 -45q0 -48 -37 -89.5zM418 355
q0 41 -30.5 65.5t-90.5 24.5q-63 0 -106.5 -31.5t-52.5 -81.5l-29 -168q-2 -14 -2 -19q0 -41 30.5 -65.5t91.5 -24.5q63 0 106.5 30t51.5 79l29 168q2 16 2 23z" />
    <glyph glyph-name="uni1EDB" unicode="&#x1edb;" horiz-adv-x="554" 
d="M589 416.5q-37 -41.5 -98 -60.5q0 -8 -2 -22l-31 -172q-13 -75 -78 -123t-163 -48q-51 0 -92 18.5t-65 51.5t-24 75q0 17 2 26l30 172q14 80 80.5 127.5t160.5 47.5q66 0 113 -29.5t62 -76.5q38 19 54 49.5t29 98.5q59 0 59 -45q0 -48 -37 -89.5zM418 355
q0 41 -30.5 65.5t-90.5 24.5q-63 0 -106.5 -31.5t-52.5 -81.5l-29 -168q-2 -14 -2 -19q0 -41 30.5 -65.5t91.5 -24.5q63 0 106.5 30t51.5 79l29 168q2 16 2 23zM383 707q22 31 77 31h48l-139 -145q-13 -13 -27 -16.5t-53 -2.5z" />
    <glyph glyph-name="uni1EE3" unicode="&#x1ee3;" horiz-adv-x="554" 
d="M589 416.5q-37 -41.5 -98 -60.5q0 -8 -2 -22l-31 -172q-13 -75 -78 -123t-163 -48q-51 0 -92 18.5t-65 51.5t-24 75q0 17 2 26l30 172q14 80 80.5 127.5t160.5 47.5q66 0 113 -29.5t62 -76.5q38 19 54 49.5t29 98.5q59 0 59 -45q0 -48 -37 -89.5zM418 355
q0 41 -30.5 65.5t-90.5 24.5q-63 0 -106.5 -31.5t-52.5 -81.5l-29 -168q-2 -14 -2 -19q0 -41 30.5 -65.5t91.5 -24.5q63 0 106.5 30t51.5 79l29 168q2 16 2 23zM167 -159q-12 11 -12 29q0 24 18 41.5t43 17.5q18 0 29.5 -11.5t11.5 -28.5q0 -24 -17.5 -41.5t-41.5 -17.5
q-19 0 -31 11z" />
    <glyph glyph-name="uni1EDD" unicode="&#x1edd;" horiz-adv-x="554" 
d="M589 416.5q-37 -41.5 -98 -60.5q0 -8 -2 -22l-31 -172q-13 -75 -78 -123t-163 -48q-51 0 -92 18.5t-65 51.5t-24 75q0 17 2 26l30 172q14 80 80.5 127.5t160.5 47.5q66 0 113 -29.5t62 -76.5q38 19 54 49.5t29 98.5q59 0 59 -45q0 -48 -37 -89.5zM418 355
q0 41 -30.5 65.5t-90.5 24.5q-63 0 -106.5 -31.5t-52.5 -81.5l-29 -168q-2 -14 -2 -19q0 -41 30.5 -65.5t91.5 -24.5q63 0 106.5 30t51.5 79l29 168q2 16 2 23zM322 576.5q-13 3.5 -21 16.5l-92 145h48q27 0 43 -7t22 -23l51 -134q-38 -1 -51 2.5z" />
    <glyph glyph-name="uni1EDF" unicode="&#x1edf;" horiz-adv-x="554" 
d="M589 416.5q-37 -41.5 -98 -60.5q0 -8 -2 -22l-31 -172q-13 -75 -78 -123t-163 -48q-51 0 -92 18.5t-65 51.5t-24 75q0 17 2 26l30 172q14 80 80.5 127.5t160.5 47.5q66 0 113 -29.5t62 -76.5q38 19 54 49.5t29 98.5q59 0 59 -45q0 -48 -37 -89.5zM418 355
q0 41 -30.5 65.5t-90.5 24.5q-63 0 -106.5 -31.5t-52.5 -81.5l-29 -168q-2 -14 -2 -19q0 -41 30.5 -65.5t91.5 -24.5q63 0 106.5 30t51.5 79l29 168q2 16 2 23zM310 603q3 18 13 29.5t28 26.5q16 12 24 22t8 25q0 21 -30 21q-20 0 -31.5 -13t-11.5 -36v-6q-24 0 -38 8
t-14 23q0 29 32 52t74 23q37 0 60 -15.5t23 -44.5q0 -26 -10.5 -40.5t-30.5 -28.5q-16 -12 -24 -21t-11 -23t-14.5 -21.5t-28.5 -7.5q-11 0 -23 3z" />
    <glyph glyph-name="uni1EE1" unicode="&#x1ee1;" horiz-adv-x="554" 
d="M589 416.5q-37 -41.5 -98 -60.5q0 -8 -2 -22l-31 -172q-13 -75 -78 -123t-163 -48q-51 0 -92 18.5t-65 51.5t-24 75q0 17 2 26l30 172q14 80 80.5 127.5t160.5 47.5q66 0 113 -29.5t62 -76.5q38 19 54 49.5t29 98.5q59 0 59 -45q0 -48 -37 -89.5zM418 355
q0 41 -30.5 65.5t-90.5 24.5q-63 0 -106.5 -31.5t-52.5 -81.5l-29 -168q-2 -14 -2 -19q0 -41 30.5 -65.5t91.5 -24.5q63 0 106.5 30t51.5 79l29 168q2 16 2 23zM196.5 589q-9.5 11 -9.5 28q0 34 27.5 58t66.5 24q24 0 41 -9.5t37 -27.5q15 -13 24.5 -19t20.5 -6q16 0 26 10
t10 29q0 9 -3 19q8 4 20 4q15 0 24 -11.5t9 -28.5q0 -34 -26.5 -57.5t-64.5 -23.5q-22 0 -38.5 9.5t-36.5 27.5q-16 14 -26 20.5t-22 6.5q-18 0 -28.5 -10.5t-10.5 -29.5q0 -12 4 -20q-9 -4 -20 -4q-15 0 -24.5 11z" />
    <glyph glyph-name="ohungarumlaut" unicode="&#x151;" horiz-adv-x="527" 
d="M125 9.5q-41 18.5 -65 51.5t-24 75q0 17 2 26l30 172q14 80 80.5 127.5t160.5 47.5q54 0 95.5 -20t64 -54.5t22.5 -75.5q0 -7 -2 -25l-31 -172q-13 -75 -78 -123t-163 -48q-51 0 -92 18.5zM335.5 85q43.5 30 51.5 79l29 168q2 16 2 23q0 41 -30.5 65.5t-90.5 24.5
q-63 0 -106.5 -31.5t-52.5 -81.5l-29 -168q-2 -14 -2 -19q0 -41 30.5 -65.5t91.5 -24.5q63 0 106.5 30zM282 699q24 30 76 30h46l-143 -145q-12 -13 -26.5 -16.5t-50.5 -2.5zM460 699q21 30 76 30h46l-140 -145q-11 -13 -25.5 -16.5t-51.5 -2.5z" />
    <glyph glyph-name="omacron" unicode="&#x14d;" horiz-adv-x="527" 
d="M125 9.5q-41 18.5 -65 51.5t-24 75q0 17 2 26l30 172q14 80 80.5 127.5t160.5 47.5q54 0 95.5 -20t64 -54.5t22.5 -75.5q0 -7 -2 -25l-31 -172q-13 -75 -78 -123t-163 -48q-51 0 -92 18.5zM335.5 85q43.5 30 51.5 79l29 168q2 16 2 23q0 41 -30.5 65.5t-90.5 24.5
q-63 0 -106.5 -31.5t-52.5 -81.5l-29 -168q-2 -14 -2 -19q0 -41 30.5 -65.5t91.5 -24.5q63 0 106.5 30zM188.5 636q18.5 16 49.5 16h249q-5 -30 -24 -46t-49 -16h-249q5 30 23.5 46z" />
    <glyph glyph-name="oslash" unicode="&#xf8;" horiz-adv-x="527" 
d="M491 360q0 -17 -2 -26l-31 -172q-14 -77 -78.5 -124t-162.5 -47q-45 0 -85 16l-23 -34q-22 -31 -56 -31q-17 0 -29 8l59 86q-47 41 -47 100q0 17 2 26l30 172q14 80 79 127.5t162 47.5q47 0 85 -16l28 41q10 15 25 23t30 8q14 0 30 -8l-63 -93q47 -42 47 -104zM108 145
q0 -31 15 -50l233 342q-27 8 -59 8q-63 0 -106.5 -31.5t-52.5 -81.5l-29 -168q-1 -7 -1 -19zM418 354q0 29 -15 50l-233 -341q26 -8 58 -8q64 0 107.5 30t51.5 79l29 168q2 16 2 22z" />
    <glyph glyph-name="oslashacute" unicode="&#x1ff;" horiz-adv-x="527" 
d="M491 360q0 -17 -2 -26l-31 -172q-14 -77 -78.5 -124t-162.5 -47q-45 0 -85 16l-23 -34q-22 -31 -56 -31q-17 0 -29 8l59 86q-47 41 -47 100q0 17 2 26l30 172q14 80 79 127.5t162 47.5q47 0 85 -16l28 41q10 15 25 23t30 8q14 0 30 -8l-63 -93q47 -42 47 -104zM108 145
q0 -31 15 -50l233 342q-27 8 -59 8q-63 0 -106.5 -31.5t-52.5 -81.5l-29 -168q-1 -7 -1 -19zM418 354q0 29 -15 50l-233 -341q26 -8 58 -8q64 0 107.5 30t51.5 79l29 168q2 16 2 22zM375 707q22 31 77 31h48l-139 -145q-13 -13 -27 -16.5t-53 -2.5z" />
    <glyph glyph-name="otilde" unicode="&#xf5;" horiz-adv-x="527" 
d="M125 9.5q-41 18.5 -65 51.5t-24 75q0 17 2 26l30 172q14 80 80.5 127.5t160.5 47.5q54 0 95.5 -20t64 -54.5t22.5 -75.5q0 -7 -2 -25l-31 -172q-13 -75 -78 -123t-163 -48q-51 0 -92 18.5zM335.5 85q43.5 30 51.5 79l29 168q2 16 2 23q0 41 -30.5 65.5t-90.5 24.5
q-63 0 -106.5 -31.5t-52.5 -81.5l-29 -168q-2 -14 -2 -19q0 -41 30.5 -65.5t91.5 -24.5q63 0 106.5 30zM183.5 580q-9.5 11 -9.5 28q0 34 27.5 58t66.5 24q24 0 41 -9.5t37 -27.5q15 -13 24.5 -19t20.5 -6q16 0 26 10t10 29q0 9 -3 19q8 4 20 4q15 0 24 -11.5t9 -28.5
q0 -34 -26.5 -57.5t-64.5 -23.5q-22 0 -38.5 9.5t-36.5 27.5q-16 14 -26 20.5t-22 6.5q-18 0 -28.5 -10.5t-10.5 -29.5q0 -12 4 -20q-9 -4 -20 -4q-15 0 -24.5 11z" />
    <glyph glyph-name="oe" unicode="&#x153;" horiz-adv-x="854" 
d="M121 9.5q-41 18.5 -63.5 51t-22.5 73.5q0 13 3 28l30 172q8 48 42 88t85.5 63.5t112.5 23.5q57 0 98 -23t60 -62q33 39 81.5 62t101.5 23q76 0 124.5 -42.5t48.5 -109.5q0 -16 -3 -31l-11 -66q-2 -12 -14 -22t-27 -10h-303l-9 -55q-2 -9 -2 -26q0 -45 29.5 -69.5
t85.5 -24.5q64 0 104.5 29t49.5 80q22 1 36.5 -10.5t14.5 -29.5q0 -32 -27 -62.5t-74.5 -49.5t-105.5 -19q-57 0 -101 22t-62 60q-33 -38 -81.5 -60t-105.5 -22q-54 0 -95 18.5zM744 287l7 39q2 16 2 23q0 44 -32 71t-84 27q-59 0 -102.5 -33.5t-52.5 -87.5l-7 -39h269z
M333 85q43 30 52 79l29 168q2 14 2 20q0 42 -31.5 67.5t-88.5 25.5q-62 0 -105.5 -31.5t-52.5 -81.5l-29 -168q-1 -6 -1 -18q0 -40 31.5 -65.5t88.5 -25.5q62 0 105 30z" />
    <glyph glyph-name="p" unicode="p" horiz-adv-x="550" 
d="M106 443q13 66 83 66l-10 -57q-17 -15 -25 -25l2 -4q86 86 182 86q76 0 121 -38.5t45 -101.5q0 -15 -3 -32l-31 -175q-13 -80 -74 -125.5t-153 -45.5t-147 76l-3 -5q7 -13 16 -23l-33 -186q-10 -62 -85 -62zM348.5 85q40.5 29 49.5 79l30 171q2 8 2 24q0 40 -30 62.5
t-87 22.5q-56 0 -100.5 -30.5t-51.5 -73.5l-31 -181q-2 -12 -2 -17q0 -39 32 -62.5t86 -23.5q62 0 102.5 29z" />
    <glyph glyph-name="thorn" unicode="&#xfe;" horiz-adv-x="540" 
d="M142 643q5 31 26.5 48.5t56.5 17.5l-45 -257q-13 -10 -25 -25l2 -4q86 86 181 86q74 0 120 -39.5t46 -102.5q0 -15 -3 -30l-31 -175q-13 -79 -74 -125t-152 -46q-92 0 -147 76l-4 -5q14 -19 17 -23l-33 -186q-10 -62 -85 -62zM348.5 85q40.5 29 49.5 79l30 171q2 8 2 23
q0 41 -30.5 63.5t-85.5 22.5q-56 0 -100.5 -30.5t-51.5 -73.5l-32 -181q-1 -5 -1 -16q0 -39 32 -63t86 -24q61 0 101.5 29z" />
    <glyph glyph-name="q" unicode="q" horiz-adv-x="551" 
d="M406 -147q-10 -62 -85 -62l44 248q17 13 25 23l-2 5q-38 -35 -85.5 -55.5t-90.5 -20.5q-75 0 -121.5 39.5t-46.5 102.5q0 14 3 29l31 175q14 80 74.5 126t151.5 46q96 0 149 -86l3 4l-15 25q9 57 81 57zM200.5 416q-39.5 -28 -49.5 -81l-30 -171q-2 -16 -2 -22
q0 -41 30 -63.5t85 -22.5t100 30.5t53 72.5l32 181q1 5 1 14q0 39 -32.5 64.5t-83.5 25.5q-64 0 -103.5 -28z" />
    <glyph glyph-name="r" unicode="r" horiz-adv-x="395" 
d="M211 410q-43 -34 -52 -84l-48 -276q-10 -59 -84 -59l80 452q12 66 82 66l-10 -62q-9 -9 -27 -28l3 -4q82 94 176 94q29 0 45.5 -12t16.5 -32t-14 -36q-12 7 -31 11t-39 4q-55 0 -98 -34z" />
    <glyph glyph-name="racute" unicode="&#x155;" horiz-adv-x="395" 
d="M211 410q-43 -34 -52 -84l-48 -276q-10 -59 -84 -59l80 452q12 66 82 66l-10 -62q-9 -9 -27 -28l3 -4q82 94 176 94q29 0 45.5 -12t16.5 -32t-14 -36q-12 7 -31 11t-39 4q-55 0 -98 -34zM321 698q22 31 77 31h48l-139 -145q-13 -13 -27 -16.5t-53 -2.5z" />
    <glyph glyph-name="rcaron" unicode="&#x159;" horiz-adv-x="395" 
d="M211 410q-43 -34 -52 -84l-48 -276q-10 -59 -84 -59l80 452q12 66 82 66l-10 -62q-9 -9 -27 -28l3 -4q82 94 176 94q29 0 45.5 -12t16.5 -32t-14 -36q-12 7 -31 11t-39 4q-55 0 -98 -34zM375 726q15 15 40 15q29 0 41 -19l-161 -143q-13 -11 -27 -11q-15 0 -23 11
l-111 143q19 19 49 19q25 0 35 -15l62 -93z" />
    <glyph glyph-name="uni0157" unicode="&#x157;" horiz-adv-x="395" 
d="M211 410q-43 -34 -52 -84l-48 -276q-10 -59 -84 -59l80 452q12 66 82 66l-10 -62q-9 -9 -27 -28l3 -4q82 94 176 94q29 0 45.5 -12t16.5 -32t-14 -36q-12 7 -31 11t-39 4q-55 0 -98 -34zM48 -168q-4 -2 -10 -3.5t-13 -1.5q-23 0 -36 12.5t-13 33.5q0 32 23 55t55 23
q26 0 41.5 -15t15.5 -39q0 -51 -31 -101.5t-73 -85.5q-9 -6 -23 -6q-15 0 -19 6q74 64 83 122z" />
    <glyph glyph-name="uni1E5B" unicode="&#x1e5b;" horiz-adv-x="395" 
d="M211 410q-43 -34 -52 -84l-48 -276q-10 -59 -84 -59l80 452q12 66 82 66l-10 -62q-9 -9 -27 -28l3 -4q82 94 176 94q29 0 45.5 -12t16.5 -32t-14 -36q-12 7 -31 11t-39 4q-55 0 -98 -34zM4 -159q-12 11 -12 29q0 24 18 41.5t43 17.5q18 0 29.5 -11.5t11.5 -28.5
q0 -24 -17.5 -41.5t-41.5 -17.5q-19 0 -31 11z" />
    <glyph glyph-name="uni1E5D" unicode="&#x1e5d;" horiz-adv-x="395" 
d="M211 410q-43 -34 -52 -84l-48 -276q-10 -59 -84 -59l80 452q12 66 82 66l-10 -62q-9 -9 -27 -28l3 -4q82 94 176 94q29 0 45.5 -12t16.5 -32t-14 -36q-12 7 -31 11t-39 4q-55 0 -98 -34zM4 -159q-12 11 -12 29q0 24 18 41.5t43 17.5q18 0 29.5 -11.5t11.5 -28.5
q0 -24 -17.5 -41.5t-41.5 -17.5q-19 0 -31 11zM140.5 636q18.5 16 49.5 16h249q-5 -30 -24 -46t-49 -16h-249q5 30 23.5 46z" />
    <glyph glyph-name="uni1E5F" unicode="&#x1e5f;" horiz-adv-x="395" 
d="M211 410q-43 -34 -52 -84l-48 -276q-10 -59 -84 -59l80 452q12 66 82 66l-10 -62q-9 -9 -27 -28l3 -4q82 94 176 94q29 0 45.5 -12t16.5 -32t-14 -36q-12 7 -31 11t-39 4q-55 0 -98 -34zM-39 -59h249q-5 -29 -24 -45.5t-49 -16.5h-249q11 62 73 62z" />
    <glyph glyph-name="s" unicode="s" horiz-adv-x="501" 
d="M115 5.5q-41 14.5 -64 40t-23 57.5q0 61 61 64q-3 -114 127 -114q68 0 105 24.5t37 68.5q0 29 -27.5 46t-99.5 33q-81 18 -118.5 49.5t-37.5 80.5q0 69 56 111.5t147 42.5q49 0 89 -13.5t63 -37.5t23 -54q0 -27 -17.5 -42.5t-49.5 -16.5q1 5 1 13q0 42 -30 66t-83 24
q-56 0 -91.5 -24.5t-35.5 -63.5q0 -26 24.5 -42t84.5 -29q89 -19 131.5 -52.5t42.5 -85.5q0 -76 -59 -118t-164 -42q-51 0 -92 14.5z" />
    <glyph glyph-name="sacute" unicode="&#x15b;" horiz-adv-x="501" 
d="M115 5.5q-41 14.5 -64 40t-23 57.5q0 61 61 64q-3 -114 127 -114q68 0 105 24.5t37 68.5q0 29 -27.5 46t-99.5 33q-81 18 -118.5 49.5t-37.5 80.5q0 69 56 111.5t147 42.5q49 0 89 -13.5t63 -37.5t23 -54q0 -27 -17.5 -42.5t-49.5 -16.5q1 5 1 13q0 42 -30 66t-83 24
q-56 0 -91.5 -24.5t-35.5 -63.5q0 -26 24.5 -42t84.5 -29q89 -19 131.5 -52.5t42.5 -85.5q0 -76 -59 -118t-164 -42q-51 0 -92 14.5zM348 698q22 31 77 31h48l-139 -145q-13 -13 -27 -16.5t-53 -2.5z" />
    <glyph glyph-name="scaron" unicode="&#x161;" horiz-adv-x="501" 
d="M115 5.5q-41 14.5 -64 40t-23 57.5q0 61 61 64q-3 -114 127 -114q68 0 105 24.5t37 68.5q0 29 -27.5 46t-99.5 33q-81 18 -118.5 49.5t-37.5 80.5q0 69 56 111.5t147 42.5q49 0 89 -13.5t63 -37.5t23 -54q0 -27 -17.5 -42.5t-49.5 -16.5q1 5 1 13q0 42 -30 66t-83 24
q-56 0 -91.5 -24.5t-35.5 -63.5q0 -26 24.5 -42t84.5 -29q89 -19 131.5 -52.5t42.5 -85.5q0 -76 -59 -118t-164 -42q-51 0 -92 14.5zM402 726q15 15 40 15q29 0 41 -19l-161 -143q-13 -11 -27 -11q-15 0 -23 11l-111 143q19 19 49 19q25 0 35 -15l62 -93z" />
    <glyph glyph-name="scedilla" unicode="&#x15f;" horiz-adv-x="501" 
d="M435.5 361.5q-17.5 -15.5 -49.5 -16.5q1 5 1 13q0 42 -30 66t-83 24q-56 0 -91.5 -24.5t-35.5 -63.5q0 -26 24.5 -42t84.5 -29q89 -19 131.5 -52.5t42.5 -85.5q0 -69 -48.5 -110t-137.5 -49l-33 -37q38 0 58.5 -18.5t20.5 -47.5q0 -44 -35 -74t-86 -30q-37 0 -61 15
t-24 37q0 19 16 32q22 -35 68 -35q26 0 41 13t15 35q0 15 -11 23t-29 8q-16 0 -36 -6q-7 -3 -14 2.5t-7 13.5q0 9 7 16l44 53q-67 6 -108.5 36.5t-41.5 74.5q0 61 61 64q-3 -114 127 -114q68 0 105 24.5t37 68.5q0 29 -27.5 46t-99.5 33q-81 18 -118.5 49.5t-37.5 80.5
q0 69 56 111.5t147 42.5q49 0 89 -13.5t63 -37.5t23 -54q0 -27 -17.5 -42.5z" />
    <glyph glyph-name="scircumflex" unicode="&#x15d;" horiz-adv-x="501" 
d="M115 5.5q-41 14.5 -64 40t-23 57.5q0 61 61 64q-3 -114 127 -114q68 0 105 24.5t37 68.5q0 29 -27.5 46t-99.5 33q-81 18 -118.5 49.5t-37.5 80.5q0 69 56 111.5t147 42.5q49 0 89 -13.5t63 -37.5t23 -54q0 -27 -17.5 -42.5t-49.5 -16.5q1 5 1 13q0 42 -30 66t-83 24
q-56 0 -91.5 -24.5t-35.5 -63.5q0 -26 24.5 -42t84.5 -29q89 -19 131.5 -52.5t42.5 -85.5q0 -76 -59 -118t-164 -42q-51 0 -92 14.5zM180 569q-13 0 -24 5t-17 14l161 143q13 11 27 11q13 0 22 -11l112 -143q-20 -20 -50 -20q-23 0 -34 15l-62 94l-95 -94q-16 -14 -40 -14z
" />
    <glyph glyph-name="uni0219" unicode="&#x219;" horiz-adv-x="501" 
d="M115 5.5q-41 14.5 -64 40t-23 57.5q0 61 61 64q-3 -114 127 -114q68 0 105 24.5t37 68.5q0 29 -27.5 46t-99.5 33q-81 18 -118.5 49.5t-37.5 80.5q0 69 56 111.5t147 42.5q49 0 89 -13.5t63 -37.5t23 -54q0 -27 -17.5 -42.5t-49.5 -16.5q1 5 1 13q0 42 -30 66t-83 24
q-56 0 -91.5 -24.5t-35.5 -63.5q0 -26 24.5 -42t84.5 -29q89 -19 131.5 -52.5t42.5 -85.5q0 -76 -59 -118t-164 -42q-51 0 -92 14.5zM195 -168q-4 -2 -10 -3.5t-13 -1.5q-23 0 -36 12.5t-13 33.5q0 32 23 55t55 23q26 0 41.5 -15t15.5 -39q0 -51 -31 -101.5t-73 -85.5
q-9 -6 -23 -6q-15 0 -19 6q74 64 83 122z" />
    <glyph glyph-name="uni1E61" unicode="&#x1e61;" horiz-adv-x="501" 
d="M115 5.5q-41 14.5 -64 40t-23 57.5q0 61 61 64q-3 -114 127 -114q68 0 105 24.5t37 68.5q0 29 -27.5 46t-99.5 33q-81 18 -118.5 49.5t-37.5 80.5q0 69 56 111.5t147 42.5q49 0 89 -13.5t63 -37.5t23 -54q0 -27 -17.5 -42.5t-49.5 -16.5q1 5 1 13q0 42 -30 66t-83 24
q-56 0 -91.5 -24.5t-35.5 -63.5q0 -26 24.5 -42t84.5 -29q89 -19 131.5 -52.5t42.5 -85.5q0 -76 -59 -118t-164 -42q-51 0 -92 14.5zM267 591q-12 11 -12 29q0 25 18 42t43 17q19 0 30 -11t11 -29q0 -24 -17.5 -41.5t-41.5 -17.5q-19 0 -31 11z" />
    <glyph glyph-name="uni1E63" unicode="&#x1e63;" horiz-adv-x="501" 
d="M115 5.5q-41 14.5 -64 40t-23 57.5q0 61 61 64q-3 -114 127 -114q68 0 105 24.5t37 68.5q0 29 -27.5 46t-99.5 33q-81 18 -118.5 49.5t-37.5 80.5q0 69 56 111.5t147 42.5q49 0 89 -13.5t63 -37.5t23 -54q0 -27 -17.5 -42.5t-49.5 -16.5q1 5 1 13q0 42 -30 66t-83 24
q-56 0 -91.5 -24.5t-35.5 -63.5q0 -26 24.5 -42t84.5 -29q89 -19 131.5 -52.5t42.5 -85.5q0 -76 -59 -118t-164 -42q-51 0 -92 14.5zM151 -159q-12 11 -12 29q0 24 18 41.5t43 17.5q18 0 29.5 -11.5t11.5 -28.5q0 -24 -17.5 -41.5t-41.5 -17.5q-19 0 -31 11z" />
    <glyph glyph-name="germandbls" unicode="&#xdf;" horiz-adv-x="553" 
d="M112 506q17 97 77.5 150t155.5 53q77 0 122.5 -39.5t45.5 -104.5q0 -64 -34 -115t-92 -75q110 -30 110 -137q0 -72 -27.5 -128t-77 -87.5t-113.5 -31.5q-40 0 -68 14t-28 34q0 8 4.5 19t12.5 20q29 -22 88 -22q37 0 67 23t47 63.5t17 90.5q0 54 -37 80t-115 27l9 59
q76 4 116 44.5t40 113.5q0 42 -25.5 64.5t-74.5 22.5q-56 0 -93 -35.5t-48 -98.5l-102 -578q-5 -33 -28.5 -50.5t-61.5 -17.5z" />
    <glyph glyph-name="t" unicode="t" horiz-adv-x="385" 
d="M133.5 19q-29.5 28 -29.5 78q0 17 3 33l54 309h-90q5 29 21.5 45t41.5 16h38l18 100q11 59 83 59l-28 -159h133q-5 -30 -22.5 -45.5t-45.5 -15.5h-75l-54 -306q-3 -16 -3 -28q0 -26 14 -37.5t45 -11.5q34 0 68 18q5 -6 5 -20q0 -27 -27 -45t-67 -18q-53 0 -82.5 28z" />
    <glyph glyph-name="tbar" unicode="&#x167;" horiz-adv-x="385" 
d="M235 439l-25 -144h127q-5 -28 -21.5 -43t-41.5 -15h-75l-18 -104q-3 -16 -3 -28q0 -26 14 -37.5t45 -11.5q34 0 68 18q5 -6 5 -20q0 -27 -27 -45t-67 -18q-53 0 -82.5 28t-29.5 78q0 17 3 33l19 107h-86q5 29 21.5 43.5t41.5 14.5h33l25 144h-90q5 29 21.5 45t41.5 16h38
l18 100q11 59 83 59l-28 -159h133q-5 -30 -22.5 -45.5t-45.5 -15.5h-75z" />
    <glyph glyph-name="tcaron" unicode="&#x165;" horiz-adv-x="494" 
d="M133.5 19q-29.5 28 -29.5 78q0 17 3 33l54 309h-90q5 29 21.5 45t41.5 16h38l18 100q11 59 83 59l-28 -159h133q-5 -30 -22.5 -45.5t-45.5 -15.5h-75l-54 -306q-3 -16 -3 -28q0 -26 14 -37.5t45 -11.5q34 0 68 18q5 -6 5 -20q0 -27 -27 -45t-67 -18q-53 0 -82.5 28z
M499 589q22 32 27 60q-16 -4 -23 -4q-24 0 -37 12t-13 34q0 32 23 54.5t55 22.5q26 0 41 -15t15 -39q0 -51 -30.5 -102t-72.5 -84q-7 -6 -23 -6q-14 0 -19 5q35 30 57 62z" />
    <glyph glyph-name="uni0163" unicode="&#x163;" horiz-adv-x="385" 
d="M378 500q-5 -30 -22.5 -45.5t-45.5 -15.5h-75l-54 -306q-3 -16 -3 -28q0 -26 14 -37.5t45 -11.5q34 0 68 18q5 -6 5 -20q0 -25 -23 -42.5t-58 -19.5l-32 -37q38 0 58 -18.5t20 -47.5q0 -44 -34.5 -74t-86.5 -30q-37 0 -60.5 15t-23.5 37q0 20 15 32q22 -35 68 -35
q26 0 41.5 13t15.5 35q0 15 -11 23t-29 8t-36 -6q-8 -3 -15 2.5t-7 13.5q0 9 7 16l50 59q-31 11 -48 37t-17 62q0 17 3 33l54 309h-90q5 29 21.5 45t41.5 16h38l18 100q11 59 83 59l-28 -159h133z" />
    <glyph glyph-name="uni021B" unicode="&#x21b;" horiz-adv-x="385" 
d="M133.5 19q-29.5 28 -29.5 78q0 17 3 33l54 309h-90q5 29 21.5 45t41.5 16h38l18 100q11 59 83 59l-28 -159h133q-5 -30 -22.5 -45.5t-45.5 -15.5h-75l-54 -306q-3 -16 -3 -28q0 -26 14 -37.5t45 -11.5q34 0 68 18q5 -6 5 -20q0 -27 -27 -45t-67 -18q-53 0 -82.5 28z
M180 -168q-4 -2 -10 -3.5t-13 -1.5q-23 0 -36 12.5t-13 33.5q0 32 23 55t55 23q26 0 41.5 -15t15.5 -39q0 -51 -31 -101.5t-73 -85.5q-9 -6 -23 -6q-15 0 -19 6q74 64 83 122z" />
    <glyph glyph-name="uni1E97" unicode="&#x1e97;" horiz-adv-x="385" 
d="M133.5 19q-29.5 28 -29.5 78q0 17 3 33l54 309h-90q5 29 21.5 45t41.5 16h38l18 100q11 59 83 59l-28 -159h133q-5 -30 -22.5 -45.5t-45.5 -15.5h-75l-54 -306q-3 -16 -3 -28q0 -26 14 -37.5t45 -11.5q34 0 68 18q5 -6 5 -20q0 -27 -27 -45t-67 -18q-53 0 -82.5 28z
M132.5 747q-11.5 11 -11.5 28q0 25 17.5 42.5t42.5 17.5q19 0 30 -11t11 -29q0 -24 -17 -41.5t-42 -17.5q-19 0 -30.5 11zM319.5 747q-11.5 11 -11.5 28q0 25 17.5 42.5t42.5 17.5q19 0 30.5 -11t11.5 -29q0 -24 -17.5 -41.5t-42.5 -17.5q-19 0 -30.5 11z" />
    <glyph glyph-name="uni1E6D" unicode="&#x1e6d;" horiz-adv-x="385" 
d="M133.5 19q-29.5 28 -29.5 78q0 17 3 33l54 309h-90q5 29 21.5 45t41.5 16h38l18 100q11 59 83 59l-28 -159h133q-5 -30 -22.5 -45.5t-45.5 -15.5h-75l-54 -306q-3 -16 -3 -28q0 -26 14 -37.5t45 -11.5q34 0 68 18q5 -6 5 -20q0 -27 -27 -45t-67 -18q-53 0 -82.5 28z
M136 -159q-12 11 -12 29q0 24 18 41.5t43 17.5q18 0 29.5 -11.5t11.5 -28.5q0 -24 -17.5 -41.5t-41.5 -17.5q-19 0 -31 11z" />
    <glyph glyph-name="uni1E6F" unicode="&#x1e6f;" horiz-adv-x="385" 
d="M133.5 19q-29.5 28 -29.5 78q0 17 3 33l54 309h-90q5 29 21.5 45t41.5 16h38l18 100q11 59 83 59l-28 -159h133q-5 -30 -22.5 -45.5t-45.5 -15.5h-75l-54 -306q-3 -16 -3 -28q0 -26 14 -37.5t45 -11.5q34 0 68 18q5 -6 5 -20q0 -27 -27 -45t-67 -18q-53 0 -82.5 28z
M93 -59h249q-5 -29 -24 -45.5t-49 -16.5h-249q11 62 73 62z" />
    <glyph glyph-name="u" unicode="u" horiz-adv-x="550" 
d="M441 57q-11 -66 -82 -66l12 66q11 8 24 24l-3 5q-41 -45 -91 -70t-102 -25q-69 0 -111 39.5t-42 103.5q0 16 3 34l49 282q10 59 85 59l-60 -339q-3 -16 -3 -30q0 -84 104 -84q38 0 74 16.5t61 43.5t30 58l48 276q6 30 27 44.5t58 14.5z" />
    <glyph glyph-name="uacute" unicode="&#xfa;" horiz-adv-x="550" 
d="M441 57q-11 -66 -82 -66l12 66q11 8 24 24l-3 5q-41 -45 -91 -70t-102 -25q-69 0 -111 39.5t-42 103.5q0 16 3 34l49 282q10 59 85 59l-60 -339q-3 -16 -3 -30q0 -84 104 -84q38 0 74 16.5t61 43.5t30 58l48 276q6 30 27 44.5t58 14.5zM379 698q22 31 77 31h48l-139 -145
q-13 -13 -27 -16.5t-53 -2.5z" />
    <glyph glyph-name="ubreve" unicode="&#x16d;" horiz-adv-x="550" 
d="M441 57q-11 -66 -82 -66l12 66q11 8 24 24l-3 5q-41 -45 -91 -70t-102 -25q-69 0 -111 39.5t-42 103.5q0 16 3 34l49 282q10 59 85 59l-60 -339q-3 -16 -3 -30q0 -84 104 -84q38 0 74 16.5t61 43.5t30 58l48 276q6 30 27 44.5t58 14.5zM229.5 594q-41.5 29 -41.5 78
q0 36 20 55.5t56 19.5q-4 -20 -4 -40q0 -79 77 -79q94 0 115 119q29 0 42.5 -12t13.5 -31q0 -35 -26 -67t-68 -52t-88 -20q-55 0 -96.5 29z" />
    <glyph glyph-name="uni01D4" unicode="&#x1d4;" horiz-adv-x="550" 
d="M441 57q-11 -66 -82 -66l12 66q11 8 24 24l-3 5q-41 -45 -91 -70t-102 -25q-69 0 -111 39.5t-42 103.5q0 16 3 34l49 282q10 59 85 59l-60 -339q-3 -16 -3 -30q0 -84 104 -84q38 0 74 16.5t61 43.5t30 58l48 276q6 30 27 44.5t58 14.5zM433 726q15 15 40 15q29 0 41 -19
l-161 -143q-13 -11 -27 -11q-15 0 -23 11l-111 143q19 19 49 19q25 0 35 -15l62 -93z" />
    <glyph glyph-name="ucircumflex" unicode="&#xfb;" horiz-adv-x="550" 
d="M441 57q-11 -66 -82 -66l12 66q11 8 24 24l-3 5q-41 -45 -91 -70t-102 -25q-69 0 -111 39.5t-42 103.5q0 16 3 34l49 282q10 59 85 59l-60 -339q-3 -16 -3 -30q0 -84 104 -84q38 0 74 16.5t61 43.5t30 58l48 276q6 30 27 44.5t58 14.5zM211 569q-13 0 -24 5t-17 14
l161 143q13 11 27 11q13 0 22 -11l112 -143q-20 -20 -50 -20q-23 0 -34 15l-62 94l-95 -94q-16 -14 -40 -14z" />
    <glyph glyph-name="udieresis" unicode="&#xfc;" horiz-adv-x="550" 
d="M441 57q-11 -66 -82 -66l12 66q11 8 24 24l-3 5q-41 -45 -91 -70t-102 -25q-69 0 -111 39.5t-42 103.5q0 16 3 34l49 282q10 59 85 59l-60 -339q-3 -16 -3 -30q0 -84 104 -84q38 0 74 16.5t61 43.5t30 58l48 276q6 30 27 44.5t58 14.5zM204.5 591q-11.5 11 -11.5 28
q0 25 17.5 42.5t42.5 17.5q19 0 30 -11t11 -29q0 -24 -17 -41.5t-42 -17.5q-19 0 -30.5 11zM391.5 591q-11.5 11 -11.5 28q0 25 17.5 42.5t42.5 17.5q19 0 30.5 -11t11.5 -29q0 -24 -17.5 -41.5t-42.5 -17.5q-19 0 -30.5 11z" />
    <glyph glyph-name="uni01D8" unicode="&#x1d8;" horiz-adv-x="550" 
d="M441 57q-11 -66 -82 -66l12 66q11 8 24 24l-3 5q-41 -45 -91 -70t-102 -25q-69 0 -111 39.5t-42 103.5q0 16 3 34l49 282q10 59 85 59l-60 -339q-3 -16 -3 -30q0 -84 104 -84q38 0 74 16.5t61 43.5t30 58l48 276q6 30 27 44.5t58 14.5zM393 819q10 15 26.5 21.5t42.5 6.5
h35l-106 -114q-11 -12 -23 -15.5t-46 -2.5zM202 591q-12 11 -12 28q0 25 18 42.5t43 17.5q19 0 30 -11t11 -29q0 -24 -17.5 -41.5t-41.5 -17.5q-19 0 -31 11zM389.5 591q-11.5 11 -11.5 28q0 25 17.5 42.5t42.5 17.5q19 0 30 -11t11 -29q0 -24 -17.5 -41.5t-41.5 -17.5
q-19 0 -30.5 11z" />
    <glyph glyph-name="uni01DA" unicode="&#x1da;" horiz-adv-x="550" 
d="M441 57q-11 -66 -82 -66l12 66q11 8 24 24l-3 5q-41 -45 -91 -70t-102 -25q-69 0 -111 39.5t-42 103.5q0 16 3 34l49 282q10 59 85 59l-60 -339q-3 -16 -3 -30q0 -84 104 -84q38 0 74 16.5t61 43.5t30 58l48 276q6 30 27 44.5t58 14.5zM446 834q15 15 39 15q27 0 39 -19
l-152 -133q-15 -11 -26 -11t-22 11l-106 133q19 19 46 19q24 0 34 -15l59 -85zM202.5 590.5q-11.5 10.5 -11.5 28.5q0 25 17.5 42.5t43.5 17.5q19 0 30 -11t11 -29q0 -24 -17.5 -41.5t-41.5 -17.5q-20 0 -31.5 10.5zM390.5 591q-11.5 11 -11.5 28q0 25 17.5 42.5t42.5 17.5
q19 0 30 -11t11 -29q0 -24 -17.5 -41.5t-41.5 -17.5q-19 0 -30.5 11z" />
    <glyph glyph-name="uni01DC" unicode="&#x1dc;" horiz-adv-x="550" 
d="M441 57q-11 -66 -82 -66l12 66q11 8 24 24l-3 5q-41 -45 -91 -70t-102 -25q-69 0 -111 39.5t-42 103.5q0 16 3 34l49 282q10 59 85 59l-60 -339q-3 -16 -3 -30q0 -84 104 -84q38 0 74 16.5t61 43.5t30 58l48 276q6 30 27 44.5t58 14.5zM336 717.5q-12 3.5 -19 15.5
l-66 114h34q26 0 40 -7t19 -21l35 -104q-31 -1 -43 2.5zM201.5 591q-11.5 11 -11.5 28q0 25 17.5 42.5t42.5 17.5q19 0 30.5 -11t11.5 -29q0 -24 -17.5 -41.5t-42.5 -17.5q-19 0 -30.5 11zM389 591q-11 11 -11 28q0 25 17.5 42.5t41.5 17.5q19 0 30.5 -11t11.5 -29
q0 -24 -17.5 -41.5t-42.5 -17.5q-19 0 -30 11z" />
    <glyph glyph-name="uni01D6" unicode="&#x1d6;" horiz-adv-x="550" 
d="M441 57q-11 -66 -82 -66l12 66q11 8 24 24l-3 5q-41 -45 -91 -70t-102 -25q-69 0 -111 39.5t-42 103.5q0 16 3 34l49 282q10 59 85 59l-60 -339q-3 -16 -3 -30q0 -84 104 -84q38 0 74 16.5t61 43.5t30 58l48 276q6 30 27 44.5t58 14.5zM204.5 591q-11.5 11 -11.5 28
q0 25 17.5 42.5t42.5 17.5q19 0 30 -11t11 -29q0 -24 -17 -41.5t-42 -17.5q-19 0 -30.5 11zM391.5 591q-11.5 11 -11.5 28q0 25 17.5 42.5t42.5 17.5q19 0 30.5 -11t11.5 -29q0 -24 -17.5 -41.5t-42.5 -17.5q-19 0 -30.5 11zM224.5 785q18.5 16 49.5 16h249q-5 -30 -24 -46
t-49 -16h-249q5 30 23.5 46z" />
    <glyph glyph-name="uni1EE5" unicode="&#x1ee5;" horiz-adv-x="550" 
d="M441 57q-11 -66 -82 -66l12 66q11 8 24 24l-3 5q-41 -45 -91 -70t-102 -25q-69 0 -111 39.5t-42 103.5q0 16 3 34l49 282q10 59 85 59l-60 -339q-3 -16 -3 -30q0 -84 104 -84q38 0 74 16.5t61 43.5t30 58l48 276q6 30 27 44.5t58 14.5zM172 -159q-12 11 -12 29
q0 24 18 41.5t43 17.5q18 0 29.5 -11.5t11.5 -28.5q0 -24 -17.5 -41.5t-41.5 -17.5q-19 0 -31 11z" />
    <glyph glyph-name="ugrave" unicode="&#xf9;" horiz-adv-x="550" 
d="M441 57q-11 -66 -82 -66l12 66q11 8 24 24l-3 5q-41 -45 -91 -70t-102 -25q-69 0 -111 39.5t-42 103.5q0 16 3 34l49 282q10 59 85 59l-60 -339q-3 -16 -3 -30q0 -84 104 -84q38 0 74 16.5t61 43.5t30 58l48 276q6 30 27 44.5t58 14.5zM319 567.5q-13 3.5 -21 16.5
l-92 145h48q27 0 43 -7t22 -23l51 -134q-38 -1 -51 2.5z" />
    <glyph glyph-name="uni1EE7" unicode="&#x1ee7;" horiz-adv-x="550" 
d="M441 57q-11 -66 -82 -66l12 66q11 8 24 24l-3 5q-41 -45 -91 -70t-102 -25q-69 0 -111 39.5t-42 103.5q0 16 3 34l49 282q10 59 85 59l-60 -339q-3 -16 -3 -30q0 -84 104 -84q38 0 74 16.5t61 43.5t30 58l48 276q6 30 27 44.5t58 14.5zM306 594q3 18 13 29.5t28 26.5
q16 12 24 22t8 25q0 21 -30 21q-20 0 -31.5 -13t-11.5 -36v-6q-24 0 -38 8t-14 23q0 29 32 52t74 23q37 0 60 -15.5t23 -44.5q0 -26 -10.5 -40.5t-30.5 -28.5q-16 -12 -24 -21t-11 -23t-14.5 -21.5t-28.5 -7.5q-11 0 -23 3z" />
    <glyph glyph-name="uhorn" unicode="&#x1b0;" horiz-adv-x="571" 
d="M596.5 440.5q-36.5 -41.5 -97.5 -60.5l-58 -323q-11 -66 -82 -66l12 66q11 8 24 24l-3 5q-41 -45 -91 -70t-102 -25q-69 0 -111 39.5t-42 103.5q0 16 3 34l49 282q10 59 85 59l-60 -339q-3 -16 -3 -30q0 -84 104 -84q38 0 74 16.5t61 43.5t30 58l48 276q6 30 27 44.5
t58 14.5l-13 -72q28 18 41 48t24 90q59 0 59 -45q0 -48 -36.5 -89.5z" />
    <glyph glyph-name="uni1EE9" unicode="&#x1ee9;" horiz-adv-x="571" 
d="M596.5 440.5q-36.5 -41.5 -97.5 -60.5l-58 -323q-11 -66 -82 -66l12 66q11 8 24 24l-3 5q-41 -45 -91 -70t-102 -25q-69 0 -111 39.5t-42 103.5q0 16 3 34l49 282q10 59 85 59l-60 -339q-3 -16 -3 -30q0 -84 104 -84q38 0 74 16.5t61 43.5t30 58l48 276q6 30 27 44.5
t58 14.5l-13 -72q28 18 41 48t24 90q59 0 59 -45q0 -48 -36.5 -89.5zM386 698q22 31 77 31h48l-139 -145q-13 -13 -27 -16.5t-53 -2.5z" />
    <glyph glyph-name="uni1EF1" unicode="&#x1ef1;" horiz-adv-x="571" 
d="M596.5 440.5q-36.5 -41.5 -97.5 -60.5l-58 -323q-11 -66 -82 -66l12 66q11 8 24 24l-3 5q-41 -45 -91 -70t-102 -25q-69 0 -111 39.5t-42 103.5q0 16 3 34l49 282q10 59 85 59l-60 -339q-3 -16 -3 -30q0 -84 104 -84q38 0 74 16.5t61 43.5t30 58l48 276q6 30 27 44.5
t58 14.5l-13 -72q28 18 41 48t24 90q59 0 59 -45q0 -48 -36.5 -89.5zM170 -159q-12 11 -12 29q0 24 18 41.5t43 17.5q18 0 29.5 -11.5t11.5 -28.5q0 -24 -17.5 -41.5t-41.5 -17.5q-19 0 -31 11z" />
    <glyph glyph-name="uni1EEB" unicode="&#x1eeb;" horiz-adv-x="571" 
d="M596.5 440.5q-36.5 -41.5 -97.5 -60.5l-58 -323q-11 -66 -82 -66l12 66q11 8 24 24l-3 5q-41 -45 -91 -70t-102 -25q-69 0 -111 39.5t-42 103.5q0 16 3 34l49 282q10 59 85 59l-60 -339q-3 -16 -3 -30q0 -84 104 -84q38 0 74 16.5t61 43.5t30 58l48 276q6 30 27 44.5
t58 14.5l-13 -72q28 18 41 48t24 90q59 0 59 -45q0 -48 -36.5 -89.5zM325 567.5q-13 3.5 -21 16.5l-92 145h48q27 0 43 -7t22 -23l51 -134q-38 -1 -51 2.5z" />
    <glyph glyph-name="uni1EED" unicode="&#x1eed;" horiz-adv-x="571" 
d="M596.5 440.5q-36.5 -41.5 -97.5 -60.5l-58 -323q-11 -66 -82 -66l12 66q11 8 24 24l-3 5q-41 -45 -91 -70t-102 -25q-69 0 -111 39.5t-42 103.5q0 16 3 34l49 282q10 59 85 59l-60 -339q-3 -16 -3 -30q0 -84 104 -84q38 0 74 16.5t61 43.5t30 58l48 276q6 30 27 44.5
t58 14.5l-13 -72q28 18 41 48t24 90q59 0 59 -45q0 -48 -36.5 -89.5zM312 594q3 18 13 29.5t28 26.5q16 12 24 22t8 25q0 21 -30 21q-20 0 -31.5 -13t-11.5 -36v-6q-24 0 -38 8t-14 23q0 29 32 52t74 23q37 0 60 -15.5t23 -44.5q0 -26 -10.5 -40.5t-30.5 -28.5
q-16 -12 -24 -21t-11 -23t-14.5 -21.5t-28.5 -7.5q-11 0 -23 3z" />
    <glyph glyph-name="uni1EEF" unicode="&#x1eef;" horiz-adv-x="571" 
d="M596.5 440.5q-36.5 -41.5 -97.5 -60.5l-58 -323q-11 -66 -82 -66l12 66q11 8 24 24l-3 5q-41 -45 -91 -70t-102 -25q-69 0 -111 39.5t-42 103.5q0 16 3 34l49 282q10 59 85 59l-60 -339q-3 -16 -3 -30q0 -84 104 -84q38 0 74 16.5t61 43.5t30 58l48 276q6 30 27 44.5
t58 14.5l-13 -72q28 18 41 48t24 90q59 0 59 -45q0 -48 -36.5 -89.5zM199.5 580q-9.5 11 -9.5 28q0 34 27.5 58t66.5 24q24 0 41 -9.5t37 -27.5q15 -13 24.5 -19t20.5 -6q16 0 26 10t10 29q0 9 -3 19q8 4 20 4q15 0 24 -11.5t9 -28.5q0 -34 -26.5 -57.5t-64.5 -23.5
q-22 0 -38.5 9.5t-36.5 27.5q-16 14 -26 20.5t-22 6.5q-18 0 -28.5 -10.5t-10.5 -29.5q0 -12 4 -20q-9 -4 -20 -4q-15 0 -24.5 11z" />
    <glyph glyph-name="uhungarumlaut" unicode="&#x171;" horiz-adv-x="550" 
d="M441 57q-11 -66 -82 -66l12 66q11 8 24 24l-3 5q-41 -45 -91 -70t-102 -25q-69 0 -111 39.5t-42 103.5q0 16 3 34l49 282q10 59 85 59l-60 -339q-3 -16 -3 -30q0 -84 104 -84q38 0 74 16.5t61 43.5t30 58l48 276q6 30 27 44.5t58 14.5zM291 699q24 30 76 30h46l-143 -145
q-12 -13 -26.5 -16.5t-50.5 -2.5zM469 699q21 30 76 30h46l-140 -145q-11 -13 -25.5 -16.5t-51.5 -2.5z" />
    <glyph glyph-name="umacron" unicode="&#x16b;" horiz-adv-x="550" 
d="M441 57q-11 -66 -82 -66l12 66q11 8 24 24l-3 5q-41 -45 -91 -70t-102 -25q-69 0 -111 39.5t-42 103.5q0 16 3 34l49 282q10 59 85 59l-60 -339q-3 -16 -3 -30q0 -84 104 -84q38 0 74 16.5t61 43.5t30 58l48 276q6 30 27 44.5t58 14.5zM198.5 636q18.5 16 49.5 16h249
q-5 -30 -24 -46t-49 -16h-249q5 30 23.5 46z" />
    <glyph glyph-name="uogonek" unicode="&#x173;" horiz-adv-x="550" 
d="M464 494.5q21 14.5 58 14.5l-81 -452q-8 -44 -40 -58q-38 -27 -60 -59t-22 -61q0 -15 9 -23.5t25 -8.5q25 0 42 18q2 -8 1 -14q-1 -20 -23.5 -35.5t-53.5 -15.5q-33 0 -52 17.5t-19 46.5q0 36 31.5 73t80.5 61l11 59q11 8 24 24l-3 5q-41 -45 -91 -70t-102 -25
q-69 0 -111 39.5t-42 103.5q0 16 3 34l49 282q10 59 85 59l-60 -339q-3 -16 -3 -30q0 -84 104 -84q38 0 74 16.5t61 43.5t30 58l48 276q6 30 27 44.5z" />
    <glyph glyph-name="uring" unicode="&#x16f;" horiz-adv-x="550" 
d="M441 57q-11 -66 -82 -66l12 66q11 8 24 24l-3 5q-41 -45 -91 -70t-102 -25q-69 0 -111 39.5t-42 103.5q0 16 3 34l49 282q10 59 85 59l-60 -339q-3 -16 -3 -30q0 -84 104 -84q38 0 74 16.5t61 43.5t30 58l48 276q6 30 27 44.5t58 14.5zM255.5 567.5
q-24.5 21.5 -24.5 57.5q0 49 36.5 82.5t88.5 33.5q40 0 64 -21.5t24 -57.5q0 -49 -36 -82.5t-87 -33.5q-41 0 -65.5 21.5zM374 610.5q18 18.5 18 43.5q0 19 -12.5 30.5t-31.5 11.5q-26 0 -44 -18.5t-18 -45.5q0 -19 12 -29.5t32 -10.5q26 0 44 18.5z" />
    <glyph glyph-name="utilde" unicode="&#x169;" horiz-adv-x="550" 
d="M441 57q-11 -66 -82 -66l12 66q11 8 24 24l-3 5q-41 -45 -91 -70t-102 -25q-69 0 -111 39.5t-42 103.5q0 16 3 34l49 282q10 59 85 59l-60 -339q-3 -16 -3 -30q0 -84 104 -84q38 0 74 16.5t61 43.5t30 58l48 276q6 30 27 44.5t58 14.5zM193.5 580q-9.5 11 -9.5 28
q0 34 27.5 58t66.5 24q24 0 41 -9.5t37 -27.5q15 -13 24.5 -19t20.5 -6q16 0 26 10t10 29q0 9 -3 19q8 4 20 4q15 0 24 -11.5t9 -28.5q0 -34 -26.5 -57.5t-64.5 -23.5q-22 0 -38.5 9.5t-36.5 27.5q-16 14 -26 20.5t-22 6.5q-18 0 -28.5 -10.5t-10.5 -29.5q0 -12 4 -20
q-9 -4 -20 -4q-15 0 -24.5 11z" />
    <glyph glyph-name="v" unicode="v" horiz-adv-x="559" 
d="M213.5 -3q-8.5 6 -11.5 17l-110 489q18 6 30 6q20 0 32.5 -9.5t15.5 -26.5l75 -375l-20 -38l5 -2l231 415q20 36 60 36q9 0 19.5 -2t14.5 -4l-282 -489q-5 -9 -16.5 -16t-22.5 -7q-12 0 -20.5 6z" />
    <glyph glyph-name="w" unicode="w" horiz-adv-x="736" 
d="M160 4q-17 13 -19 36l-49 462q13 7 32 7q41 0 44 -36l30 -354l-16 -38l4 -2l188 405q13 25 39 25q12 0 21 -7t10 -18l38 -368l-17 -38l5 -2l175 397q17 36 56 36q19 0 30 -7l-212 -462q-23 -49 -77 -49l-48 443l-4 -1l4 -34l-190 -408q-27 0 -44 13z" />
    <glyph glyph-name="wacute" unicode="&#x1e83;" horiz-adv-x="736" 
d="M160 4q-17 13 -19 36l-49 462q13 7 32 7q41 0 44 -36l30 -354l-16 -38l4 -2l188 405q13 25 39 25q12 0 21 -7t10 -18l38 -368l-17 -38l5 -2l175 397q17 36 56 36q19 0 30 -7l-212 -462q-23 -49 -77 -49l-48 443l-4 -1l4 -34l-190 -408q-27 0 -44 13zM478 698q22 31 77 31
h48l-139 -145q-13 -13 -27 -16.5t-53 -2.5z" />
    <glyph glyph-name="wcircumflex" unicode="&#x175;" horiz-adv-x="736" 
d="M160 4q-17 13 -19 36l-49 462q13 7 32 7q41 0 44 -36l30 -354l-16 -38l4 -2l188 405q13 25 39 25q12 0 21 -7t10 -18l38 -368l-17 -38l5 -2l175 397q17 36 56 36q19 0 30 -7l-212 -462q-23 -49 -77 -49l-48 443l-4 -1l4 -34l-190 -408q-27 0 -44 13zM310 569q-13 0 -24 5
t-17 14l161 143q13 11 27 11q13 0 22 -11l112 -143q-20 -20 -50 -20q-23 0 -34 15l-62 94l-95 -94q-16 -14 -40 -14z" />
    <glyph glyph-name="wdieresis" unicode="&#x1e85;" horiz-adv-x="736" 
d="M160 4q-17 13 -19 36l-49 462q13 7 32 7q41 0 44 -36l30 -354l-16 -38l4 -2l188 405q13 25 39 25q12 0 21 -7t10 -18l38 -368l-17 -38l5 -2l175 397q17 36 56 36q19 0 30 -7l-212 -462q-23 -49 -77 -49l-48 443l-4 -1l4 -34l-190 -408q-27 0 -44 13zM303.5 591
q-11.5 11 -11.5 28q0 25 17.5 42.5t42.5 17.5q19 0 30 -11t11 -29q0 -24 -17 -41.5t-42 -17.5q-19 0 -30.5 11zM490.5 591q-11.5 11 -11.5 28q0 25 17.5 42.5t42.5 17.5q19 0 30.5 -11t11.5 -29q0 -24 -17.5 -41.5t-42.5 -17.5q-19 0 -30.5 11z" />
    <glyph glyph-name="wgrave" unicode="&#x1e81;" horiz-adv-x="736" 
d="M160 4q-17 13 -19 36l-49 462q13 7 32 7q41 0 44 -36l30 -354l-16 -38l4 -2l188 405q13 25 39 25q12 0 21 -7t10 -18l38 -368l-17 -38l5 -2l175 397q17 36 56 36q19 0 30 -7l-212 -462q-23 -49 -77 -49l-48 443l-4 -1l4 -34l-190 -408q-27 0 -44 13zM418 567.5
q-13 3.5 -21 16.5l-92 145h48q27 0 43 -7t22 -23l51 -134q-38 -1 -51 2.5z" />
    <glyph glyph-name="x" unicode="x" horiz-adv-x="554" 
d="M5 8l233 257l-125 230q18 14 41 14q14 0 25 -6.5t17 -18.5l86 -165l-24 -26l5 -3l170 194q22 25 54 25q11 0 22.5 -4t17.5 -10l-205 -230l140 -257q-20 -17 -39 -17q-14 0 -25.5 6.5t-17.5 16.5l-107 201l-176 -201q-20 -23 -48 -23q-29 0 -44 17z" />
    <glyph glyph-name="y" unicode="y" horiz-adv-x="563" 
d="M-16 -148q20 -3 39 -3q45 0 78.5 26.5t74.5 94.5l30 49l-113 484q18 6 31 6q18 0 31 -10t16 -26l79 -363l-21 -38l5 -2l232 403q9 17 24.5 26.5t34.5 9.5q9 0 18 -1.5t16 -4.5l-323 -554q-48 -82 -97 -119.5t-108 -37.5q-53 0 -47 60z" />
    <glyph glyph-name="yacute" unicode="&#xfd;" horiz-adv-x="563" 
d="M-16 -148q20 -3 39 -3q45 0 78.5 26.5t74.5 94.5l30 49l-113 484q18 6 31 6q18 0 31 -10t16 -26l79 -363l-21 -38l5 -2l232 403q9 17 24.5 26.5t34.5 9.5q9 0 18 -1.5t16 -4.5l-323 -554q-48 -82 -97 -119.5t-108 -37.5q-53 0 -47 60zM383 698q22 31 77 31h48l-139 -145
q-13 -13 -27 -16.5t-53 -2.5z" />
    <glyph glyph-name="ycircumflex" unicode="&#x177;" horiz-adv-x="563" 
d="M-16 -148q20 -3 39 -3q45 0 78.5 26.5t74.5 94.5l30 49l-113 484q18 6 31 6q18 0 31 -10t16 -26l79 -363l-21 -38l5 -2l232 403q9 17 24.5 26.5t34.5 9.5q9 0 18 -1.5t16 -4.5l-323 -554q-48 -82 -97 -119.5t-108 -37.5q-53 0 -47 60zM214 569q-13 0 -24 5t-17 14
l161 143q13 11 27 11q13 0 22 -11l112 -143q-20 -20 -50 -20q-23 0 -34 15l-62 94l-95 -94q-16 -14 -40 -14z" />
    <glyph glyph-name="ydieresis" unicode="&#xff;" horiz-adv-x="563" 
d="M-16 -148q20 -3 39 -3q45 0 78.5 26.5t74.5 94.5l30 49l-113 484q18 6 31 6q18 0 31 -10t16 -26l79 -363l-21 -38l5 -2l232 403q9 17 24.5 26.5t34.5 9.5q9 0 18 -1.5t16 -4.5l-323 -554q-48 -82 -97 -119.5t-108 -37.5q-53 0 -47 60zM207.5 591q-11.5 11 -11.5 28
q0 25 17.5 42.5t42.5 17.5q19 0 30 -11t11 -29q0 -24 -17 -41.5t-42 -17.5q-19 0 -30.5 11zM394.5 591q-11.5 11 -11.5 28q0 25 17.5 42.5t42.5 17.5q19 0 30.5 -11t11.5 -29q0 -24 -17.5 -41.5t-42.5 -17.5q-19 0 -30.5 11z" />
    </font>
</defs>
</svg>
